Graphik-Bold.ufo
<glyph name="exclam" format="2">
  <advance width="334"/>
  <unicode hex="0021"/>
  <outline>
    <contour>
      <point x="167" y="-11" type="curve" smooth="yes"/>
      <point x="108" y="-11"/>
      <point x="61" y="33"/>
      <point x="61" y="88" type="curve" smooth="yes"/>
      <point x="61" y="143"/>
      <point x="108" y="188"/>
      <point x="167" y="188" type="curve" smooth="yes"/>
      <point x="226" y="188"/>
      <point x="274" y="143"/>
      <point x="274" y="88" type="curve" smooth="yes"/>
      <point x="274" y="33"/>
      <point x="226" y="-11"/>
    </contour>
    <contour>
      <point x="93" y="235" type="line"/>
      <point x="66" y="715" type="line"/>
      <point x="268" y="715" type="line"/>
      <point x="241" y="235" type="line"/>
    </contour>
  </outline>
</glyph>
<glyph name="quotedbl" format="2">
  <advance width="462"/>
  <unicode hex="0022"/>
  <outline>
    <contour>
      <point x="61" y="440" type="line"/>
      <point x="41" y="715" type="line"/>
      <point x="209" y="715" type="line"/>
      <point x="188" y="440" type="line"/>
    </contour>
    <contour>
      <point x="274" y="440" type="line"/>
      <point x="253" y="715" type="line"/>
      <point x="422" y="715" type="line"/>
      <point x="401" y="440" type="line"/>
    </contour>
  </outline>
</glyph>
<glyph name="numbersign" format="2">
  <advance width="576"/>
  <unicode hex="0023"/>
  <outline>
    <contour>
      <point x="270" y="99" type="line"/>
      <point x="291" y="241" type="line"/>
      <point x="229" y="241" type="line"/>
      <point x="208" y="99" type="line"/>
      <point x="87" y="99" type="line"/>
      <point x="108" y="241" type="line"/>
      <point x="39" y="241" type="line"/>
      <point x="39" y="382" type="line"/>
      <point x="129" y="382" type="line"/>
      <point x="140" y="458" type="line"/>
      <point x="63" y="458" type="line"/>
      <point x="63" y="592" type="line"/>
      <point x="160" y="592" type="line"/>
      <point x="178" y="715" type="line"/>
      <point x="299" y="715" type="line"/>
      <point x="281" y="592" type="line"/>
      <point x="343" y="592" type="line"/>
      <point x="362" y="715" type="line"/>
      <point x="483" y="715" type="line"/>
      <point x="464" y="592" type="line"/>
      <point x="536" y="592" type="line"/>
      <point x="536" y="458" type="line"/>
      <point x="444" y="458" type="line"/>
      <point x="433" y="382" type="line"/>
      <point x="512" y="382" type="line"/>
      <point x="512" y="241" type="line"/>
      <point x="412" y="241" type="line"/>
      <point x="391" y="99" type="line"/>
    </contour>
    <contour>
      <point x="261" y="458" type="line"/>
      <point x="250" y="382" type="line"/>
      <point x="312" y="382" type="line"/>
      <point x="323" y="458" type="line"/>
    </contour>
  </outline>
</glyph>
<glyph name="dollar" format="2">
  <advance width="647"/>
  <unicode hex="0024"/>
  <outline>
    <contour>
      <point x="288" y="-135" type="line"/>
      <point x="288" y="-10" type="line"/>
      <point x="115" y="2"/>
      <point x="31" y="94"/>
      <point x="24" y="226" type="curve"/>
      <point x="209" y="226" type="line"/>
      <point x="214" y="180"/>
      <point x="233" y="144"/>
      <point x="288" y="132" type="curve"/>
      <point x="288" y="278" type="line"/>
      <point x="114" y="303"/>
      <point x="40" y="366"/>
      <point x="40" y="505" type="curve" smooth="yes"/>
      <point x="40" y="626"/>
      <point x="135" y="713"/>
      <point x="288" y="724" type="curve"/>
      <point x="288" y="813" type="line"/>
      <point x="366" y="813" type="line"/>
      <point x="366" y="723" type="line"/>
      <point x="511" y="711"/>
      <point x="597" y="644"/>
      <point x="609" y="507" type="curve"/>
      <point x="428" y="507" type="line"/>
      <point x="422" y="545"/>
      <point x="407" y="571"/>
      <point x="366" y="582" type="curve"/>
      <point x="366" y="444" type="line"/>
      <point x="519" y="422"/>
      <point x="619" y="370"/>
      <point x="619" y="225" type="curve" smooth="yes"/>
      <point x="619" y="103"/>
      <point x="540" y="1"/>
      <point x="366" y="-10" type="curve"/>
      <point x="366" y="-135" type="line"/>
    </contour>
    <contour>
      <point x="433" y="203" type="curve" smooth="yes"/>
      <point x="433" y="236"/>
      <point x="419" y="253"/>
      <point x="366" y="265" type="curve"/>
      <point x="366" y="132" type="line"/>
      <point x="410" y="141"/>
      <point x="433" y="167"/>
    </contour>
    <contour>
      <point x="220" y="520" type="curve" smooth="yes"/>
      <point x="220" y="485"/>
      <point x="234" y="467"/>
      <point x="288" y="456" type="curve"/>
      <point x="288" y="584" type="line"/>
      <point x="243" y="576"/>
      <point x="220" y="552"/>
    </contour>
  </outline>
</glyph>
<glyph name="percent" format="2">
  <advance width="827"/>
  <unicode hex="0025"/>
  <outline>
    <contour>
      <point x="215" y="468" type="curve" smooth="yes"/>
      <point x="252" y="468"/>
      <point x="272" y="498"/>
      <point x="272" y="545" type="curve" smooth="yes"/>
      <point x="272" y="592"/>
      <point x="252" y="621"/>
      <point x="215" y="621" type="curve" smooth="yes"/>
      <point x="178" y="621"/>
      <point x="156" y="593"/>
      <point x="156" y="546" type="curve" smooth="yes"/>
      <point x="156" y="496"/>
      <point x="178" y="468"/>
    </contour>
    <contour>
      <point x="214" y="364" type="curve" smooth="yes"/>
      <point x="96" y="364"/>
      <point x="25" y="442"/>
      <point x="25" y="545" type="curve" smooth="yes"/>
      <point x="25" y="646"/>
      <point x="106" y="723"/>
      <point x="215" y="723" type="curve" smooth="yes"/>
      <point x="322" y="723"/>
      <point x="404" y="650"/>
      <point x="404" y="548" type="curve" smooth="yes"/>
      <point x="404" y="444"/>
      <point x="330" y="364"/>
    </contour>
    <contour>
      <point x="118" y="0" type="line"/>
      <point x="614" y="715" type="line"/>
      <point x="712" y="715" type="line"/>
      <point x="216" y="0" type="line"/>
    </contour>
    <contour>
      <point x="613" y="93" type="curve" smooth="yes"/>
      <point x="651" y="93"/>
      <point x="671" y="122"/>
      <point x="671" y="170" type="curve" smooth="yes"/>
      <point x="671" y="216"/>
      <point x="651" y="245"/>
      <point x="613" y="245" type="curve" smooth="yes"/>
      <point x="577" y="245"/>
      <point x="555" y="217"/>
      <point x="555" y="170" type="curve" smooth="yes"/>
      <point x="555" y="120"/>
      <point x="577" y="93"/>
    </contour>
    <contour>
      <point x="612" y="-12" type="curve" smooth="yes"/>
      <point x="494" y="-12"/>
      <point x="423" y="66"/>
      <point x="423" y="169" type="curve" smooth="yes"/>
      <point x="423" y="271"/>
      <point x="505" y="347"/>
      <point x="613" y="347" type="curve" smooth="yes"/>
      <point x="721" y="347"/>
      <point x="802" y="275"/>
      <point x="802" y="172" type="curve" smooth="yes"/>
      <point x="802" y="68"/>
      <point x="728" y="-12"/>
    </contour>
  </outline>
</glyph>
<glyph name="ampersand" format="2">
  <advance width="762"/>
  <unicode hex="0026"/>
  <outline>
    <contour>
      <point x="747" y="372" type="line"/>
      <point x="632" y="146" type="line"/>
      <point x="751" y="0" type="line"/>
      <point x="518" y="0" type="line"/>
      <point x="476" y="52" type="line"/>
      <point x="431" y="16"/>
      <point x="376" y="-12"/>
      <point x="283" y="-12" type="curve" smooth="yes"/>
      <point x="131" y="-12"/>
      <point x="32" y="68"/>
      <point x="32" y="204" type="curve" smooth="yes"/>
      <point x="32" y="296"/>
      <point x="88" y="364"/>
      <point x="189" y="412" type="curve"/>
      <point x="158" y="456"/>
      <point x="145" y="503"/>
      <point x="145" y="537" type="curve" smooth="yes"/>
      <point x="145" y="659"/>
      <point x="249" y="724"/>
      <point x="375" y="724" type="curve" smooth="yes"/>
      <point x="489" y="724"/>
      <point x="592" y="667"/>
      <point x="592" y="557" type="curve" smooth="yes"/>
      <point x="592" y="479"/>
      <point x="546" y="422"/>
      <point x="449" y="380" type="curve"/>
      <point x="539" y="270" type="line"/>
      <point x="591" y="372" type="line"/>
    </contour>
    <contour>
      <point x="314" y="137" type="curve" smooth="yes"/>
      <point x="341" y="137"/>
      <point x="365" y="147"/>
      <point x="384" y="167" type="curve"/>
      <point x="271" y="303" type="line"/>
      <point x="244" y="287"/>
      <point x="223" y="265"/>
      <point x="223" y="226" type="curve" smooth="yes"/>
      <point x="223" y="174"/>
      <point x="254" y="137"/>
    </contour>
    <contour>
      <point x="321" y="535" type="curve" smooth="yes"/>
      <point x="321" y="509"/>
      <point x="337" y="484"/>
      <point x="362" y="455" type="curve"/>
      <point x="410" y="478"/>
      <point x="433" y="505"/>
      <point x="433" y="542" type="curve" smooth="yes"/>
      <point x="433" y="574"/>
      <point x="412" y="597"/>
      <point x="380" y="597" type="curve" smooth="yes"/>
      <point x="346" y="597"/>
      <point x="321" y="574"/>
    </contour>
  </outline>
</glyph>
<glyph name="quotesingle" format="2">
  <advance width="256"/>
  <unicode hex="0027"/>
  <outline>
    <contour>
      <point x="61" y="440" type="line"/>
      <point x="41" y="715" type="line"/>
      <point x="216" y="715" type="line"/>
      <point x="195" y="440" type="line"/>
    </contour>
  </outline>
</glyph>
<glyph name="parenleft" format="2">
  <advance width="356"/>
  <unicode hex="0028"/>
  <outline>
    <contour>
      <point x="204" y="-148" type="line"/>
      <point x="127" y="-55"/>
      <point x="38" y="91"/>
      <point x="38" y="313" type="curve" smooth="yes"/>
      <point x="38" y="537"/>
      <point x="127" y="682"/>
      <point x="204" y="775" type="curve"/>
      <point x="344" y="775" type="line"/>
      <point x="278" y="673"/>
      <point x="209" y="523"/>
      <point x="209" y="313" type="curve" smooth="yes"/>
      <point x="209" y="104"/>
      <point x="278" y="-46"/>
      <point x="344" y="-148" type="curve"/>
    </contour>
  </outline>
</glyph>
<glyph name="parenright" format="2">
  <advance width="356"/>
  <unicode hex="0029"/>
  <outline>
    <contour>
      <point x="11" y="-147" type="line"/>
      <point x="78" y="-45"/>
      <point x="146" y="105"/>
      <point x="146" y="315" type="curve" smooth="yes"/>
      <point x="146" y="524"/>
      <point x="78" y="674"/>
      <point x="11" y="776" type="curve"/>
      <point x="151" y="776" type="line"/>
      <point x="229" y="683"/>
      <point x="318" y="538"/>
      <point x="318" y="315" type="curve" smooth="yes"/>
      <point x="318" y="92"/>
      <point x="229" y="-54"/>
      <point x="151" y="-147" type="curve"/>
    </contour>
  </outline>
</glyph>
<glyph name="asterisk" format="2">
  <advance width="440"/>
  <unicode hex="002A"/>
  <outline>
    <contour>
      <point x="165" y="370" type="line"/>
      <point x="57" y="447" type="line"/>
      <point x="146" y="537" type="line"/>
      <point x="29" y="550" type="line"/>
      <point x="63" y="673" type="line"/>
      <point x="173" y="620" type="line"/>
      <point x="149" y="743" type="line"/>
      <point x="292" y="743" type="line"/>
      <point x="268" y="620" type="line"/>
      <point x="377" y="673" type="line"/>
      <point x="412" y="550" type="line"/>
      <point x="294" y="537" type="line"/>
      <point x="383" y="447" type="line"/>
      <point x="276" y="370" type="line"/>
      <point x="220" y="485" type="line"/>
    </contour>
  </outline>
</glyph>
<glyph name="comma" format="2">
  <advance width="306"/>
  <unicode hex="002C"/>
  <outline>
    <contour>
      <point x="122" y="-122" type="line"/>
      <point x="16" y="-81" type="line"/>
      <point x="100" y="182" type="line"/>
      <point x="266" y="123" type="line"/>
    </contour>
  </outline>
</glyph>
<glyph name="hyphen" format="2">
  <advance width="382"/>
  <unicode hex="002D"/>
  <outline>
    <contour>
      <point x="51" y="218" type="line"/>
      <point x="51" y="353" type="line"/>
      <point x="331" y="353" type="line"/>
      <point x="331" y="218" type="line"/>
    </contour>
  </outline>
</glyph>
<glyph name="period" format="2">
  <advance width="299"/>
  <unicode hex="002E"/>
  <outline>
    <contour>
      <point x="148" y="-11" type="curve" smooth="yes"/>
      <point x="89" y="-11"/>
      <point x="46" y="34"/>
      <point x="46" y="90" type="curve" smooth="yes"/>
      <point x="46" y="146"/>
      <point x="89" y="191"/>
      <point x="148" y="191" type="curve" smooth="yes"/>
      <point x="208" y="191"/>
      <point x="253" y="146"/>
      <point x="253" y="90" type="curve" smooth="yes"/>
      <point x="253" y="34"/>
      <point x="208" y="-11"/>
    </contour>
  </outline>
</glyph>
<glyph name="slash" format="2">
  <advance width="434"/>
  <unicode hex="002F"/>
  <outline>
    <contour>
      <point x="-24" y="-148" type="line"/>
      <point x="293" y="776" type="line"/>
      <point x="436" y="776" type="line"/>
      <point x="118" y="-148" type="line"/>
    </contour>
  </outline>
</glyph>
<glyph name="zero" format="2">
  <advance width="732"/>
  <unicode hex="0030"/>
  <outline>
    <contour>
      <point x="368" y="147" type="curve" smooth="yes"/>
      <point x="456" y="147"/>
      <point x="491" y="212"/>
      <point x="491" y="344" type="curve" smooth="yes"/>
      <point x="491" y="373" type="line" smooth="yes"/>
      <point x="491" y="504"/>
      <point x="453" y="570"/>
      <point x="366" y="570" type="curve" smooth="yes"/>
      <point x="280" y="570"/>
      <point x="241" y="505"/>
      <point x="241" y="373" type="curve" smooth="yes"/>
      <point x="241" y="343" type="line" smooth="yes"/>
      <point x="241" y="210"/>
      <point x="280" y="147"/>
    </contour>
    <contour>
      <point x="362" y="-12" type="curve" smooth="yes"/>
      <point x="162" y="-12"/>
      <point x="36" y="117"/>
      <point x="36" y="342" type="curve" smooth="yes"/>
      <point x="36" y="372" type="line" smooth="yes"/>
      <point x="36" y="598"/>
      <point x="177" y="725"/>
      <point x="366" y="725" type="curve" smooth="yes"/>
      <point x="554" y="725"/>
      <point x="696" y="608"/>
      <point x="696" y="376" type="curve" smooth="yes"/>
      <point x="696" y="348" type="line" smooth="yes"/>
      <point x="696" y="121"/>
      <point x="566" y="-12"/>
    </contour>
  </outline>
</glyph>
<glyph name="one" format="2">
  <advance width="450"/>
  <unicode hex="0031"/>
  <outline>
    <contour>
      <point x="168" y="0" type="line"/>
      <point x="168" y="513" type="line"/>
      <point x="32" y="429" type="line"/>
      <point x="32" y="600" type="line"/>
      <point x="196" y="715" type="line"/>
      <point x="373" y="715" type="line"/>
      <point x="373" y="0" type="line"/>
    </contour>
  </outline>
</glyph>
<glyph name="two" format="2">
  <advance width="615"/>
  <unicode hex="0032"/>
  <outline>
    <contour>
      <point x="8" y="0" type="line"/>
      <point x="8" y="29" type="line"/>
      <point x="258" y="294" type="line" smooth="yes"/>
      <point x="329" y="370"/>
      <point x="376" y="431"/>
      <point x="376" y="491" type="curve" smooth="yes"/>
      <point x="376" y="539"/>
      <point x="351" y="571"/>
      <point x="300" y="571" type="curve" smooth="yes"/>
      <point x="249" y="571"/>
      <point x="217" y="540"/>
      <point x="208" y="455" type="curve"/>
      <point x="22" y="455" type="line"/>
      <point x="29" y="634"/>
      <point x="137" y="725"/>
      <point x="310" y="725" type="curve" smooth="yes"/>
      <point x="485" y="725"/>
      <point x="578" y="631"/>
      <point x="578" y="499" type="curve" smooth="yes"/>
      <point x="578" y="401"/>
      <point x="523" y="327"/>
      <point x="443" y="250" type="curve" smooth="yes"/>
      <point x="343" y="153" type="line"/>
      <point x="583" y="153" type="line"/>
      <point x="583" y="0" type="line"/>
    </contour>
  </outline>
</glyph>
<glyph name="three" format="2">
  <advance width="652"/>
  <unicode hex="0033"/>
  <outline>
    <contour>
      <point x="326" y="-12" type="curve" smooth="yes"/>
      <point x="127" y="-12"/>
      <point x="34" y="80"/>
      <point x="28" y="235" type="curve"/>
      <point x="210" y="235" type="line"/>
      <point x="216" y="176"/>
      <point x="244" y="136"/>
      <point x="315" y="136" type="curve" smooth="yes"/>
      <point x="378" y="136"/>
      <point x="409" y="166"/>
      <point x="409" y="217" type="curve" smooth="yes"/>
      <point x="409" y="273"/>
      <point x="379" y="301"/>
      <point x="315" y="301" type="curve" smooth="yes"/>
      <point x="258" y="301" type="line"/>
      <point x="258" y="428" type="line"/>
      <point x="311" y="428" type="line" smooth="yes"/>
      <point x="375" y="428"/>
      <point x="406" y="457"/>
      <point x="406" y="507" type="curve" smooth="yes"/>
      <point x="406" y="550"/>
      <point x="378" y="578"/>
      <point x="324" y="578" type="curve" smooth="yes"/>
      <point x="269" y="578"/>
      <point x="237" y="545"/>
      <point x="229" y="487" type="curve"/>
      <point x="48" y="487" type="line"/>
      <point x="57" y="628"/>
      <point x="151" y="725"/>
      <point x="329" y="725" type="curve" smooth="yes"/>
      <point x="497" y="725"/>
      <point x="598" y="648"/>
      <point x="598" y="529" type="curve" smooth="yes"/>
      <point x="598" y="449"/>
      <point x="552" y="397"/>
      <point x="477" y="375" type="curve"/>
      <point x="559" y="358"/>
      <point x="616" y="300"/>
      <point x="616" y="213" type="curve" smooth="yes"/>
      <point x="616" y="77"/>
      <point x="515" y="-12"/>
    </contour>
  </outline>
</glyph>
<glyph name="four" format="2">
  <advance width="678"/>
  <unicode hex="0034"/>
  <outline>
    <contour>
      <point x="366" y="0" type="line"/>
      <point x="366" y="137" type="line"/>
      <point x="18" y="137" type="line"/>
      <point x="18" y="214" type="line"/>
      <point x="316" y="715" type="line"/>
      <point x="563" y="715" type="line"/>
      <point x="563" y="278" type="line"/>
      <point x="655" y="278" type="line"/>
      <point x="655" y="137" type="line"/>
      <point x="563" y="137" type="line"/>
      <point x="563" y="0" type="line"/>
    </contour>
    <contour>
      <point x="211" y="278" type="line"/>
      <point x="371" y="278" type="line"/>
      <point x="371" y="561" type="line"/>
    </contour>
  </outline>
</glyph>
<glyph name="five" format="2">
  <advance width="631"/>
  <unicode hex="0035"/>
  <outline>
    <contour>
      <point x="307" y="-12" type="curve" smooth="yes"/>
      <point x="117" y="-12"/>
      <point x="31" y="91"/>
      <point x="26" y="225" type="curve"/>
      <point x="212" y="225" type="line"/>
      <point x="219" y="175"/>
      <point x="239" y="142"/>
      <point x="305" y="142" type="curve" smooth="yes"/>
      <point x="364" y="142"/>
      <point x="391" y="186"/>
      <point x="391" y="243" type="curve" smooth="yes"/>
      <point x="391" y="307"/>
      <point x="356" y="345"/>
      <point x="294" y="345" type="curve" smooth="yes"/>
      <point x="236" y="345"/>
      <point x="200" y="322"/>
      <point x="176" y="294" type="curve"/>
      <point x="54" y="294" type="line"/>
      <point x="69" y="715" type="line"/>
      <point x="551" y="715" type="line"/>
      <point x="551" y="565" type="line"/>
      <point x="217" y="565" type="line"/>
      <point x="213" y="407" type="line"/>
      <point x="240" y="446"/>
      <point x="291" y="483"/>
      <point x="380" y="483" type="curve" smooth="yes"/>
      <point x="511" y="483"/>
      <point x="597" y="395"/>
      <point x="597" y="240" type="curve" smooth="yes"/>
      <point x="597" y="88"/>
      <point x="488" y="-12"/>
    </contour>
  </outline>
</glyph>
<glyph name="six" format="2">
  <advance width="674"/>
  <unicode hex="0036"/>
  <outline>
    <contour>
      <point x="351" y="-12" type="curve" smooth="yes"/>
      <point x="123" y="-12"/>
      <point x="36" y="134"/>
      <point x="36" y="338" type="curve" smooth="yes"/>
      <point x="36" y="357" type="line" smooth="yes"/>
      <point x="36" y="590"/>
      <point x="175" y="725"/>
      <point x="357" y="725" type="curve" smooth="yes"/>
      <point x="518" y="725"/>
      <point x="613" y="654"/>
      <point x="628" y="514" type="curve"/>
      <point x="440" y="514" type="line"/>
      <point x="433" y="549"/>
      <point x="415" y="574"/>
      <point x="364" y="574" type="curve" smooth="yes"/>
      <point x="286" y="574"/>
      <point x="243" y="506"/>
      <point x="239" y="385" type="curve"/>
      <point x="271" y="434"/>
      <point x="318" y="468"/>
      <point x="406" y="468" type="curve" smooth="yes"/>
      <point x="536" y="468"/>
      <point x="643" y="389"/>
      <point x="643" y="239" type="curve" smooth="yes"/>
      <point x="643" y="88"/>
      <point x="533" y="-12"/>
    </contour>
    <contour>
      <point x="349" y="133" type="curve" smooth="yes"/>
      <point x="406" y="133"/>
      <point x="444" y="176"/>
      <point x="444" y="237" type="curve" smooth="yes"/>
      <point x="444" y="297"/>
      <point x="408" y="340"/>
      <point x="349" y="340" type="curve" smooth="yes"/>
      <point x="290" y="340"/>
      <point x="252" y="296"/>
      <point x="252" y="239" type="curve" smooth="yes"/>
      <point x="252" y="176"/>
      <point x="290" y="133"/>
    </contour>
  </outline>
</glyph>
<glyph name="eight" format="2">
  <advance width="657"/>
  <unicode hex="0038"/>
  <outline>
    <contour>
      <point x="328" y="-12" type="curve" smooth="yes"/>
      <point x="148" y="-12"/>
      <point x="30" y="63"/>
      <point x="30" y="202" type="curve" smooth="yes"/>
      <point x="30" y="284"/>
      <point x="75" y="347"/>
      <point x="160" y="377" type="curve"/>
      <point x="98" y="405"/>
      <point x="60" y="453"/>
      <point x="60" y="525" type="curve" smooth="yes"/>
      <point x="60" y="653"/>
      <point x="183" y="725"/>
      <point x="330" y="725" type="curve" smooth="yes"/>
      <point x="482" y="725"/>
      <point x="600" y="653"/>
      <point x="600" y="526" type="curve" smooth="yes"/>
      <point x="600" y="453"/>
      <point x="560" y="406"/>
      <point x="499" y="378" type="curve"/>
      <point x="584" y="349"/>
      <point x="627" y="288"/>
      <point x="627" y="207" type="curve" smooth="yes"/>
      <point x="627" y="69"/>
      <point x="509" y="-12"/>
    </contour>
    <contour>
      <point x="329" y="132" type="curve" smooth="yes"/>
      <point x="386" y="132"/>
      <point x="426" y="166"/>
      <point x="426" y="223" type="curve" smooth="yes"/>
      <point x="426" y="280"/>
      <point x="387" y="314"/>
      <point x="330" y="314" type="curve" smooth="yes"/>
      <point x="274" y="314"/>
      <point x="232" y="281"/>
      <point x="232" y="223" type="curve" smooth="yes"/>
      <point x="232" y="166"/>
      <point x="273" y="132"/>
    </contour>
    <contour>
      <point x="331" y="430" type="curve" smooth="yes"/>
      <point x="378" y="430"/>
      <point x="415" y="460"/>
      <point x="415" y="509" type="curve" smooth="yes"/>
      <point x="415" y="557"/>
      <point x="377" y="587"/>
      <point x="330" y="587" type="curve" smooth="yes"/>
      <point x="284" y="587"/>
      <point x="246" y="557"/>
      <point x="246" y="509" type="curve" smooth="yes"/>
      <point x="246" y="460"/>
      <point x="285" y="430"/>
    </contour>
  </outline>
</glyph>
<glyph name="nine" format="2">
  <advance width="675"/>
  <unicode hex="0039"/>
  <outline>
    <contour>
      <point x="322" y="-11" type="curve" smooth="yes"/>
      <point x="153" y="-11"/>
      <point x="55" y="65"/>
      <point x="40" y="202" type="curve"/>
      <point x="228" y="202" type="line"/>
      <point x="235" y="166"/>
      <point x="257" y="141"/>
      <point x="312" y="141" type="curve" smooth="yes"/>
      <point x="397" y="141"/>
      <point x="432" y="205"/>
      <point x="435" y="327" type="curve"/>
      <point x="404" y="278"/>
      <point x="361" y="243"/>
      <point x="273" y="243" type="curve" smooth="yes"/>
      <point x="136" y="243"/>
      <point x="31" y="322"/>
      <point x="31" y="474" type="curve" smooth="yes"/>
      <point x="31" y="624"/>
      <point x="143" y="726"/>
      <point x="325" y="726" type="curve" smooth="yes"/>
      <point x="538" y="726"/>
      <point x="638" y="583"/>
      <point x="638" y="376" type="curve" smooth="yes"/>
      <point x="638" y="352" type="line" smooth="yes"/>
      <point x="638" y="120"/>
      <point x="526" y="-11"/>
    </contour>
    <contour>
      <point x="322" y="375" type="curve" smooth="yes"/>
      <point x="381" y="375"/>
      <point x="420" y="418"/>
      <point x="420" y="475" type="curve" smooth="yes"/>
      <point x="420" y="538"/>
      <point x="382" y="582"/>
      <point x="322" y="582" type="curve" smooth="yes"/>
      <point x="265" y="582"/>
      <point x="227" y="538"/>
      <point x="227" y="477" type="curve" smooth="yes"/>
      <point x="227" y="418"/>
      <point x="263" y="375"/>
    </contour>
  </outline>
</glyph>
<glyph name="colon" format="2">
  <advance width="305"/>
  <unicode hex="003A"/>
  <outline>
    <contour>
      <point x="151" y="-11" type="curve" smooth="yes"/>
      <point x="93" y="-11"/>
      <point x="49" y="34"/>
      <point x="49" y="90" type="curve" smooth="yes"/>
      <point x="49" y="146"/>
      <point x="93" y="191"/>
      <point x="151" y="191" type="curve" smooth="yes"/>
      <point x="211" y="191"/>
      <point x="256" y="146"/>
      <point x="256" y="90" type="curve" smooth="yes"/>
      <point x="256" y="34"/>
      <point x="211" y="-11"/>
    </contour>
    <contour>
      <point x="151" y="275" type="curve" smooth="yes"/>
      <point x="93" y="275"/>
      <point x="49" y="319"/>
      <point x="49" y="376" type="curve" smooth="yes"/>
      <point x="49" y="432"/>
      <point x="93" y="477"/>
      <point x="151" y="477" type="curve" smooth="yes"/>
      <point x="211" y="477"/>
      <point x="256" y="432"/>
      <point x="256" y="376" type="curve" smooth="yes"/>
      <point x="256" y="319"/>
      <point x="211" y="275"/>
    </contour>
  </outline>
</glyph>
<glyph name="semicolon" format="2">
  <advance width="321"/>
  <unicode hex="003B"/>
  <outline>
    <contour>
      <point x="116" y="-122" type="line"/>
      <point x="10" y="-81" type="line"/>
      <point x="93" y="182" type="line"/>
      <point x="259" y="123" type="line"/>
    </contour>
    <contour>
      <point x="174" y="275" type="curve" smooth="yes"/>
      <point x="115" y="275"/>
      <point x="72" y="319"/>
      <point x="72" y="376" type="curve" smooth="yes"/>
      <point x="72" y="432"/>
      <point x="115" y="477"/>
      <point x="174" y="477" type="curve" smooth="yes"/>
      <point x="234" y="477"/>
      <point x="279" y="432"/>
      <point x="279" y="376" type="curve" smooth="yes"/>
      <point x="279" y="319"/>
      <point x="234" y="275"/>
    </contour>
  </outline>
</glyph>
<glyph name="less" format="2">
  <advance width="513"/>
  <unicode hex="003C"/>
  <outline>
    <contour>
      <point x="463" y="59" type="line"/>
      <point x="42" y="305" type="line"/>
      <point x="42" y="339" type="line"/>
      <point x="463" y="585" type="line"/>
      <point x="463" y="423" type="line"/>
      <point x="273" y="323" type="line"/>
      <point x="463" y="217" type="line"/>
    </contour>
  </outline>
</glyph>
<glyph name="equal" format="2">
  <advance width="557"/>
  <unicode hex="003D"/>
  <outline>
    <contour>
      <point x="39" y="167" type="line"/>
      <point x="39" y="289" type="line"/>
      <point x="518" y="289" type="line"/>
      <point x="518" y="167" type="line"/>
    </contour>
    <contour>
      <point x="39" y="363" type="line"/>
      <point x="39" y="486" type="line"/>
      <point x="518" y="486" type="line"/>
      <point x="518" y="363" type="line"/>
    </contour>
  </outline>
</glyph>
<glyph name="greater" format="2">
  <advance width="513"/>
  <unicode hex="003E"/>
  <outline>
    <contour>
      <point x="49" y="60" type="line"/>
      <point x="49" y="223" type="line"/>
      <point x="240" y="322" type="line"/>
      <point x="49" y="428" type="line"/>
      <point x="49" y="586" type="line"/>
      <point x="471" y="340" type="line"/>
      <point x="471" y="306" type="line"/>
    </contour>
  </outline>
</glyph>
<glyph name="question" format="2">
  <advance width="556"/>
  <unicode hex="003F"/>
  <outline>
    <contour>
      <point x="169" y="235" type="line"/>
      <point x="169" y="254" type="line" smooth="yes"/>
      <point x="169" y="330"/>
      <point x="221" y="378"/>
      <point x="267" y="422" type="curve" smooth="yes"/>
      <point x="301" y="455"/>
      <point x="332" y="485"/>
      <point x="332" y="520" type="curve" smooth="yes"/>
      <point x="332" y="559"/>
      <point x="313" y="580"/>
      <point x="271" y="580" type="curve" smooth="yes"/>
      <point x="228" y="580"/>
      <point x="199" y="547"/>
      <point x="192" y="492" type="curve"/>
      <point x="18" y="492" type="line"/>
      <point x="23" y="643"/>
      <point x="131" y="725"/>
      <point x="285" y="725" type="curve" smooth="yes"/>
      <point x="439" y="725"/>
      <point x="526" y="656"/>
      <point x="526" y="537" type="curve" smooth="yes"/>
      <point x="526" y="471"/>
      <point x="493" y="426"/>
      <point x="453" y="387" type="curve" smooth="yes"/>
      <point x="404" y="338"/>
      <point x="347" y="299"/>
      <point x="338" y="250" type="curve"/>
      <point x="338" y="235" type="line"/>
    </contour>
    <contour>
      <point x="254" y="-11" type="curve" smooth="yes"/>
      <point x="194" y="-11"/>
      <point x="146" y="33"/>
      <point x="146" y="88" type="curve" smooth="yes"/>
      <point x="146" y="143"/>
      <point x="194" y="188"/>
      <point x="254" y="188" type="curve" smooth="yes"/>
      <point x="312" y="188"/>
      <point x="360" y="143"/>
      <point x="360" y="88" type="curve" smooth="yes"/>
      <point x="360" y="33"/>
      <point x="312" y="-11"/>
    </contour>
  </outline>
</glyph>
<glyph name="at" format="2">
  <advance width="921"/>
  <unicode hex="0040"/>
  <outline>
    <contour>
      <point x="460" y="-158" type="curve" smooth="yes"/>
      <point x="190" y="-158"/>
      <point x="28" y="25"/>
      <point x="28" y="251" type="curve" smooth="yes"/>
      <point x="28" y="516"/>
      <point x="243" y="691"/>
      <point x="479" y="691" type="curve" smooth="yes"/>
      <point x="716" y="691"/>
      <point x="892" y="546"/>
      <point x="892" y="327" type="curve" smooth="yes"/>
      <point x="892" y="128"/>
      <point x="783" y="52"/>
      <point x="676" y="52" type="curve" smooth="yes"/>
      <point x="589" y="52"/>
      <point x="543" y="81"/>
      <point x="529" y="134" type="curve"/>
      <point x="503" y="81"/>
      <point x="459" y="50"/>
      <point x="395" y="50" type="curve" smooth="yes"/>
      <point x="297" y="50"/>
      <point x="232" y="121"/>
      <point x="232" y="236" type="curve" smooth="yes"/>
      <point x="232" y="377"/>
      <point x="320" y="471"/>
      <point x="430" y="471" type="curve" smooth="yes"/>
      <point x="492" y="471"/>
      <point x="524" y="444"/>
      <point x="539" y="411" type="curve"/>
      <point x="546" y="463" type="line"/>
      <point x="693" y="463" type="line"/>
      <point x="659" y="190" type="line" smooth="yes"/>
      <point x="654" y="148"/>
      <point x="667" y="124"/>
      <point x="703" y="124" type="curve" smooth="yes"/>
      <point x="758" y="124"/>
      <point x="812" y="182"/>
      <point x="812" y="329" type="curve" smooth="yes"/>
      <point x="812" y="503"/>
      <point x="683" y="621"/>
      <point x="481" y="621" type="curve" smooth="yes"/>
      <point x="275" y="621"/>
      <point x="113" y="477"/>
      <point x="113" y="250" type="curve" smooth="yes"/>
      <point x="113" y="60"/>
      <point x="231" y="-89"/>
      <point x="464" y="-89" type="curve" smooth="yes"/>
      <point x="580" y="-89"/>
      <point x="670" y="-48"/>
      <point x="721" y="0" type="curve"/>
      <point x="812" y="0" type="line"/>
      <point x="746" y="-96"/>
      <point x="614" y="-158"/>
    </contour>
    <contour>
      <point x="443" y="168" type="curve" smooth="yes"/>
      <point x="487" y="168"/>
      <point x="523" y="215"/>
      <point x="523" y="284" type="curve" smooth="yes"/>
      <point x="523" y="328"/>
      <point x="501" y="355"/>
      <point x="459" y="355" type="curve" smooth="yes"/>
      <point x="414" y="355"/>
      <point x="382" y="309"/>
      <point x="382" y="242" type="curve" smooth="yes"/>
      <point x="382" y="200"/>
      <point x="403" y="168"/>
    </contour>
  </outline>
</glyph>
<glyph name="A" format="2">
  <advance width="747"/>
  <unicode hex="0041"/>
  <outline>
    <contour>
      <point x="13" y="0" type="line"/>
      <point x="242" y="715" type="line"/>
      <point x="507" y="715" type="line"/>
      <point x="734" y="0" type="line"/>
      <point x="517" y="0" type="line"/>
      <point x="479" y="133" type="line"/>
      <point x="242" y="133" type="line"/>
      <point x="204" y="0" type="line"/>
    </contour>
    <contour>
      <point x="361" y="549" type="line"/>
      <point x="282" y="274" type="line"/>
      <point x="439" y="274" type="line"/>
    </contour>
  </outline>
</glyph>
<glyph name="B" format="2">
  <advance width="679"/>
  <unicode hex="0042"/>
  <outline>
    <contour>
      <point x="69" y="0" type="line"/>
      <point x="69" y="715" type="line"/>
      <point x="388" y="715" type="line" smooth="yes"/>
      <point x="557" y="715"/>
      <point x="629" y="639"/>
      <point x="629" y="528" type="curve" smooth="yes"/>
      <point x="629" y="524" type="line" smooth="yes"/>
      <point x="629" y="444"/>
      <point x="588" y="391"/>
      <point x="508" y="370" type="curve"/>
      <point x="596" y="355"/>
      <point x="651" y="302"/>
      <point x="651" y="203" type="curve" smooth="yes"/>
      <point x="651" y="199" type="line" smooth="yes"/>
      <point x="651" y="71"/>
      <point x="568" y="0"/>
      <point x="391" y="0" type="curve" smooth="yes"/>
    </contour>
    <contour>
      <point x="269" y="137" type="line"/>
      <point x="354" y="137" type="line" smooth="yes"/>
      <point x="419" y="137"/>
      <point x="449" y="167"/>
      <point x="449" y="220" type="curve" smooth="yes"/>
      <point x="449" y="224" type="line" smooth="yes"/>
      <point x="449" y="278"/>
      <point x="420" y="306"/>
      <point x="348" y="306" type="curve" smooth="yes"/>
      <point x="269" y="306" type="line"/>
    </contour>
    <contour>
      <point x="269" y="431" type="line"/>
      <point x="347" y="431" type="line" smooth="yes"/>
      <point x="411" y="431"/>
      <point x="435" y="453"/>
      <point x="435" y="504" type="curve" smooth="yes"/>
      <point x="435" y="508" type="line" smooth="yes"/>
      <point x="435" y="557"/>
      <point x="409" y="579"/>
      <point x="347" y="579" type="curve" smooth="yes"/>
      <point x="269" y="579" type="line"/>
    </contour>
  </outline>
</glyph>
<glyph name="D" format="2">
  <advance width="743"/>
  <unicode hex="0044"/>
  <outline>
    <contour>
      <point x="275" y="158" type="line"/>
      <point x="322" y="158" type="line" smooth="yes"/>
      <point x="444" y="158"/>
      <point x="498" y="222"/>
      <point x="498" y="355" type="curve" smooth="yes"/>
      <point x="498" y="363" type="line" smooth="yes"/>
      <point x="498" y="499"/>
      <point x="444" y="557"/>
      <point x="320" y="557" type="curve" smooth="yes"/>
      <point x="275" y="557" type="line"/>
    </contour>
    <contour>
      <point x="69" y="0" type="line"/>
      <point x="69" y="715" type="line"/>
      <point x="329" y="715" type="line" smooth="yes"/>
      <point x="583" y="715"/>
      <point x="712" y="588"/>
      <point x="712" y="366" type="curve" smooth="yes"/>
      <point x="712" y="358" type="line" smooth="yes"/>
      <point x="712" y="135"/>
      <point x="580" y="0"/>
      <point x="328" y="0" type="curve" smooth="yes"/>
    </contour>
  </outline>
</glyph>
<glyph name="F" format="2">
  <advance width="579"/>
  <unicode hex="0046"/>
  <outline>
    <contour>
      <point x="69" y="0" type="line"/>
      <point x="69" y="715" type="line"/>
      <point x="552" y="715" type="line"/>
      <point x="552" y="556" type="line"/>
      <point x="275" y="556" type="line"/>
      <point x="275" y="404" type="line"/>
      <point x="496" y="404" type="line"/>
      <point x="496" y="253" type="line"/>
      <point x="275" y="253" type="line"/>
      <point x="275" y="0" type="line"/>
    </contour>
  </outline>
</glyph>
<glyph name="H" format="2">
  <advance width="784"/>
  <unicode hex="0048"/>
  <outline>
    <contour>
      <point x="69" y="0" type="line"/>
      <point x="69" y="715" type="line"/>
      <point x="275" y="715" type="line"/>
      <point x="275" y="442" type="line"/>
      <point x="510" y="442" type="line"/>
      <point x="510" y="715" type="line"/>
      <point x="715" y="715" type="line"/>
      <point x="715" y="0" type="line"/>
      <point x="510" y="0" type="line"/>
      <point x="510" y="282" type="line"/>
      <point x="275" y="282" type="line"/>
      <point x="275" y="0" type="line"/>
    </contour>
  </outline>
</glyph>
<glyph name="J" format="2">
  <advance width="478"/>
  <unicode hex="004A"/>
  <outline>
    <contour>
      <point x="163" y="-9" type="curve" smooth="yes"/>
      <point x="96" y="-9"/>
      <point x="62" y="1"/>
      <point x="33" y="15" type="curve"/>
      <point x="33" y="168" type="line"/>
      <point x="57" y="160"/>
      <point x="79" y="154"/>
      <point x="120" y="154" type="curve" smooth="yes"/>
      <point x="176" y="154"/>
      <point x="213" y="179"/>
      <point x="213" y="253" type="curve" smooth="yes"/>
      <point x="213" y="715" type="line"/>
      <point x="419" y="715" type="line"/>
      <point x="419" y="251" type="line" smooth="yes"/>
      <point x="419" y="79"/>
      <point x="331" y="-9"/>
    </contour>
  </outline>
</glyph>
<glyph name="K" format="2">
  <advance width="726"/>
  <unicode hex="004B"/>
  <outline>
    <contour>
      <point x="69" y="0" type="line"/>
      <point x="69" y="715" type="line"/>
      <point x="275" y="715" type="line"/>
      <point x="275" y="432" type="line"/>
      <point x="490" y="715" type="line"/>
      <point x="704" y="715" type="line"/>
      <point x="442" y="383" type="line"/>
      <point x="718" y="0" type="line"/>
      <point x="481" y="0" type="line"/>
      <point x="275" y="299" type="line"/>
      <point x="275" y="0" type="line"/>
    </contour>
  </outline>
</glyph>
<glyph name="L" format="2">
  <advance width="575"/>
  <unicode hex="004C"/>
  <outline>
    <contour>
      <point x="69" y="0" type="line"/>
      <point x="69" y="715" type="line"/>
      <point x="275" y="715" type="line"/>
      <point x="275" y="159" type="line"/>
      <point x="545" y="159" type="line"/>
      <point x="545" y="0" type="line"/>
    </contour>
  </outline>
</glyph>
<glyph name="M" format="2">
  <advance width="942"/>
  <unicode hex="004D"/>
  <outline>
    <contour>
      <point x="69" y="0" type="line"/>
      <point x="69" y="715" type="line"/>
      <point x="336" y="715" type="line"/>
      <point x="473" y="334" type="line"/>
      <point x="610" y="715" type="line"/>
      <point x="872" y="715" type="line"/>
      <point x="872" y="0" type="line"/>
      <point x="668" y="0" type="line"/>
      <point x="668" y="445" type="line"/>
      <point x="493" y="0" type="line"/>
      <point x="425" y="0" type="line"/>
      <point x="252" y="445" type="line"/>
      <point x="252" y="0" type="line"/>
    </contour>
  </outline>
</glyph>
<glyph name="N" format="2">
  <advance width="777"/>
  <unicode hex="004E"/>
  <outline>
    <contour>
      <point x="69" y="0" type="line"/>
      <point x="69" y="715" type="line"/>
      <point x="300" y="715" type="line"/>
      <point x="529" y="312" type="line"/>
      <point x="529" y="715" type="line"/>
      <point x="708" y="715" type="line"/>
      <point x="708" y="0" type="line"/>
      <point x="510" y="0" type="line"/>
      <point x="249" y="449" type="line"/>
      <point x="249" y="0" type="line"/>
    </contour>
  </outline>
</glyph>
<glyph name="P" format="2">
  <advance width="652"/>
  <unicode hex="0050"/>
  <outline>
    <contour>
      <point x="69" y="0" type="line"/>
      <point x="69" y="715" type="line"/>
      <point x="341" y="715" type="line" smooth="yes"/>
      <point x="537" y="715"/>
      <point x="628" y="628"/>
      <point x="628" y="476" type="curve" smooth="yes"/>
      <point x="628" y="472" type="line" smooth="yes"/>
      <point x="628" y="322"/>
      <point x="527" y="241"/>
      <point x="350" y="241" type="curve" smooth="yes"/>
      <point x="273" y="241" type="line"/>
      <point x="273" y="0" type="line"/>
    </contour>
    <contour>
      <point x="273" y="381" type="line"/>
      <point x="332" y="381" type="line" smooth="yes"/>
      <point x="398" y="381"/>
      <point x="433" y="412"/>
      <point x="433" y="471" type="curve" smooth="yes"/>
      <point x="433" y="475" type="line" smooth="yes"/>
      <point x="433" y="536"/>
      <point x="397" y="561"/>
      <point x="333" y="561" type="curve" smooth="yes"/>
      <point x="273" y="561" type="line"/>
    </contour>
  </outline>
</glyph>
<glyph name="Q" format="2">
  <advance width="819"/>
  <unicode hex="0051"/>
  <outline>
    <contour>
      <point x="613" y="-120" type="line"/>
      <point x="497" y="-3" type="line"/>
      <point x="468" y="-9"/>
      <point x="438" y="-12"/>
      <point x="406" y="-12" type="curve" smooth="yes"/>
      <point x="175" y="-12"/>
      <point x="31" y="138"/>
      <point x="31" y="353" type="curve" smooth="yes"/>
      <point x="31" y="361" type="line" smooth="yes"/>
      <point x="31" y="579"/>
      <point x="195" y="725"/>
      <point x="409" y="725" type="curve" smooth="yes"/>
      <point x="627" y="725"/>
      <point x="788" y="588"/>
      <point x="788" y="366" type="curve" smooth="yes"/>
      <point x="788" y="358" type="line" smooth="yes"/>
      <point x="788" y="233"/>
      <point x="739" y="131"/>
      <point x="655" y="66" type="curve"/>
      <point x="727" y="-6" type="line"/>
    </contour>
    <contour>
      <point x="245" y="354" type="line" smooth="yes"/>
      <point x="245" y="246"/>
      <point x="284" y="179"/>
      <point x="348" y="154" type="curve"/>
      <point x="463" y="260" type="line"/>
      <point x="527" y="195" type="line"/>
      <point x="557" y="231"/>
      <point x="574" y="284"/>
      <point x="574" y="355" type="curve" smooth="yes"/>
      <point x="574" y="363" type="line" smooth="yes"/>
      <point x="574" y="490"/>
      <point x="510" y="565"/>
      <point x="409" y="565" type="curve" smooth="yes"/>
      <point x="308" y="565"/>
      <point x="245" y="492"/>
      <point x="245" y="362" type="curve" smooth="yes"/>
    </contour>
  </outline>
</glyph>
<glyph name="V" format="2">
  <advance width="728"/>
  <unicode hex="0056"/>
  <outline>
    <contour>
      <point x="249" y="0" type="line"/>
      <point x="12" y="715" type="line"/>
      <point x="233" y="715" type="line"/>
      <point x="378" y="213" type="line"/>
      <point x="524" y="715" type="line"/>
      <point x="716" y="715" type="line"/>
      <point x="482" y="0" type="line"/>
    </contour>
  </outline>
</glyph>
<glyph name="X" format="2">
  <advance width="755"/>
  <unicode hex="0058"/>
  <outline>
    <contour>
      <point x="22" y="0" type="line"/>
      <point x="243" y="368" type="line"/>
      <point x="39" y="715" type="line"/>
      <point x="272" y="715" type="line"/>
      <point x="384" y="502" type="line"/>
      <point x="494" y="715" type="line"/>
      <point x="704" y="715" type="line"/>
      <point x="512" y="375" type="line"/>
      <point x="733" y="0" type="line"/>
      <point x="499" y="0" type="line"/>
      <point x="366" y="246" type="line"/>
      <point x="233" y="0" type="line"/>
    </contour>
  </outline>
</glyph>
<glyph name="bracketleft" format="2">
  <advance width="409"/>
  <unicode hex="005B"/>
  <outline>
    <contour>
      <point x="66" y="-148" type="line"/>
      <point x="66" y="776" type="line"/>
      <point x="371" y="776" type="line"/>
      <point x="371" y="645" type="line"/>
      <point x="246" y="645" type="line"/>
      <point x="246" y="-17" type="line"/>
      <point x="371" y="-17" type="line"/>
      <point x="371" y="-148" type="line"/>
    </contour>
  </outline>
</glyph>
<glyph name="bracketright" format="2">
  <advance width="409"/>
  <unicode hex="005D"/>
  <outline>
    <contour>
      <point x="39" y="-148" type="line"/>
      <point x="39" y="-17" type="line"/>
      <point x="163" y="-17" type="line"/>
      <point x="163" y="645" type="line"/>
      <point x="39" y="645" type="line"/>
      <point x="39" y="776" type="line"/>
      <point x="343" y="776" type="line"/>
      <point x="343" y="-148" type="line"/>
    </contour>
  </outline>
</glyph>
<glyph name="asciicircum" format="2">
  <advance width="531"/>
  <unicode hex="005E"/>
  <outline>
    <contour>
      <point x="23" y="393" type="line"/>
      <point x="187" y="715" type="line"/>
      <point x="344" y="715" type="line"/>
      <point x="508" y="393" type="line"/>
      <point x="355" y="393" type="line"/>
      <point x="264" y="569" type="line"/>
      <point x="173" y="393" type="line"/>
    </contour>
  </outline>
</glyph>
<glyph name="underscore" format="2">
  <advance width="434"/>
  <unicode hex="005F"/>
  <outline>
    <contour>
      <point x="-1" y="-161" type="line"/>
      <point x="-1" y="-75" type="line"/>
      <point x="435" y="-75" type="line"/>
      <point x="435" y="-161" type="line"/>
    </contour>
  </outline>
</glyph>
<glyph name="a" format="2">
  <advance width="578"/>
  <unicode hex="0061"/>
  <outline>
    <contour>
      <point x="200" y="-12" type="curve" smooth="yes"/>
      <point x="106" y="-12"/>
      <point x="23" y="34"/>
      <point x="23" y="145" type="curve" smooth="yes"/>
      <point x="23" y="268"/>
      <point x="127" y="316"/>
      <point x="301" y="316" type="curve" smooth="yes"/>
      <point x="351" y="316" type="line"/>
      <point x="351" y="328" type="line" smooth="yes"/>
      <point x="351" y="378"/>
      <point x="339" y="411"/>
      <point x="282" y="411" type="curve" smooth="yes"/>
      <point x="233" y="411"/>
      <point x="215" y="382"/>
      <point x="211" y="349" type="curve"/>
      <point x="43" y="349" type="line"/>
      <point x="51" y="475"/>
      <point x="150" y="537"/>
      <point x="293" y="537" type="curve" smooth="yes"/>
      <point x="437" y="537"/>
      <point x="529" y="478"/>
      <point x="529" y="339" type="curve" smooth="yes"/>
      <point x="529" y="0" type="line"/>
      <point x="355" y="0" type="line"/>
      <point x="355" y="61" type="line"/>
      <point x="330" y="23"/>
      <point x="284" y="-12"/>
    </contour>
    <contour>
      <point x="262" y="109" type="curve" smooth="yes"/>
      <point x="313" y="109"/>
      <point x="351" y="138"/>
      <point x="351" y="183" type="curve" smooth="yes"/>
      <point x="351" y="215" type="line"/>
      <point x="304" y="215" type="line" smooth="yes"/>
      <point x="232" y="215"/>
      <point x="200" y="201"/>
      <point x="200" y="158" type="curve" smooth="yes"/>
      <point x="200" y="128"/>
      <point x="220" y="109"/>
    </contour>
  </outline>
</glyph>
<glyph name="f" format="2">
  <advance width="386"/>
  <unicode hex="0066"/>
  <outline>
    <contour>
      <point x="80" y="0" type="line"/>
      <point x="80" y="401" type="line"/>
      <point x="14" y="401" type="line"/>
      <point x="14" y="523" type="line"/>
      <point x="80" y="523" type="line"/>
      <point x="80" y="569" type="line" smooth="yes"/>
      <point x="80" y="699"/>
      <point x="161" y="761"/>
      <point x="285" y="761" type="curve" smooth="yes"/>
      <point x="318" y="761"/>
      <point x="343" y="756"/>
      <point x="367" y="750" type="curve"/>
      <point x="367" y="619" type="line"/>
      <point x="354" y="623"/>
      <point x="338" y="626"/>
      <point x="318" y="626" type="curve" smooth="yes"/>
      <point x="276" y="626"/>
      <point x="258" y="603"/>
      <point x="258" y="569" type="curve" smooth="yes"/>
      <point x="258" y="523" type="line"/>
      <point x="364" y="523" type="line"/>
      <point x="364" y="401" type="line"/>
      <point x="258" y="401" type="line"/>
      <point x="258" y="0" type="line"/>
    </contour>
  </outline>
</glyph>
<glyph name="g" format="2">
  <advance width="641"/>
  <unicode hex="0067"/>
  <outline>
    <contour>
      <point x="298" y="-194" type="curve" smooth="yes"/>
      <point x="120" y="-194"/>
      <point x="38" y="-119"/>
      <point x="24" y="0" type="curve"/>
      <point x="202" y="0" type="line"/>
      <point x="210" y="-38"/>
      <point x="233" y="-68"/>
      <point x="298" y="-68" type="curve" smooth="yes"/>
      <point x="377" y="-68"/>
      <point x="409" y="-23"/>
      <point x="409" y="42" type="curve" smooth="yes"/>
      <point x="409" y="122" type="line"/>
      <point x="382" y="72"/>
      <point x="325" y="26"/>
      <point x="247" y="26" type="curve" smooth="yes"/>
      <point x="125" y="26"/>
      <point x="25" y="116"/>
      <point x="25" y="277" type="curve" smooth="yes"/>
      <point x="25" y="285" type="line" smooth="yes"/>
      <point x="25" y="439"/>
      <point x="124" y="537"/>
      <point x="247" y="537" type="curve" smooth="yes"/>
      <point x="330" y="537"/>
      <point x="379" y="502"/>
      <point x="409" y="449" type="curve"/>
      <point x="409" y="523" type="line"/>
      <point x="588" y="523" type="line"/>
      <point x="588" y="44" type="line" smooth="yes"/>
      <point x="588" y="-112"/>
      <point x="485" y="-194"/>
    </contour>
    <contour>
      <point x="310" y="158" type="curve" smooth="yes"/>
      <point x="374" y="158"/>
      <point x="414" y="204"/>
      <point x="414" y="278" type="curve" smooth="yes"/>
      <point x="414" y="285" type="line" smooth="yes"/>
      <point x="414" y="357"/>
      <point x="377" y="403"/>
      <point x="311" y="403" type="curve" smooth="yes"/>
      <point x="244" y="403"/>
      <point x="208" y="356"/>
      <point x="208" y="284" type="curve" smooth="yes"/>
      <point x="208" y="276" type="line" smooth="yes"/>
      <point x="208" y="204"/>
      <point x="246" y="158"/>
    </contour>
  </outline>
</glyph>
<glyph name="j" format="2">
  <advance width="295"/>
  <unicode hex="006A"/>
  <outline>
    <contour>
      <point x="-6" y="-184" type="curve"/>
      <point x="-6" y="-54" type="line"/>
      <point x="38" y="-51"/>
      <point x="58" y="-33"/>
      <point x="58" y="8" type="curve" smooth="yes"/>
      <point x="58" y="523" type="line"/>
      <point x="236" y="523" type="line"/>
      <point x="236" y="4" type="line" smooth="yes"/>
      <point x="236" y="-109"/>
      <point x="183" y="-184"/>
    </contour>
    <contour>
      <point x="147" y="573" type="curve" smooth="yes"/>
      <point x="91" y="573"/>
      <point x="49" y="612"/>
      <point x="49" y="665" type="curve" smooth="yes"/>
      <point x="49" y="718"/>
      <point x="91" y="758"/>
      <point x="147" y="758" type="curve" smooth="yes"/>
      <point x="203" y="758"/>
      <point x="246" y="718"/>
      <point x="246" y="665" type="curve" smooth="yes"/>
      <point x="246" y="612"/>
      <point x="203" y="573"/>
    </contour>
  </outline>
</glyph>
<glyph name="k" format="2">
  <advance width="577"/>
  <unicode hex="006B"/>
  <outline>
    <contour>
      <point x="53" y="0" type="line"/>
      <point x="53" y="753" type="line"/>
      <point x="232" y="753" type="line"/>
      <point x="232" y="316" type="line"/>
      <point x="373" y="523" type="line"/>
      <point x="559" y="523" type="line"/>
      <point x="388" y="288" type="line"/>
      <point x="573" y="0" type="line"/>
      <point x="373" y="0" type="line"/>
      <point x="232" y="229" type="line"/>
      <point x="232" y="0" type="line"/>
    </contour>
  </outline>
</glyph>
<glyph name="m" format="2">
  <advance width="931"/>
  <unicode hex="006D"/>
  <outline>
    <contour>
      <point x="53" y="0" type="line"/>
      <point x="53" y="523" type="line"/>
      <point x="232" y="523" type="line"/>
      <point x="232" y="443" type="line"/>
      <point x="260" y="493"/>
      <point x="315" y="537"/>
      <point x="396" y="537" type="curve" smooth="yes"/>
      <point x="465" y="537"/>
      <point x="513" y="507"/>
      <point x="538" y="450" type="curve"/>
      <point x="583" y="511"/>
      <point x="645" y="537"/>
      <point x="711" y="537" type="curve" smooth="yes"/>
      <point x="810" y="537"/>
      <point x="882" y="473"/>
      <point x="882" y="342" type="curve" smooth="yes"/>
      <point x="882" y="0" type="line"/>
      <point x="703" y="0" type="line"/>
      <point x="703" y="312" type="line" smooth="yes"/>
      <point x="703" y="365"/>
      <point x="677" y="391"/>
      <point x="636" y="391" type="curve" smooth="yes"/>
      <point x="588" y="391"/>
      <point x="556" y="360"/>
      <point x="556" y="303" type="curve" smooth="yes"/>
      <point x="556" y="0" type="line"/>
      <point x="379" y="0" type="line"/>
      <point x="379" y="312" type="line" smooth="yes"/>
      <point x="379" y="365"/>
      <point x="353" y="391"/>
      <point x="312" y="391" type="curve" smooth="yes"/>
      <point x="264" y="391"/>
      <point x="232" y="360"/>
      <point x="232" y="303" type="curve" smooth="yes"/>
      <point x="232" y="0" type="line"/>
    </contour>
  </outline>
</glyph>
<glyph name="n" format="2">
  <advance width="624"/>
  <unicode hex="006E"/>
  <outline>
    <contour>
      <point x="53" y="0" type="line"/>
      <point x="53" y="523" type="line"/>
      <point x="232" y="523" type="line"/>
      <point x="232" y="439" type="line"/>
      <point x="260" y="493"/>
      <point x="317" y="537"/>
      <point x="404" y="537" type="curve" smooth="yes"/>
      <point x="505" y="537"/>
      <point x="575" y="474"/>
      <point x="575" y="340" type="curve" smooth="yes"/>
      <point x="575" y="0" type="line"/>
      <point x="396" y="0" type="line"/>
      <point x="396" y="304" type="line" smooth="yes"/>
      <point x="396" y="363"/>
      <point x="373" y="392"/>
      <point x="321" y="392" type="curve" smooth="yes"/>
      <point x="268" y="392"/>
      <point x="232" y="360"/>
      <point x="232" y="293" type="curve" smooth="yes"/>
      <point x="232" y="0" type="line"/>
    </contour>
  </outline>
</glyph>
<glyph name="p" format="2">
  <advance width="643"/>
  <unicode hex="0070"/>
  <outline>
    <contour>
      <point x="53" y="-175" type="line"/>
      <point x="53" y="523" type="line"/>
      <point x="232" y="523" type="line"/>
      <point x="232" y="445" type="line"/>
      <point x="262" y="495"/>
      <point x="316" y="537"/>
      <point x="395" y="537" type="curve" smooth="yes"/>
      <point x="517" y="537"/>
      <point x="616" y="445"/>
      <point x="616" y="266" type="curve" smooth="yes"/>
      <point x="616" y="258" type="line" smooth="yes"/>
      <point x="616" y="78"/>
      <point x="517" y="-12"/>
      <point x="394" y="-12" type="curve" smooth="yes"/>
      <point x="315" y="-12"/>
      <point x="258" y="25"/>
      <point x="232" y="77" type="curve"/>
      <point x="232" y="-175" type="line"/>
    </contour>
    <contour>
      <point x="331" y="125" type="curve" smooth="yes"/>
      <point x="398" y="125"/>
      <point x="434" y="172"/>
      <point x="434" y="258" type="curve" smooth="yes"/>
      <point x="434" y="266" type="line" smooth="yes"/>
      <point x="434" y="358"/>
      <point x="394" y="402"/>
      <point x="331" y="402" type="curve" smooth="yes"/>
      <point x="266" y="402"/>
      <point x="227" y="355"/>
      <point x="227" y="267" type="curve" smooth="yes"/>
      <point x="227" y="259" type="line" smooth="yes"/>
      <point x="227" y="170"/>
      <point x="266" y="125"/>
    </contour>
  </outline>
</glyph>
<glyph name="s" format="2">
  <advance width="515"/>
  <unicode hex="0073"/>
  <outline>
    <contour>
      <point x="258" y="-12" type="curve" smooth="yes"/>
      <point x="109" y="-12"/>
      <point x="22" y="50"/>
      <point x="18" y="166" type="curve"/>
      <point x="183" y="166" type="line"/>
      <point x="189" y="128"/>
      <point x="206" y="107"/>
      <point x="257" y="107" type="curve" smooth="yes"/>
      <point x="301" y="107"/>
      <point x="321" y="124"/>
      <point x="321" y="150" type="curve" smooth="yes"/>
      <point x="321" y="175"/>
      <point x="296" y="187"/>
      <point x="224" y="197" type="curve" smooth="yes"/>
      <point x="84" y="215"/>
      <point x="25" y="256"/>
      <point x="25" y="365" type="curve" smooth="yes"/>
      <point x="25" y="481"/>
      <point x="128" y="537"/>
      <point x="249" y="537" type="curve" smooth="yes"/>
      <point x="378" y="537"/>
      <point x="468" y="493"/>
      <point x="480" y="368" type="curve"/>
      <point x="318" y="368" type="line"/>
      <point x="311" y="403"/>
      <point x="292" y="420"/>
      <point x="251" y="420" type="curve" smooth="yes"/>
      <point x="212" y="420"/>
      <point x="192" y="403"/>
      <point x="192" y="379" type="curve" smooth="yes"/>
      <point x="192" y="354"/>
      <point x="216" y="344"/>
      <point x="280" y="336" type="curve" smooth="yes"/>
      <point x="425" y="318"/>
      <point x="495" y="280"/>
      <point x="495" y="168" type="curve" smooth="yes"/>
      <point x="495" y="44"/>
      <point x="403" y="-12"/>
    </contour>
  </outline>
</glyph>
<glyph name="t" format="2">
  <advance width="389"/>
  <unicode hex="0074"/>
  <outline>
    <contour>
      <point x="261" y="-12" type="curve" smooth="yes"/>
      <point x="143" y="-12"/>
      <point x="77" y="45"/>
      <point x="77" y="168" type="curve" smooth="yes"/>
      <point x="77" y="401" type="line"/>
      <point x="14" y="401" type="line"/>
      <point x="14" y="523" type="line"/>
      <point x="77" y="523" type="line"/>
      <point x="77" y="632" type="line"/>
      <point x="256" y="632" type="line"/>
      <point x="256" y="523" type="line"/>
      <point x="359" y="523" type="line"/>
      <point x="359" y="401" type="line"/>
      <point x="256" y="401" type="line"/>
      <point x="256" y="185" type="line" smooth="yes"/>
      <point x="256" y="147"/>
      <point x="275" y="130"/>
      <point x="309" y="130" type="curve" smooth="yes"/>
      <point x="329" y="130"/>
      <point x="344" y="133"/>
      <point x="360" y="139" type="curve"/>
      <point x="360" y="3" type="line"/>
      <point x="337" y="-3"/>
      <point x="303" y="-12"/>
    </contour>
  </outline>
</glyph>
<glyph name="u" format="2">
  <advance width="623"/>
  <unicode hex="0075"/>
  <outline>
    <contour>
      <point x="225" y="-12" type="curve" smooth="yes"/>
      <point x="124" y="-12"/>
      <point x="49" y="50"/>
      <point x="49" y="182" type="curve" smooth="yes"/>
      <point x="49" y="523" type="line"/>
      <point x="228" y="523" type="line"/>
      <point x="228" y="211" type="line" smooth="yes"/>
      <point x="228" y="152"/>
      <point x="251" y="123"/>
      <point x="302" y="123" type="curve" smooth="yes"/>
      <point x="356" y="123"/>
      <point x="391" y="155"/>
      <point x="391" y="222" type="curve" smooth="yes"/>
      <point x="391" y="523" type="line"/>
      <point x="570" y="523" type="line"/>
      <point x="570" y="0" type="line"/>
      <point x="391" y="0" type="line"/>
      <point x="391" y="81" type="line"/>
      <point x="363" y="27"/>
      <point x="312" y="-12"/>
    </contour>
  </outline>
</glyph>
<glyph name="v" format="2">
  <advance width="593"/>
  <unicode hex="0076"/>
  <outline>
    <contour>
      <point x="200" y="0" type="line"/>
      <point x="8" y="523" type="line"/>
      <point x="199" y="523" type="line"/>
      <point x="308" y="186" type="line"/>
      <point x="415" y="523" type="line"/>
      <point x="586" y="523" type="line"/>
      <point x="395" y="0" type="line"/>
    </contour>
  </outline>
</glyph>
<glyph name="w" format="2">
  <advance width="845"/>
  <unicode hex="0077"/>
  <outline>
    <contour>
      <point x="167" y="0" type="line"/>
      <point x="9" y="523" type="line"/>
      <point x="196" y="523" type="line"/>
      <point x="272" y="210" type="line"/>
      <point x="360" y="523" type="line"/>
      <point x="504" y="523" type="line"/>
      <point x="582" y="210" type="line"/>
      <point x="667" y="523" type="line"/>
      <point x="837" y="523" type="line"/>
      <point x="671" y="0" type="line"/>
      <point x="500" y="0" type="line"/>
      <point x="422" y="292" type="line"/>
      <point x="341" y="0" type="line"/>
    </contour>
  </outline>
</glyph>
<glyph name="x" format="2">
  <advance width="600"/>
  <unicode hex="0078"/>
  <outline>
    <contour>
      <point x="11" y="0" type="line"/>
      <point x="185" y="266" type="line"/>
      <point x="22" y="523" type="line"/>
      <point x="228" y="523" type="line"/>
      <point x="309" y="385" type="line"/>
      <point x="388" y="523" type="line"/>
      <point x="572" y="523" type="line"/>
      <point x="407" y="280" type="line"/>
      <point x="588" y="0" type="line"/>
      <point x="382" y="0" type="line"/>
      <point x="289" y="156" type="line"/>
      <point x="194" y="0" type="line"/>
    </contour>
  </outline>
</glyph>
<glyph name="braceleft" format="2">
  <advance width="418"/>
  <unicode hex="007B"/>
  <outline>
    <contour>
      <point x="380" y="-148" type="line"/>
      <point x="178" y="-148"/>
      <point x="86" y="-77"/>
      <point x="113" y="83" type="curve" smooth="yes"/>
      <point x="128" y="168" type="line" smooth="yes"/>
      <point x="136" y="215"/>
      <point x="108" y="253"/>
      <point x="31" y="253" type="curve"/>
      <point x="31" y="378" type="line"/>
      <point x="108" y="378"/>
      <point x="136" y="415"/>
      <point x="128" y="462" type="curve" smooth="yes"/>
      <point x="113" y="546" type="line" smooth="yes"/>
      <point x="86" y="713"/>
      <point x="178" y="777"/>
      <point x="380" y="777" type="curve"/>
      <point x="380" y="647" type="line"/>
      <point x="303" y="643"/>
      <point x="281" y="622"/>
      <point x="290" y="551" type="curve" smooth="yes"/>
      <point x="303" y="450" type="line" smooth="yes"/>
      <point x="312" y="382"/>
      <point x="273" y="334"/>
      <point x="200" y="317" type="curve"/>
      <point x="273" y="300"/>
      <point x="312" y="251"/>
      <point x="303" y="183" type="curve" smooth="yes"/>
      <point x="290" y="82" type="line" smooth="yes"/>
      <point x="281" y="10"/>
      <point x="303" y="-14"/>
      <point x="380" y="-17" type="curve"/>
    </contour>
  </outline>
</glyph>
<glyph name="braceright" format="2">
  <advance width="418"/>
  <unicode hex="007D"/>
  <outline>
    <contour>
      <point x="38" y="-148" type="curve"/>
      <point x="38" y="-17" type="line"/>
      <point x="115" y="-14"/>
      <point x="137" y="10"/>
      <point x="128" y="82" type="curve" smooth="yes"/>
      <point x="115" y="183" type="line" smooth="yes"/>
      <point x="106" y="251"/>
      <point x="145" y="300"/>
      <point x="218" y="317" type="curve"/>
      <point x="145" y="334"/>
      <point x="106" y="382"/>
      <point x="115" y="450" type="curve" smooth="yes"/>
      <point x="128" y="551" type="line" smooth="yes"/>
      <point x="137" y="622"/>
      <point x="115" y="643"/>
      <point x="38" y="647" type="curve"/>
      <point x="38" y="777" type="line"/>
      <point x="240" y="777"/>
      <point x="332" y="713"/>
      <point x="305" y="546" type="curve" smooth="yes"/>
      <point x="290" y="462" type="line" smooth="yes"/>
      <point x="282" y="415"/>
      <point x="310" y="378"/>
      <point x="387" y="378" type="curve"/>
      <point x="387" y="253" type="line"/>
      <point x="310" y="253"/>
      <point x="282" y="215"/>
      <point x="290" y="168" type="curve" smooth="yes"/>
      <point x="305" y="83" type="line" smooth="yes"/>
      <point x="332" y="-77"/>
      <point x="240" y="-148"/>
    </contour>
  </outline>
</glyph>
<glyph name="asciitilde" format="2">
  <advance width="518"/>
  <unicode hex="007E"/>
  <outline>
    <contour>
      <point x="28" y="214" type="line"/>
      <point x="36" y="357"/>
      <point x="103" y="412"/>
      <point x="176" y="412" type="curve" smooth="yes"/>
      <point x="248" y="412"/>
      <point x="294" y="368"/>
      <point x="329" y="368" type="curve" smooth="yes"/>
      <point x="355" y="368"/>
      <point x="370" y="385"/>
      <point x="374" y="414" type="curve"/>
      <point x="490" y="414" type="line"/>
      <point x="485" y="281"/>
      <point x="416" y="216"/>
      <point x="344" y="216" type="curve" smooth="yes"/>
      <point x="270" y="216"/>
      <point x="225" y="260"/>
      <point x="190" y="260" type="curve" smooth="yes"/>
      <point x="163" y="260"/>
      <point x="149" y="242"/>
      <point x="144" y="214" type="curve"/>
    </contour>
  </outline>
</glyph>
<glyph name="exclamdown" format="2">
  <advance width="334"/>
  <unicode hex="00A1"/>
  <outline>
    <contour>
      <point x="66" y="-117" type="line"/>
      <point x="93" y="363" type="line"/>
      <point x="241" y="363" type="line"/>
      <point x="268" y="-117" type="line"/>
    </contour>
    <contour>
      <point x="167" y="410" type="curve" smooth="yes"/>
      <point x="108" y="410"/>
      <point x="60" y="455"/>
      <point x="60" y="510" type="curve" smooth="yes"/>
      <point x="60" y="565"/>
      <point x="108" y="609"/>
      <point x="167" y="609" type="curve" smooth="yes"/>
      <point x="226" y="609"/>
      <point x="273" y="565"/>
      <point x="273" y="510" type="curve" smooth="yes"/>
      <point x="273" y="455"/>
      <point x="226" y="410"/>
    </contour>
  </outline>
</glyph>
<glyph name="cent" format="2">
  <advance width="595"/>
  <unicode hex="00A2"/>
  <outline>
    <contour>
      <point x="275" y="-135" type="line"/>
      <point x="275" y="-10" type="line"/>
      <point x="131" y="3"/>
      <point x="25" y="93"/>
      <point x="25" y="255" type="curve" smooth="yes"/>
      <point x="25" y="263" type="line" smooth="yes"/>
      <point x="25" y="421"/>
      <point x="134" y="518"/>
      <point x="275" y="534" type="curve"/>
      <point x="275" y="629" type="line"/>
      <point x="353" y="629" type="line"/>
      <point x="353" y="535" type="line"/>
      <point x="470" y="524"/>
      <point x="564" y="458"/>
      <point x="574" y="322" type="curve"/>
      <point x="410" y="322" type="line"/>
      <point x="405" y="362"/>
      <point x="384" y="389"/>
      <point x="353" y="400" type="curve"/>
      <point x="353" y="116" type="line"/>
      <point x="390" y="127"/>
      <point x="416" y="157"/>
      <point x="420" y="206" type="curve"/>
      <point x="577" y="206" type="line"/>
      <point x="571" y="85"/>
      <point x="490" y="3"/>
      <point x="353" y="-10" type="curve"/>
      <point x="353" y="-135" type="line"/>
    </contour>
    <contour>
      <point x="202" y="257" type="line" smooth="yes"/>
      <point x="202" y="181"/>
      <point x="229" y="135"/>
      <point x="275" y="118" type="curve"/>
      <point x="275" y="399" type="line"/>
      <point x="230" y="383"/>
      <point x="202" y="338"/>
      <point x="202" y="265" type="curve" smooth="yes"/>
    </contour>
  </outline>
</glyph>
<glyph name="sterling" format="2">
  <advance width="657"/>
  <unicode hex="00A3"/>
  <outline>
    <contour>
      <point x="34" y="287" type="line"/>
      <point x="34" y="407" type="line"/>
      <point x="85" y="407" type="line"/>
      <point x="78" y="434"/>
      <point x="73" y="463"/>
      <point x="73" y="496" type="curve" smooth="yes"/>
      <point x="73" y="643"/>
      <point x="193" y="725"/>
      <point x="348" y="725" type="curve" smooth="yes"/>
      <point x="533" y="725"/>
      <point x="615" y="629"/>
      <point x="622" y="484" type="curve"/>
      <point x="435" y="484" type="line"/>
      <point x="427" y="544"/>
      <point x="403" y="571"/>
      <point x="355" y="571" type="curve" smooth="yes"/>
      <point x="307" y="571"/>
      <point x="276" y="538"/>
      <point x="276" y="485" type="curve" smooth="yes"/>
      <point x="276" y="459"/>
      <point x="279" y="433"/>
      <point x="283" y="407" type="curve"/>
      <point x="460" y="407" type="line"/>
      <point x="460" y="287" type="line"/>
      <point x="303" y="287" type="line"/>
      <point x="305" y="269"/>
      <point x="307" y="250"/>
      <point x="307" y="231" type="curve" smooth="yes"/>
      <point x="307" y="209"/>
      <point x="303" y="190"/>
      <point x="297" y="172" type="curve"/>
      <point x="332" y="162"/>
      <point x="362" y="150"/>
      <point x="388" y="150" type="curve" smooth="yes"/>
      <point x="426" y="150"/>
      <point x="448" y="168"/>
      <point x="451" y="209" type="curve"/>
      <point x="635" y="209" type="line"/>
      <point x="630" y="84"/>
      <point x="559" y="-9"/>
      <point x="428" y="-9" type="curve" smooth="yes"/>
      <point x="327" y="-9"/>
      <point x="266" y="43"/>
      <point x="218" y="43" type="curve" smooth="yes"/>
      <point x="187" y="43"/>
      <point x="172" y="24"/>
      <point x="169" y="0" type="curve"/>
      <point x="18" y="0" type="line"/>
      <point x="23" y="77"/>
      <point x="57" y="148"/>
      <point x="124" y="176" type="curve"/>
      <point x="129" y="191"/>
      <point x="132" y="209"/>
      <point x="132" y="231" type="curve" smooth="yes"/>
      <point x="132" y="250"/>
      <point x="129" y="268"/>
      <point x="124" y="287" type="curve"/>
    </contour>
  </outline>
</glyph>
<glyph name="yen" format="2">
  <advance width="646"/>
  <unicode hex="00A5"/>
  <outline>
    <contour>
      <point x="64" y="294" type="line"/>
      <point x="64" y="365" type="line"/>
      <point x="202" y="365" type="line"/>
      <point x="11" y="715" type="line"/>
      <point x="233" y="715" type="line"/>
      <point x="337" y="482" type="line"/>
      <point x="440" y="715" type="line"/>
      <point x="635" y="715" type="line"/>
      <point x="453" y="365" type="line"/>
      <point x="593" y="365" type="line"/>
      <point x="593" y="294" type="line"/>
      <point x="431" y="294" type="line"/>
      <point x="431" y="243" type="line"/>
      <point x="593" y="243" type="line"/>
      <point x="593" y="171" type="line"/>
      <point x="431" y="171" type="line"/>
      <point x="431" y="0" type="line"/>
      <point x="226" y="0" type="line"/>
      <point x="226" y="171" type="line"/>
      <point x="64" y="171" type="line"/>
      <point x="64" y="243" type="line"/>
      <point x="226" y="243" type="line"/>
      <point x="226" y="294" type="line"/>
    </contour>
  </outline>
</glyph>
<glyph name="brokenbar" format="2">
  <advance width="270"/>
  <unicode hex="00A6"/>
  <outline>
    <contour>
      <point x="71" y="-148" type="line"/>
      <point x="71" y="301" type="line"/>
      <point x="196" y="301" type="line"/>
      <point x="196" y="-148" type="line"/>
    </contour>
    <contour>
      <point x="71" y="372" type="line"/>
      <point x="71" y="776" type="line"/>
      <point x="196" y="776" type="line"/>
      <point x="196" y="372" type="line"/>
    </contour>
  </outline>
</glyph>
<glyph name="section" format="2">
  <advance width="606"/>
  <unicode hex="00A7"/>
  <outline>
    <contour>
      <point x="292" y="-137" type="curve" smooth="yes"/>
      <point x="153" y="-137"/>
      <point x="75" y="-67"/>
      <point x="70" y="46" type="curve"/>
      <point x="233" y="46" type="line"/>
      <point x="236" y="8"/>
      <point x="254" y="-16"/>
      <point x="296" y="-16" type="curve" smooth="yes"/>
      <point x="335" y="-16"/>
      <point x="354" y="2"/>
      <point x="354" y="30" type="curve" smooth="yes"/>
      <point x="354" y="61"/>
      <point x="328" y="73"/>
      <point x="247" y="92" type="curve" smooth="yes"/>
      <point x="111" y="125"/>
      <point x="22" y="170"/>
      <point x="22" y="288" type="curve" smooth="yes"/>
      <point x="22" y="356"/>
      <point x="65" y="401"/>
      <point x="130" y="425" type="curve"/>
      <point x="100" y="455"/>
      <point x="85" y="494"/>
      <point x="85" y="541" type="curve" smooth="yes"/>
      <point x="85" y="655"/>
      <point x="181" y="725"/>
      <point x="314" y="725" type="curve" smooth="yes"/>
      <point x="452" y="725"/>
      <point x="529" y="655"/>
      <point x="534" y="542" type="curve"/>
      <point x="372" y="542" type="line"/>
      <point x="368" y="580"/>
      <point x="352" y="602"/>
      <point x="310" y="602" type="curve" smooth="yes"/>
      <point x="271" y="602"/>
      <point x="253" y="583"/>
      <point x="253" y="556" type="curve" smooth="yes"/>
      <point x="253" y="523"/>
      <point x="274" y="513"/>
      <point x="357" y="493" type="curve" smooth="yes"/>
      <point x="491" y="461"/>
      <point x="585" y="421"/>
      <point x="585" y="298" type="curve" smooth="yes"/>
      <point x="585" y="232"/>
      <point x="542" y="186"/>
      <point x="477" y="160" type="curve"/>
      <point x="506" y="131"/>
      <point x="521" y="93"/>
      <point x="521" y="45" type="curve" smooth="yes"/>
      <point x="521" y="-64"/>
      <point x="428" y="-137"/>
    </contour>
    <contour>
      <point x="368" y="224" type="line"/>
      <point x="400" y="231"/>
      <point x="412" y="247"/>
      <point x="412" y="271" type="curve" smooth="yes"/>
      <point x="412" y="305"/>
      <point x="383" y="314"/>
      <point x="313" y="336" type="curve" smooth="yes"/>
      <point x="239" y="360" type="line"/>
      <point x="210" y="355"/>
      <point x="195" y="338"/>
      <point x="195" y="313" type="curve" smooth="yes"/>
      <point x="195" y="282"/>
      <point x="227" y="270"/>
      <point x="295" y="249" type="curve" smooth="yes"/>
    </contour>
  </outline>
</glyph>
<glyph name="dieresis" format="2">
  <advance width="400"/>
  <unicode hex="00A8"/>
  <outline>
    <contour>
      <point x="93" y="580" type="curve" smooth="yes"/>
      <point x="46" y="580"/>
      <point x="8" y="617"/>
      <point x="8" y="663" type="curve" smooth="yes"/>
      <point x="8" y="709"/>
      <point x="46" y="747"/>
      <point x="93" y="747" type="curve" smooth="yes"/>
      <point x="141" y="747"/>
      <point x="179" y="709"/>
      <point x="179" y="663" type="curve" smooth="yes"/>
      <point x="179" y="617"/>
      <point x="141" y="580"/>
    </contour>
    <contour>
      <point x="306" y="580" type="curve" smooth="yes"/>
      <point x="258" y="580"/>
      <point x="221" y="617"/>
      <point x="221" y="663" type="curve" smooth="yes"/>
      <point x="221" y="709"/>
      <point x="258" y="747"/>
      <point x="306" y="747" type="curve" smooth="yes"/>
      <point x="354" y="747"/>
      <point x="392" y="709"/>
      <point x="392" y="663" type="curve" smooth="yes"/>
      <point x="392" y="617"/>
      <point x="354" y="580"/>
    </contour>
  </outline>
</glyph>
<glyph name="copyright" format="2">
  <advance width="843"/>
  <unicode hex="00A9"/>
  <outline>
    <contour>
      <point x="428" y="151" type="curve" smooth="yes"/>
      <point x="285" y="151"/>
      <point x="216" y="231"/>
      <point x="216" y="354" type="curve" smooth="yes"/>
      <point x="216" y="362" type="line" smooth="yes"/>
      <point x="216" y="485"/>
      <point x="305" y="564"/>
      <point x="424" y="564" type="curve" smooth="yes"/>
      <point x="530" y="564"/>
      <point x="604" y="516"/>
      <point x="612" y="407" type="curve"/>
      <point x="484" y="407" type="line"/>
      <point x="480" y="445"/>
      <point x="460" y="466"/>
      <point x="424" y="466" type="curve" smooth="yes"/>
      <point x="376" y="466"/>
      <point x="348" y="431"/>
      <point x="348" y="362" type="curve" smooth="yes"/>
      <point x="348" y="355" type="line" smooth="yes"/>
      <point x="348" y="287"/>
      <point x="375" y="250"/>
      <point x="426" y="250" type="curve" smooth="yes"/>
      <point x="462" y="250"/>
      <point x="490" y="269"/>
      <point x="494" y="311" type="curve"/>
      <point x="617" y="311" type="line"/>
      <point x="611" y="206"/>
      <point x="534" y="151"/>
    </contour>
    <contour>
      <point x="420" y="31" type="curve" smooth="yes"/>
      <point x="597" y="31"/>
      <point x="743" y="163"/>
      <point x="743" y="359" type="curve" smooth="yes"/>
      <point x="743" y="552"/>
      <point x="601" y="684"/>
      <point x="422" y="684" type="curve" smooth="yes"/>
      <point x="241" y="684"/>
      <point x="100" y="551"/>
      <point x="100" y="357" type="curve" smooth="yes"/>
      <point x="100" y="161"/>
      <point x="246" y="31"/>
    </contour>
    <contour>
      <point x="420" y="-20" type="curve" smooth="yes"/>
      <point x="208" y="-20"/>
      <point x="37" y="143"/>
      <point x="37" y="357" type="curve" smooth="yes"/>
      <point x="37" y="568"/>
      <point x="207" y="735"/>
      <point x="422" y="735" type="curve" smooth="yes"/>
      <point x="640" y="735"/>
      <point x="806" y="569"/>
      <point x="806" y="359" type="curve" smooth="yes"/>
      <point x="806" y="144"/>
      <point x="636" y="-20"/>
    </contour>
  </outline>
</glyph>
<glyph name="ordfeminine" format="2">
  <advance width="483"/>
  <unicode hex="00AA"/>
  <outline>
    <contour>
      <point x="168" y="287" type="curve" smooth="yes"/>
      <point x="94" y="287"/>
      <point x="27" y="324"/>
      <point x="27" y="413" type="curve" smooth="yes"/>
      <point x="27" y="510"/>
      <point x="104" y="545"/>
      <point x="247" y="545" type="curve" smooth="yes"/>
      <point x="287" y="545" type="line"/>
      <point x="287" y="560" type="line" smooth="yes"/>
      <point x="287" y="593"/>
      <point x="277" y="614"/>
      <point x="239" y="614" type="curve" smooth="yes"/>
      <point x="206" y="614"/>
      <point x="193" y="592"/>
      <point x="190" y="570" type="curve"/>
      <point x="42" y="570" type="line"/>
      <point x="49" y="669"/>
      <point x="127" y="723"/>
      <point x="247" y="723" type="curve" smooth="yes"/>
      <point x="370" y="723"/>
      <point x="443" y="674"/>
      <point x="443" y="565" type="curve" smooth="yes"/>
      <point x="443" y="298" type="line"/>
      <point x="290" y="298" type="line"/>
      <point x="290" y="345" type="line"/>
      <point x="272" y="317"/>
      <point x="236" y="287"/>
    </contour>
    <contour>
      <point x="226" y="393" type="curve" smooth="yes"/>
      <point x="261" y="393"/>
      <point x="287" y="412"/>
      <point x="287" y="443" type="curve" smooth="yes"/>
      <point x="287" y="466" type="line"/>
      <point x="251" y="466" type="line" smooth="yes"/>
      <point x="204" y="466"/>
      <point x="182" y="454"/>
      <point x="182" y="427" type="curve" smooth="yes"/>
      <point x="182" y="405"/>
      <point x="197" y="393"/>
    </contour>
  </outline>
</glyph>
<glyph name="registered" format="2">
  <advance width="517"/>
  <unicode hex="00AE"/>
  <outline>
    <contour>
      <point x="173" y="396" type="line"/>
      <point x="173" y="615" type="line"/>
      <point x="263" y="615" type="line" smooth="yes"/>
      <point x="323" y="615"/>
      <point x="354" y="591"/>
      <point x="354" y="544" type="curve" smooth="yes"/>
      <point x="354" y="543" type="line" smooth="yes"/>
      <point x="354" y="512"/>
      <point x="339" y="495"/>
      <point x="317" y="485" type="curve"/>
      <point x="367" y="396" type="line"/>
      <point x="295" y="396" type="line"/>
      <point x="255" y="471" type="line"/>
      <point x="243" y="471" type="line"/>
      <point x="243" y="396" type="line"/>
    </contour>
    <contour>
      <point x="243" y="516" type="line"/>
      <point x="258" y="516" type="line" smooth="yes"/>
      <point x="277" y="516"/>
      <point x="286" y="524"/>
      <point x="286" y="539" type="curve" smooth="yes"/>
      <point x="286" y="540" type="line" smooth="yes"/>
      <point x="286" y="556"/>
      <point x="277" y="562"/>
      <point x="258" y="562" type="curve" smooth="yes"/>
      <point x="243" y="562" type="line"/>
    </contour>
    <contour>
      <point x="258" y="319" type="curve" smooth="yes"/>
      <point x="363" y="319"/>
      <point x="444" y="395"/>
      <point x="444" y="503" type="curve" smooth="yes"/>
      <point x="444" y="611"/>
      <point x="366" y="687"/>
      <point x="258" y="687" type="curve" smooth="yes"/>
      <point x="150" y="687"/>
      <point x="73" y="610"/>
      <point x="73" y="502" type="curve" smooth="yes"/>
      <point x="73" y="393"/>
      <point x="154" y="319"/>
    </contour>
    <contour>
      <point x="258" y="281" type="curve" smooth="yes"/>
      <point x="131" y="281"/>
      <point x="29" y="376"/>
      <point x="29" y="502" type="curve" smooth="yes"/>
      <point x="29" y="626"/>
      <point x="130" y="725"/>
      <point x="258" y="725" type="curve" smooth="yes"/>
      <point x="388" y="725"/>
      <point x="488" y="627"/>
      <point x="488" y="503" type="curve" smooth="yes"/>
      <point x="488" y="377"/>
      <point x="386" y="281"/>
    </contour>
  </outline>
</glyph>
<glyph name="macron" format="2">
  <advance width="400"/>
  <unicode hex="00AF"/>
  <outline>
    <contour>
      <point x="46" y="612" type="line"/>
      <point x="46" y="712" type="line"/>
      <point x="353" y="712" type="line"/>
      <point x="353" y="612" type="line"/>
    </contour>
  </outline>
</glyph>
<glyph name="degree" format="2">
  <advance width="453"/>
  <unicode hex="00B0"/>
  <outline>
    <contour>
      <point x="227" y="451" type="curve" smooth="yes"/>
      <point x="280" y="451"/>
      <point x="318" y="495"/>
      <point x="318" y="551" type="curve" smooth="yes"/>
      <point x="318" y="610"/>
      <point x="280" y="654"/>
      <point x="227" y="654" type="curve" smooth="yes"/>
      <point x="173" y="654"/>
      <point x="134" y="610"/>
      <point x="134" y="551" type="curve" smooth="yes"/>
      <point x="134" y="495"/>
      <point x="173" y="451"/>
    </contour>
    <contour>
      <point x="227" y="381" type="curve" smooth="yes"/>
      <point x="129" y="381"/>
      <point x="50" y="459"/>
      <point x="50" y="551" type="curve" smooth="yes"/>
      <point x="50" y="646"/>
      <point x="129" y="724"/>
      <point x="227" y="724" type="curve" smooth="yes"/>
      <point x="324" y="724"/>
      <point x="403" y="646"/>
      <point x="403" y="551" type="curve" smooth="yes"/>
      <point x="403" y="459"/>
      <point x="324" y="381"/>
    </contour>
  </outline>
</glyph>
<glyph name="plusminus" format="2">
  <advance width="570"/>
  <unicode hex="00B1"/>
  <outline>
    <contour>
      <point x="213" y="176" type="line"/>
      <point x="213" y="341" type="line"/>
      <point x="37" y="341" type="line"/>
      <point x="37" y="472" type="line"/>
      <point x="213" y="472" type="line"/>
      <point x="213" y="636" type="line"/>
      <point x="357" y="636" type="line"/>
      <point x="357" y="472" type="line"/>
      <point x="533" y="472" type="line"/>
      <point x="533" y="341" type="line"/>
      <point x="357" y="341" type="line"/>
      <point x="357" y="176" type="line"/>
    </contour>
    <contour>
      <point x="37" y="0" type="line"/>
      <point x="37" y="118" type="line"/>
      <point x="535" y="118" type="line"/>
      <point x="535" y="0" type="line"/>
    </contour>
  </outline>
</glyph>
<glyph name="acute" format="2">
  <advance width="400"/>
  <unicode hex="00B4"/>
  <outline>
    <contour>
      <point x="129" y="583" type="line"/>
      <point x="182" y="749" type="line"/>
      <point x="362" y="749" type="line"/>
      <point x="257" y="583" type="line"/>
    </contour>
  </outline>
</glyph>
<glyph name="paragraph" format="2">
  <advance width="551"/>
  <unicode hex="00B6"/>
  <outline>
    <contour>
      <point x="256" y="-100" type="line"/>
      <point x="256" y="329" type="line"/>
      <point x="248" y="329" type="line" smooth="yes"/>
      <point x="115" y="329"/>
      <point x="28" y="391"/>
      <point x="28" y="518" type="curve" smooth="yes"/>
      <point x="28" y="651"/>
      <point x="119" y="715"/>
      <point x="248" y="715" type="curve" smooth="yes"/>
      <point x="481" y="715" type="line"/>
      <point x="481" y="-100" type="line"/>
      <point x="405" y="-100" type="line"/>
      <point x="405" y="651" type="line"/>
      <point x="331" y="651" type="line"/>
      <point x="331" y="-100" type="line"/>
    </contour>
  </outline>
</glyph>
<glyph name="periodcentered" format="2">
  <advance width="299"/>
  <unicode hex="00B7"/>
  <outline>
    <contour>
      <point x="148" y="225" type="curve" smooth="yes"/>
      <point x="89" y="225"/>
      <point x="46" y="270"/>
      <point x="46" y="326" type="curve" smooth="yes"/>
      <point x="46" y="382"/>
      <point x="89" y="427"/>
      <point x="148" y="427" type="curve" smooth="yes"/>
      <point x="208" y="427"/>
      <point x="253" y="382"/>
      <point x="253" y="326" type="curve" smooth="yes"/>
      <point x="253" y="270"/>
      <point x="208" y="225"/>
    </contour>
  </outline>
</glyph>
<glyph name="cedilla" format="2">
  <advance width="400"/>
  <unicode hex="00B8"/>
  <outline>
    <contour>
      <point x="204" y="-226" type="curve" smooth="yes"/>
      <point x="132" y="-226"/>
      <point x="86" y="-193"/>
      <point x="77" y="-133" type="curve"/>
      <point x="161" y="-133" type="line"/>
      <point x="165" y="-148"/>
      <point x="175" y="-161"/>
      <point x="197" y="-161" type="curve" smooth="yes"/>
      <point x="217" y="-161"/>
      <point x="229" y="-148"/>
      <point x="229" y="-131" type="curve" smooth="yes"/>
      <point x="229" y="-113"/>
      <point x="217" y="-100"/>
      <point x="196" y="-100" type="curve" smooth="yes"/>
      <point x="180" y="-100"/>
      <point x="170" y="-106"/>
      <point x="164" y="-111" type="curve"/>
      <point x="125" y="-73" type="line"/>
      <point x="173" y="0" type="line"/>
      <point x="245" y="0" type="line"/>
      <point x="214" y="-45" type="line"/>
      <point x="272" y="-39"/>
      <point x="325" y="-66"/>
      <point x="325" y="-131" type="curve" smooth="yes"/>
      <point x="325" y="-191"/>
      <point x="277" y="-226"/>
    </contour>
  </outline>
</glyph>
<glyph name="ordmasculine" format="2">
  <advance width="522"/>
  <unicode hex="00BA"/>
  <outline>
    <contour>
      <point x="262" y="404" type="curve" smooth="yes"/>
      <point x="309" y="404"/>
      <point x="332" y="438"/>
      <point x="332" y="503" type="curve" smooth="yes"/>
      <point x="332" y="509" type="line" smooth="yes"/>
      <point x="332" y="573"/>
      <point x="309" y="607"/>
      <point x="262" y="607" type="curve" smooth="yes"/>
      <point x="216" y="607"/>
      <point x="190" y="575"/>
      <point x="190" y="511" type="curve" smooth="yes"/>
      <point x="190" y="505" type="line" smooth="yes"/>
      <point x="190" y="438"/>
      <point x="213" y="404"/>
    </contour>
    <contour>
      <point x="261" y="287" type="curve" smooth="yes"/>
      <point x="131" y="287"/>
      <point x="30" y="363"/>
      <point x="30" y="499" type="curve" smooth="yes"/>
      <point x="30" y="505" type="line" smooth="yes"/>
      <point x="30" y="641"/>
      <point x="131" y="723"/>
      <point x="262" y="723" type="curve" smooth="yes"/>
      <point x="391" y="723"/>
      <point x="492" y="644"/>
      <point x="492" y="510" type="curve" smooth="yes"/>
      <point x="492" y="504" type="line" smooth="yes"/>
      <point x="492" y="367"/>
      <point x="390" y="287"/>
    </contour>
  </outline>
</glyph>
<glyph name="guillemotright" format="2">
  <advance width="480"/>
  <unicode hex="00BB"/>
  <outline>
    <contour>
      <point x="30" y="70" type="line"/>
      <point x="150" y="261" type="line"/>
      <point x="30" y="452" type="line"/>
      <point x="145" y="452" type="line"/>
      <point x="270" y="261" type="line"/>
      <point x="145" y="70" type="line"/>
    </contour>
    <contour>
      <point x="210" y="70" type="line"/>
      <point x="330" y="261" type="line"/>
      <point x="210" y="452" type="line"/>
      <point x="325" y="452" type="line"/>
      <point x="450" y="261" type="line"/>
      <point x="325" y="70" type="line"/>
    </contour>
  </outline>
</glyph>
<glyph name="onequarter" format="2">
  <advance width="795"/>
  <unicode hex="00BC"/>
  <outline>
    <contour>
      <point x="105" y="339" type="line"/>
      <point x="105" y="587" type="line"/>
      <point x="23" y="541" type="line"/>
      <point x="23" y="648" type="line"/>
      <point x="125" y="715" type="line"/>
      <point x="239" y="715" type="line"/>
      <point x="239" y="339" type="line"/>
    </contour>
    <contour>
      <point x="66" y="0" type="line"/>
      <point x="626" y="715" type="line"/>
      <point x="720" y="715" type="line"/>
      <point x="160" y="0" type="line"/>
    </contour>
    <contour>
      <point x="596" y="0" type="line"/>
      <point x="596" y="70" type="line"/>
      <point x="409" y="70" type="line"/>
      <point x="409" y="119" type="line"/>
      <point x="565" y="376" type="line"/>
      <point x="724" y="376" type="line"/>
      <point x="724" y="157" type="line"/>
      <point x="772" y="157" type="line"/>
      <point x="772" y="70" type="line"/>
      <point x="724" y="70" type="line"/>
      <point x="724" y="0" type="line"/>
    </contour>
    <contour>
      <point x="523" y="157" type="line"/>
      <point x="600" y="157" type="line"/>
      <point x="600" y="288" type="line"/>
    </contour>
  </outline>
</glyph>
<glyph name="onehalf" format="2">
  <advance width="807"/>
  <unicode hex="00BD"/>
  <outline>
    <contour>
      <point x="53" y="0" type="line"/>
      <point x="613" y="715" type="line"/>
      <point x="707" y="715" type="line"/>
      <point x="147" y="0" type="line"/>
    </contour>
    <contour>
      <point x="105" y="339" type="line"/>
      <point x="105" y="587" type="line"/>
      <point x="23" y="541" type="line"/>
      <point x="23" y="648" type="line"/>
      <point x="125" y="715" type="line"/>
      <point x="239" y="715" type="line"/>
      <point x="239" y="339" type="line"/>
    </contour>
    <contour>
      <point x="455" y="0" type="line"/>
      <point x="455" y="17" type="line"/>
      <point x="583" y="150" type="line" smooth="yes"/>
      <point x="625" y="192"/>
      <point x="651" y="222"/>
      <point x="651" y="251" type="curve" smooth="yes"/>
      <point x="651" y="272"/>
      <point x="641" y="284"/>
      <point x="620" y="284" type="curve" smooth="yes"/>
      <point x="598" y="284"/>
      <point x="584" y="268"/>
      <point x="580" y="231" type="curve"/>
      <point x="460" y="231" type="line"/>
      <point x="463" y="330"/>
      <point x="526" y="381"/>
      <point x="626" y="381" type="curve" smooth="yes"/>
      <point x="731" y="381"/>
      <point x="781" y="328"/>
      <point x="781" y="261" type="curve" smooth="yes"/>
      <point x="781" y="209"/>
      <point x="749" y="170"/>
      <point x="704" y="128" type="curve" smooth="yes"/>
      <point x="669" y="95" type="line"/>
      <point x="782" y="95" type="line"/>
      <point x="782" y="0" type="line"/>
    </contour>
  </outline>
</glyph>
<glyph name="threequarters" format="2">
  <advance width="826"/>
  <unicode hex="00BE"/>
  <outline>
    <contour>
      <point x="189" y="332" type="curve" smooth="yes"/>
      <point x="71" y="332"/>
      <point x="25" y="388"/>
      <point x="21" y="466" type="curve"/>
      <point x="137" y="466" type="line"/>
      <point x="140" y="442"/>
      <point x="153" y="424"/>
      <point x="182" y="424" type="curve" smooth="yes"/>
      <point x="207" y="424"/>
      <point x="221" y="437"/>
      <point x="221" y="458" type="curve" smooth="yes"/>
      <point x="221" y="480"/>
      <point x="207" y="492"/>
      <point x="176" y="492" type="curve" smooth="yes"/>
      <point x="146" y="492" type="line"/>
      <point x="146" y="566" type="line"/>
      <point x="176" y="566" type="line" smooth="yes"/>
      <point x="208" y="566"/>
      <point x="221" y="578"/>
      <point x="221" y="600" type="curve" smooth="yes"/>
      <point x="221" y="617"/>
      <point x="210" y="629"/>
      <point x="187" y="629" type="curve" smooth="yes"/>
      <point x="165" y="629"/>
      <point x="149" y="616"/>
      <point x="145" y="591" type="curve"/>
      <point x="29" y="591" type="line"/>
      <point x="35" y="666"/>
      <point x="87" y="720"/>
      <point x="190" y="720" type="curve" smooth="yes"/>
      <point x="288" y="720"/>
      <point x="346" y="682"/>
      <point x="346" y="616" type="curve" smooth="yes"/>
      <point x="346" y="574"/>
      <point x="321" y="547"/>
      <point x="278" y="535" type="curve"/>
      <point x="323" y="528"/>
      <point x="354" y="498"/>
      <point x="354" y="453" type="curve" smooth="yes"/>
      <point x="354" y="381"/>
      <point x="299" y="332"/>
    </contour>
    <contour>
      <point x="114" y="0" type="line"/>
      <point x="674" y="715" type="line"/>
      <point x="768" y="715" type="line"/>
      <point x="208" y="0" type="line"/>
    </contour>
    <contour>
      <point x="625" y="0" type="line"/>
      <point x="625" y="70" type="line"/>
      <point x="438" y="70" type="line"/>
      <point x="438" y="119" type="line"/>
      <point x="594" y="376" type="line"/>
      <point x="753" y="376" type="line"/>
      <point x="753" y="157" type="line"/>
      <point x="801" y="157" type="line"/>
      <point x="801" y="70" type="line"/>
      <point x="753" y="70" type="line"/>
      <point x="753" y="0" type="line"/>
    </contour>
    <contour>
      <point x="552" y="157" type="line"/>
      <point x="629" y="157" type="line"/>
      <point x="629" y="288" type="line"/>
    </contour>
  </outline>
</glyph>
<glyph name="questiondown" format="2">
  <advance width="556"/>
  <unicode hex="00BF"/>
  <outline>
    <contour>
      <point x="387" y="364" type="line"/>
      <point x="387" y="345" type="line" smooth="yes"/>
      <point x="387" y="268"/>
      <point x="336" y="220"/>
      <point x="290" y="177" type="curve" smooth="yes"/>
      <point x="255" y="144"/>
      <point x="224" y="114"/>
      <point x="224" y="79" type="curve" smooth="yes"/>
      <point x="224" y="40"/>
      <point x="244" y="19"/>
      <point x="285" y="19" type="curve" smooth="yes"/>
      <point x="329" y="19"/>
      <point x="357" y="52"/>
      <point x="364" y="107" type="curve"/>
      <point x="538" y="107" type="line"/>
      <point x="533" y="-45"/>
      <point x="425" y="-127"/>
      <point x="272" y="-127" type="curve" smooth="yes"/>
      <point x="117" y="-127"/>
      <point x="30" y="-57"/>
      <point x="30" y="62" type="curve" smooth="yes"/>
      <point x="30" y="127"/>
      <point x="63" y="172"/>
      <point x="103" y="212" type="curve" smooth="yes"/>
      <point x="153" y="261"/>
      <point x="209" y="300"/>
      <point x="218" y="349" type="curve"/>
      <point x="218" y="364" type="line"/>
    </contour>
    <contour>
      <point x="303" y="610" type="curve" smooth="yes"/>
      <point x="363" y="610"/>
      <point x="410" y="566"/>
      <point x="410" y="511" type="curve" smooth="yes"/>
      <point x="410" y="455"/>
      <point x="363" y="411"/>
      <point x="303" y="411" type="curve" smooth="yes"/>
      <point x="244" y="411"/>
      <point x="196" y="455"/>
      <point x="196" y="511" type="curve" smooth="yes"/>
      <point x="196" y="566"/>
      <point x="244" y="610"/>
    </contour>
  </outline>
</glyph>
<glyph name="Atilde" format="2">
  <advance width="747"/>
  <unicode hex="00C3"/>
  <outline>
    <contour>
      <point x="13" y="0" type="line"/>
      <point x="242" y="715" type="line"/>
      <point x="507" y="715" type="line"/>
      <point x="734" y="0" type="line"/>
      <point x="517" y="0" type="line"/>
      <point x="479" y="133" type="line"/>
      <point x="242" y="133" type="line"/>
      <point x="204" y="0" type="line"/>
    </contour>
    <contour>
      <point x="436" y="758" type="curve" smooth="yes"/>
      <point x="379" y="758"/>
      <point x="347" y="792"/>
      <point x="316" y="792" type="curve" smooth="yes"/>
      <point x="300" y="792"/>
      <point x="288" y="778"/>
      <point x="285" y="759" type="curve"/>
      <point x="183" y="759" type="line"/>
      <point x="190" y="864"/>
      <point x="243" y="912"/>
      <point x="305" y="912" type="curve" smooth="yes"/>
      <point x="359" y="912"/>
      <point x="393" y="879"/>
      <point x="426" y="879" type="curve" smooth="yes"/>
      <point x="444" y="879"/>
      <point x="454" y="892"/>
      <point x="458" y="911" type="curve"/>
      <point x="559" y="911" type="line"/>
      <point x="552" y="806"/>
      <point x="496" y="758"/>
    </contour>
    <contour>
      <point x="361" y="549" type="line"/>
      <point x="282" y="274" type="line"/>
      <point x="439" y="274" type="line"/>
    </contour>
  </outline>
</glyph>
<glyph name="Adieresis" format="2">
  <advance width="747"/>
  <unicode hex="00C4"/>
  <outline>
    <contour>
      <point x="13" y="0" type="line"/>
      <point x="242" y="715" type="line"/>
      <point x="507" y="715" type="line"/>
      <point x="734" y="0" type="line"/>
      <point x="517" y="0" type="line"/>
      <point x="479" y="133" type="line"/>
      <point x="242" y="133" type="line"/>
      <point x="204" y="0" type="line"/>
    </contour>
    <contour>
      <point x="482" y="758" type="curve" smooth="yes"/>
      <point x="434" y="758"/>
      <point x="397" y="795"/>
      <point x="397" y="841" type="curve" smooth="yes"/>
      <point x="397" y="888"/>
      <point x="434" y="925"/>
      <point x="482" y="925" type="curve" smooth="yes"/>
      <point x="530" y="925"/>
      <point x="568" y="888"/>
      <point x="568" y="841" type="curve" smooth="yes"/>
      <point x="568" y="795"/>
      <point x="530" y="758"/>
    </contour>
    <contour>
      <point x="259" y="758" type="curve" smooth="yes"/>
      <point x="212" y="758"/>
      <point x="174" y="795"/>
      <point x="174" y="841" type="curve" smooth="yes"/>
      <point x="174" y="888"/>
      <point x="212" y="925"/>
      <point x="259" y="925" type="curve" smooth="yes"/>
      <point x="307" y="925"/>
      <point x="345" y="888"/>
      <point x="345" y="841" type="curve" smooth="yes"/>
      <point x="345" y="795"/>
      <point x="307" y="758"/>
    </contour>
    <contour>
      <point x="361" y="549" type="line"/>
      <point x="282" y="274" type="line"/>
      <point x="439" y="274" type="line"/>
    </contour>
  </outline>
</glyph>
<glyph name="Aring" format="2">
  <advance width="747"/>
  <unicode hex="00C5"/>
  <outline>
    <contour>
      <point x="13" y="0" type="line"/>
      <point x="242" y="715" type="line"/>
      <point x="507" y="715" type="line"/>
      <point x="734" y="0" type="line"/>
      <point x="517" y="0" type="line"/>
      <point x="479" y="133" type="line"/>
      <point x="242" y="133" type="line"/>
      <point x="204" y="0" type="line"/>
    </contour>
    <contour>
      <point x="371" y="744" type="curve" smooth="yes"/>
      <point x="305" y="744"/>
      <point x="251" y="797"/>
      <point x="251" y="860" type="curve" smooth="yes"/>
      <point x="251" y="924"/>
      <point x="305" y="976"/>
      <point x="371" y="976" type="curve" smooth="yes"/>
      <point x="437" y="976"/>
      <point x="491" y="924"/>
      <point x="491" y="860" type="curve" smooth="yes"/>
      <point x="491" y="797"/>
      <point x="437" y="744"/>
    </contour>
    <contour>
      <point x="361" y="549" type="line"/>
      <point x="282" y="274" type="line"/>
      <point x="439" y="274" type="line"/>
    </contour>
    <contour>
      <point x="371" y="810" type="curve" smooth="yes"/>
      <point x="398" y="810"/>
      <point x="417" y="831"/>
      <point x="417" y="860" type="curve" smooth="yes"/>
      <point x="417" y="890"/>
      <point x="398" y="911"/>
      <point x="371" y="911" type="curve" smooth="yes"/>
      <point x="343" y="911"/>
      <point x="325" y="890"/>
      <point x="325" y="860" type="curve" smooth="yes"/>
      <point x="325" y="831"/>
      <point x="343" y="810"/>
    </contour>
  </outline>
</glyph>
<glyph name="AE" format="2">
  <advance width="1002"/>
  <unicode hex="00C6"/>
  <outline>
    <contour>
      <point x="11" y="0" type="line"/>
      <point x="332" y="715" type="line"/>
      <point x="954" y="715" type="line"/>
      <point x="954" y="557" type="line"/>
      <point x="671" y="557" type="line"/>
      <point x="671" y="434" type="line"/>
      <point x="894" y="434" type="line"/>
      <point x="894" y="288" type="line"/>
      <point x="671" y="288" type="line"/>
      <point x="671" y="158" type="line"/>
      <point x="970" y="158" type="line"/>
      <point x="970" y="0" type="line"/>
      <point x="466" y="0" type="line"/>
      <point x="466" y="146" type="line"/>
      <point x="269" y="146" type="line"/>
      <point x="206" y="0" type="line"/>
    </contour>
    <contour>
      <point x="446" y="557" type="line"/>
      <point x="328" y="284" type="line"/>
      <point x="466" y="284" type="line"/>
      <point x="466" y="557" type="line"/>
    </contour>
  </outline>
</glyph>
<glyph name="Ccedilla" format="2">
  <advance width="759"/>
  <unicode hex="00C7"/>
  <outline>
    <contour>
      <point x="379" y="-226" type="curve" smooth="yes"/>
      <point x="307" y="-226"/>
      <point x="261" y="-193"/>
      <point x="252" y="-133" type="curve"/>
      <point x="336" y="-133" type="line"/>
      <point x="340" y="-148"/>
      <point x="350" y="-161"/>
      <point x="372" y="-161" type="curve" smooth="yes"/>
      <point x="392" y="-161"/>
      <point x="404" y="-148"/>
      <point x="404" y="-131" type="curve" smooth="yes"/>
      <point x="404" y="-113"/>
      <point x="392" y="-100"/>
      <point x="371" y="-100" type="curve" smooth="yes"/>
      <point x="355" y="-100"/>
      <point x="345" y="-106"/>
      <point x="339" y="-111" type="curve"/>
      <point x="300" y="-73" type="line"/>
      <point x="342" y="-8" type="line"/>
      <point x="134" y="14"/>
      <point x="32" y="153"/>
      <point x="32" y="353" type="curve" smooth="yes"/>
      <point x="32" y="361" type="line" smooth="yes"/>
      <point x="32" y="581"/>
      <point x="188" y="726"/>
      <point x="397" y="726" type="curve" smooth="yes"/>
      <point x="583" y="726"/>
      <point x="712" y="640"/>
      <point x="729" y="451" type="curve"/>
      <point x="518" y="451" type="line"/>
      <point x="510" y="524"/>
      <point x="470" y="564"/>
      <point x="398" y="564" type="curve" smooth="yes"/>
      <point x="306" y="564"/>
      <point x="248" y="492"/>
      <point x="248" y="362" type="curve" smooth="yes"/>
      <point x="248" y="354" type="line" smooth="yes"/>
      <point x="248" y="225"/>
      <point x="303" y="152"/>
      <point x="401" y="152" type="curve" smooth="yes"/>
      <point x="473" y="152"/>
      <point x="524" y="190"/>
      <point x="534" y="269" type="curve"/>
      <point x="738" y="269" type="line"/>
      <point x="724" y="86"/>
      <point x="593" y="-10"/>
      <point x="411" y="-12" type="curve"/>
      <point x="389" y="-45" type="line"/>
      <point x="447" y="-39"/>
      <point x="500" y="-66"/>
      <point x="500" y="-131" type="curve" smooth="yes"/>
      <point x="500" y="-191"/>
      <point x="452" y="-226"/>
    </contour>
  </outline>
</glyph>
<glyph name="Eacute" format="2">
  <advance width="612"/>
  <unicode hex="00C9"/>
  <outline>
    <contour>
      <point x="247" y="759" type="line"/>
      <point x="298" y="905" type="line"/>
      <point x="485" y="905" type="line"/>
      <point x="382" y="759" type="line"/>
    </contour>
    <contour>
      <point x="69" y="0" type="line"/>
      <point x="69" y="715" type="line"/>
      <point x="563" y="715" type="line"/>
      <point x="563" y="557" type="line"/>
      <point x="273" y="557" type="line"/>
      <point x="273" y="434" type="line"/>
      <point x="504" y="434" type="line"/>
      <point x="504" y="288" type="line"/>
      <point x="273" y="288" type="line"/>
      <point x="273" y="158" type="line"/>
      <point x="579" y="158" type="line"/>
      <point x="579" y="0" type="line"/>
    </contour>
  </outline>
</glyph>
<glyph name="Ecircumflex" format="2">
  <advance width="612"/>
  <unicode hex="00CA"/>
  <outline>
    <contour>
      <point x="136" y="759" type="line"/>
      <point x="250" y="905" type="line"/>
      <point x="400" y="905" type="line"/>
      <point x="510" y="759" type="line"/>
      <point x="380" y="759" type="line"/>
      <point x="321" y="808" type="line"/>
      <point x="263" y="759" type="line"/>
    </contour>
    <contour>
      <point x="69" y="0" type="line"/>
      <point x="69" y="715" type="line"/>
      <point x="563" y="715" type="line"/>
      <point x="563" y="557" type="line"/>
      <point x="273" y="557" type="line"/>
      <point x="273" y="434" type="line"/>
      <point x="504" y="434" type="line"/>
      <point x="504" y="288" type="line"/>
      <point x="273" y="288" type="line"/>
      <point x="273" y="158" type="line"/>
      <point x="579" y="158" type="line"/>
      <point x="579" y="0" type="line"/>
    </contour>
  </outline>
</glyph>
<glyph name="Edieresis" format="2">
  <advance width="612"/>
  <unicode hex="00CB"/>
  <outline>
    <contour>
      <point x="69" y="0" type="line"/>
      <point x="69" y="715" type="line"/>
      <point x="563" y="715" type="line"/>
      <point x="563" y="557" type="line"/>
      <point x="273" y="557" type="line"/>
      <point x="273" y="434" type="line"/>
      <point x="504" y="434" type="line"/>
      <point x="504" y="288" type="line"/>
      <point x="273" y="288" type="line"/>
      <point x="273" y="158" type="line"/>
      <point x="579" y="158" type="line"/>
      <point x="579" y="0" type="line"/>
    </contour>
    <contour>
      <point x="211" y="758" type="curve" smooth="yes"/>
      <point x="164" y="758"/>
      <point x="126" y="795"/>
      <point x="126" y="841" type="curve" smooth="yes"/>
      <point x="126" y="888"/>
      <point x="164" y="925"/>
      <point x="211" y="925" type="curve" smooth="yes"/>
      <point x="259" y="925"/>
      <point x="297" y="888"/>
      <point x="297" y="841" type="curve" smooth="yes"/>
      <point x="297" y="795"/>
      <point x="259" y="758"/>
    </contour>
    <contour>
      <point x="434" y="758" type="curve" smooth="yes"/>
      <point x="386" y="758"/>
      <point x="349" y="795"/>
      <point x="349" y="841" type="curve" smooth="yes"/>
      <point x="349" y="888"/>
      <point x="386" y="925"/>
      <point x="434" y="925" type="curve" smooth="yes"/>
      <point x="482" y="925"/>
      <point x="520" y="888"/>
      <point x="520" y="841" type="curve" smooth="yes"/>
      <point x="520" y="795"/>
      <point x="482" y="758"/>
    </contour>
  </outline>
</glyph>
<glyph name="Iacute" format="2">
  <advance width="352"/>
  <unicode hex="00CD"/>
  <outline>
    <contour>
      <point x="73" y="0" type="line"/>
      <point x="73" y="715" type="line"/>
      <point x="280" y="715" type="line"/>
      <point x="280" y="0" type="line"/>
    </contour>
    <contour>
      <point x="100" y="759" type="line"/>
      <point x="151" y="905" type="line"/>
      <point x="338" y="905" type="line"/>
      <point x="235" y="759" type="line"/>
    </contour>
  </outline>
</glyph>
<glyph name="Icircumflex" format="2">
  <advance width="352"/>
  <unicode hex="00CE"/>
  <outline>
    <contour>
      <point x="73" y="0" type="line"/>
      <point x="73" y="715" type="line"/>
      <point x="280" y="715" type="line"/>
      <point x="280" y="0" type="line"/>
    </contour>
    <contour>
      <point x="-11" y="759" type="line"/>
      <point x="103" y="905" type="line"/>
      <point x="253" y="905" type="line"/>
      <point x="363" y="759" type="line"/>
      <point x="233" y="759" type="line"/>
      <point x="174" y="808" type="line"/>
      <point x="116" y="759" type="line"/>
    </contour>
  </outline>
</glyph>
<glyph name="Idieresis" format="2">
  <advance width="352"/>
  <unicode hex="00CF"/>
  <outline>
    <contour>
      <point x="73" y="0" type="line"/>
      <point x="73" y="715" type="line"/>
      <point x="280" y="715" type="line"/>
      <point x="280" y="0" type="line"/>
    </contour>
    <contour>
      <point x="64" y="758" type="curve" smooth="yes"/>
      <point x="17" y="758"/>
      <point x="-21" y="795"/>
      <point x="-21" y="841" type="curve" smooth="yes"/>
      <point x="-21" y="888"/>
      <point x="17" y="925"/>
      <point x="64" y="925" type="curve" smooth="yes"/>
      <point x="112" y="925"/>
      <point x="150" y="888"/>
      <point x="150" y="841" type="curve" smooth="yes"/>
      <point x="150" y="795"/>
      <point x="112" y="758"/>
    </contour>
    <contour>
      <point x="287" y="758" type="curve" smooth="yes"/>
      <point x="239" y="758"/>
      <point x="202" y="795"/>
      <point x="202" y="841" type="curve" smooth="yes"/>
      <point x="202" y="888"/>
      <point x="239" y="925"/>
      <point x="287" y="925" type="curve" smooth="yes"/>
      <point x="335" y="925"/>
      <point x="373" y="888"/>
      <point x="373" y="841" type="curve" smooth="yes"/>
      <point x="373" y="795"/>
      <point x="335" y="758"/>
    </contour>
  </outline>
</glyph>
<glyph name="Ntilde" format="2">
  <advance width="777"/>
  <unicode hex="00D1"/>
  <outline>
    <contour>
      <point x="471" y="758" type="curve" smooth="yes"/>
      <point x="414" y="758"/>
      <point x="382" y="792"/>
      <point x="351" y="792" type="curve" smooth="yes"/>
      <point x="335" y="792"/>
      <point x="323" y="778"/>
      <point x="320" y="759" type="curve"/>
      <point x="218" y="759" type="line"/>
      <point x="225" y="864"/>
      <point x="278" y="912"/>
      <point x="340" y="912" type="curve" smooth="yes"/>
      <point x="394" y="912"/>
      <point x="428" y="879"/>
      <point x="461" y="879" type="curve" smooth="yes"/>
      <point x="479" y="879"/>
      <point x="489" y="892"/>
      <point x="493" y="911" type="curve"/>
      <point x="594" y="911" type="line"/>
      <point x="587" y="806"/>
      <point x="531" y="758"/>
    </contour>
    <contour>
      <point x="69" y="0" type="line"/>
      <point x="69" y="715" type="line"/>
      <point x="300" y="715" type="line"/>
      <point x="529" y="312" type="line"/>
      <point x="529" y="715" type="line"/>
      <point x="708" y="715" type="line"/>
      <point x="708" y="0" type="line"/>
      <point x="510" y="0" type="line"/>
      <point x="249" y="449" type="line"/>
      <point x="249" y="0" type="line"/>
    </contour>
  </outline>
</glyph>
<glyph name="Ograve" format="2">
  <advance width="819"/>
  <unicode hex="00D2"/>
  <outline>
    <contour>
      <point x="349" y="759" type="line"/>
      <point x="249" y="905" type="line"/>
      <point x="435" y="905" type="line"/>
      <point x="484" y="759" type="line"/>
    </contour>
    <contour>
      <point x="410" y="149" type="curve" smooth="yes"/>
      <point x="511" y="149"/>
      <point x="574" y="227"/>
      <point x="574" y="355" type="curve" smooth="yes"/>
      <point x="574" y="363" type="line" smooth="yes"/>
      <point x="574" y="490"/>
      <point x="510" y="565"/>
      <point x="409" y="565" type="curve" smooth="yes"/>
      <point x="308" y="565"/>
      <point x="245" y="492"/>
      <point x="245" y="362" type="curve" smooth="yes"/>
      <point x="245" y="354" type="line" smooth="yes"/>
      <point x="245" y="224"/>
      <point x="311" y="149"/>
    </contour>
    <contour>
      <point x="406" y="-12" type="curve" smooth="yes"/>
      <point x="175" y="-12"/>
      <point x="31" y="138"/>
      <point x="31" y="353" type="curve" smooth="yes"/>
      <point x="31" y="361" type="line" smooth="yes"/>
      <point x="31" y="579"/>
      <point x="195" y="725"/>
      <point x="409" y="725" type="curve" smooth="yes"/>
      <point x="627" y="725"/>
      <point x="788" y="588"/>
      <point x="788" y="366" type="curve" smooth="yes"/>
      <point x="788" y="358" type="line" smooth="yes"/>
      <point x="788" y="138"/>
      <point x="637" y="-12"/>
    </contour>
  </outline>
</glyph>
<glyph name="Otilde" format="2">
  <advance width="819"/>
  <unicode hex="00D5"/>
  <outline>
    <contour>
      <point x="473" y="758" type="curve" smooth="yes"/>
      <point x="416" y="758"/>
      <point x="384" y="792"/>
      <point x="353" y="792" type="curve" smooth="yes"/>
      <point x="337" y="792"/>
      <point x="325" y="778"/>
      <point x="322" y="759" type="curve"/>
      <point x="220" y="759" type="line"/>
      <point x="227" y="864"/>
      <point x="280" y="912"/>
      <point x="342" y="912" type="curve" smooth="yes"/>
      <point x="396" y="912"/>
      <point x="430" y="879"/>
      <point x="463" y="879" type="curve" smooth="yes"/>
      <point x="481" y="879"/>
      <point x="491" y="892"/>
      <point x="495" y="911" type="curve"/>
      <point x="596" y="911" type="line"/>
      <point x="589" y="806"/>
      <point x="533" y="758"/>
    </contour>
    <contour>
      <point x="410" y="149" type="curve" smooth="yes"/>
      <point x="511" y="149"/>
      <point x="574" y="227"/>
      <point x="574" y="355" type="curve" smooth="yes"/>
      <point x="574" y="363" type="line" smooth="yes"/>
      <point x="574" y="490"/>
      <point x="510" y="565"/>
      <point x="409" y="565" type="curve" smooth="yes"/>
      <point x="308" y="565"/>
      <point x="245" y="492"/>
      <point x="245" y="362" type="curve" smooth="yes"/>
      <point x="245" y="354" type="line" smooth="yes"/>
      <point x="245" y="224"/>
      <point x="311" y="149"/>
    </contour>
    <contour>
      <point x="406" y="-12" type="curve" smooth="yes"/>
      <point x="175" y="-12"/>
      <point x="31" y="138"/>
      <point x="31" y="353" type="curve" smooth="yes"/>
      <point x="31" y="361" type="line" smooth="yes"/>
      <point x="31" y="579"/>
      <point x="195" y="725"/>
      <point x="409" y="725" type="curve" smooth="yes"/>
      <point x="627" y="725"/>
      <point x="788" y="588"/>
      <point x="788" y="366" type="curve" smooth="yes"/>
      <point x="788" y="358" type="line" smooth="yes"/>
      <point x="788" y="138"/>
      <point x="637" y="-12"/>
    </contour>
  </outline>
</glyph>
<glyph name="Odieresis" format="2">
  <advance width="819"/>
  <unicode hex="00D6"/>
  <outline>
    <contour>
      <point x="296" y="758" type="curve" smooth="yes"/>
      <point x="249" y="758"/>
      <point x="211" y="795"/>
      <point x="211" y="841" type="curve" smooth="yes"/>
      <point x="211" y="888"/>
      <point x="249" y="925"/>
      <point x="296" y="925" type="curve" smooth="yes"/>
      <point x="344" y="925"/>
      <point x="382" y="888"/>
      <point x="382" y="841" type="curve" smooth="yes"/>
      <point x="382" y="795"/>
      <point x="344" y="758"/>
    </contour>
    <contour>
      <point x="519" y="758" type="curve" smooth="yes"/>
      <point x="471" y="758"/>
      <point x="434" y="795"/>
      <point x="434" y="841" type="curve" smooth="yes"/>
      <point x="434" y="888"/>
      <point x="471" y="925"/>
      <point x="519" y="925" type="curve" smooth="yes"/>
      <point x="567" y="925"/>
      <point x="605" y="888"/>
      <point x="605" y="841" type="curve" smooth="yes"/>
      <point x="605" y="795"/>
      <point x="567" y="758"/>
    </contour>
    <contour>
      <point x="410" y="149" type="curve" smooth="yes"/>
      <point x="511" y="149"/>
      <point x="574" y="227"/>
      <point x="574" y="355" type="curve" smooth="yes"/>
      <point x="574" y="363" type="line" smooth="yes"/>
      <point x="574" y="490"/>
      <point x="510" y="565"/>
      <point x="409" y="565" type="curve" smooth="yes"/>
      <point x="308" y="565"/>
      <point x="245" y="492"/>
      <point x="245" y="362" type="curve" smooth="yes"/>
      <point x="245" y="354" type="line" smooth="yes"/>
      <point x="245" y="224"/>
      <point x="311" y="149"/>
    </contour>
    <contour>
      <point x="406" y="-12" type="curve" smooth="yes"/>
      <point x="175" y="-12"/>
      <point x="31" y="138"/>
      <point x="31" y="353" type="curve" smooth="yes"/>
      <point x="31" y="361" type="line" smooth="yes"/>
      <point x="31" y="579"/>
      <point x="195" y="725"/>
      <point x="409" y="725" type="curve" smooth="yes"/>
      <point x="627" y="725"/>
      <point x="788" y="588"/>
      <point x="788" y="366" type="curve" smooth="yes"/>
      <point x="788" y="358" type="line" smooth="yes"/>
      <point x="788" y="138"/>
      <point x="637" y="-12"/>
    </contour>
  </outline>
</glyph>
<glyph name="multiply" format="2">
  <advance width="571"/>
  <unicode hex="00D7"/>
  <outline>
    <contour>
      <point x="133" y="90" type="line"/>
      <point x="39" y="184" type="line"/>
      <point x="191" y="336" type="line"/>
      <point x="36" y="490" type="line"/>
      <point x="131" y="586" type="line"/>
      <point x="285" y="430" type="line"/>
      <point x="438" y="583" type="line"/>
      <point x="532" y="488" type="line"/>
      <point x="379" y="336" type="line"/>
      <point x="534" y="182" type="line"/>
      <point x="439" y="87" type="line"/>
      <point x="285" y="242" type="line"/>
    </contour>
  </outline>
</glyph>
<glyph name="Thorn" format="2">
  <advance width="652"/>
  <unicode hex="00DE"/>
  <outline>
    <contour>
      <point x="69" y="0" type="line"/>
      <point x="69" y="715" type="line"/>
      <point x="273" y="715" type="line"/>
      <point x="273" y="598" type="line"/>
      <point x="341" y="598" type="line" smooth="yes"/>
      <point x="537" y="598"/>
      <point x="628" y="522"/>
      <point x="628" y="368" type="curve" smooth="yes"/>
      <point x="628" y="364" type="line" smooth="yes"/>
      <point x="628" y="215"/>
      <point x="527" y="135"/>
      <point x="350" y="135" type="curve" smooth="yes"/>
      <point x="273" y="135" type="line"/>
      <point x="273" y="0" type="line"/>
    </contour>
    <contour>
      <point x="273" y="275" type="line"/>
      <point x="332" y="275" type="line" smooth="yes"/>
      <point x="398" y="275"/>
      <point x="433" y="304"/>
      <point x="433" y="363" type="curve" smooth="yes"/>
      <point x="433" y="367" type="line" smooth="yes"/>
      <point x="433" y="429"/>
      <point x="397" y="452"/>
      <point x="333" y="452" type="curve" smooth="yes"/>
      <point x="273" y="452" type="line"/>
    </contour>
  </outline>
</glyph>
<glyph name="germandbls" format="2">
  <advance width="636"/>
  <unicode hex="00DF"/>
  <outline>
    <contour>
      <point x="381" y="-10" type="curve" smooth="yes"/>
      <point x="337" y="-10"/>
      <point x="304" y="-4"/>
      <point x="285" y="1" type="curve"/>
      <point x="285" y="136" type="line"/>
      <point x="297" y="132"/>
      <point x="313" y="127"/>
      <point x="334" y="127" type="curve" smooth="yes"/>
      <point x="384" y="127"/>
      <point x="430" y="152"/>
      <point x="430" y="243" type="curve" smooth="yes"/>
      <point x="430" y="249" type="line" smooth="yes"/>
      <point x="430" y="340"/>
      <point x="372" y="366"/>
      <point x="291" y="367" type="curve"/>
      <point x="291" y="500" type="line"/>
      <point x="358" y="500"/>
      <point x="386" y="539"/>
      <point x="386" y="578" type="curve" smooth="yes"/>
      <point x="386" y="581" type="line" smooth="yes"/>
      <point x="386" y="626"/>
      <point x="360" y="653"/>
      <point x="311" y="653" type="curve" smooth="yes"/>
      <point x="263" y="653"/>
      <point x="232" y="618"/>
      <point x="232" y="559" type="curve" smooth="yes"/>
      <point x="232" y="0" type="line"/>
      <point x="53" y="0" type="line"/>
      <point x="53" y="544" type="line" smooth="yes"/>
      <point x="53" y="705"/>
      <point x="176" y="771"/>
      <point x="322" y="771" type="curve" smooth="yes"/>
      <point x="465" y="771"/>
      <point x="556" y="709"/>
      <point x="556" y="588" type="curve" smooth="yes"/>
      <point x="556" y="586" type="line" smooth="yes"/>
      <point x="556" y="517"/>
      <point x="506" y="465"/>
      <point x="437" y="444" type="curve"/>
      <point x="531" y="423"/>
      <point x="612" y="356"/>
      <point x="612" y="237" type="curve" smooth="yes"/>
      <point x="612" y="230" type="line" smooth="yes"/>
      <point x="612" y="68"/>
      <point x="514" y="-10"/>
    </contour>
  </outline>
</glyph>
<glyph name="ae" format="2">
  <advance width="908"/>
  <unicode hex="00E6"/>
  <outline>
    <contour>
      <point x="627" y="-12" type="curve" smooth="yes"/>
      <point x="533" y="-12"/>
      <point x="465" y="19"/>
      <point x="424" y="79" type="curve"/>
      <point x="381" y="22"/>
      <point x="319" y="-12"/>
      <point x="217" y="-12" type="curve" smooth="yes"/>
      <point x="111" y="-12"/>
      <point x="23" y="34"/>
      <point x="23" y="145" type="curve" smooth="yes"/>
      <point x="23" y="268"/>
      <point x="126" y="319"/>
      <point x="300" y="319" type="curve" smooth="yes"/>
      <point x="353" y="319" type="line"/>
      <point x="353" y="328" type="line" smooth="yes"/>
      <point x="353" y="379"/>
      <point x="339" y="411"/>
      <point x="283" y="411" type="curve" smooth="yes"/>
      <point x="234" y="411"/>
      <point x="216" y="385"/>
      <point x="211" y="349" type="curve"/>
      <point x="43" y="349" type="line"/>
      <point x="51" y="475"/>
      <point x="151" y="537"/>
      <point x="286" y="537" type="curve" smooth="yes"/>
      <point x="366" y="537"/>
      <point x="422" y="517"/>
      <point x="455" y="475" type="curve"/>
      <point x="497" y="515"/>
      <point x="553" y="537"/>
      <point x="622" y="537" type="curve" smooth="yes"/>
      <point x="763" y="537"/>
      <point x="884" y="456"/>
      <point x="884" y="267" type="curve" smooth="yes"/>
      <point x="884" y="221" type="line"/>
      <point x="524" y="221" type="line"/>
      <point x="529" y="150"/>
      <point x="565" y="111"/>
      <point x="628" y="111" type="curve" smooth="yes"/>
      <point x="686" y="111"/>
      <point x="710" y="138"/>
      <point x="717" y="173" type="curve"/>
      <point x="884" y="173" type="line"/>
      <point x="868" y="55"/>
      <point x="779" y="-12"/>
    </contour>
    <contour>
      <point x="525" y="319" type="curve"/>
      <point x="711" y="319" type="line"/>
      <point x="707" y="384"/>
      <point x="679" y="419"/>
      <point x="622" y="419" type="curve" smooth="yes"/>
      <point x="569" y="419"/>
      <point x="532" y="383"/>
    </contour>
    <contour>
      <point x="263" y="109" type="curve" smooth="yes"/>
      <point x="318" y="109"/>
      <point x="353" y="138"/>
      <point x="353" y="183" type="curve" smooth="yes"/>
      <point x="353" y="218" type="line"/>
      <point x="303" y="218" type="line" smooth="yes"/>
      <point x="235" y="218"/>
      <point x="200" y="206"/>
      <point x="200" y="162" type="curve" smooth="yes"/>
      <point x="200" y="128"/>
      <point x="221" y="109"/>
    </contour>
  </outline>
</glyph>
<glyph name="ccedilla" format="2">
  <advance width="583"/>
  <unicode hex="00E7"/>
  <outline>
    <contour>
      <point x="281" y="-226" type="curve" smooth="yes"/>
      <point x="209" y="-226"/>
      <point x="163" y="-193"/>
      <point x="154" y="-133" type="curve"/>
      <point x="238" y="-133" type="line"/>
      <point x="242" y="-148"/>
      <point x="252" y="-161"/>
      <point x="274" y="-161" type="curve" smooth="yes"/>
      <point x="294" y="-161"/>
      <point x="306" y="-148"/>
      <point x="306" y="-131" type="curve" smooth="yes"/>
      <point x="306" y="-113"/>
      <point x="294" y="-100"/>
      <point x="273" y="-100" type="curve" smooth="yes"/>
      <point x="257" y="-100"/>
      <point x="247" y="-106"/>
      <point x="241" y="-111" type="curve"/>
      <point x="202" y="-73" type="line"/>
      <point x="245" y="-8" type="line"/>
      <point x="117" y="11"/>
      <point x="25" y="100"/>
      <point x="25" y="255" type="curve" smooth="yes"/>
      <point x="25" y="263" type="line" smooth="yes"/>
      <point x="25" y="437"/>
      <point x="150" y="537"/>
      <point x="304" y="537" type="curve" smooth="yes"/>
      <point x="432" y="537"/>
      <point x="550" y="481"/>
      <point x="560" y="322" type="curve"/>
      <point x="392" y="322" type="line"/>
      <point x="384" y="371"/>
      <point x="360" y="398"/>
      <point x="308" y="398" type="curve" smooth="yes"/>
      <point x="245" y="398"/>
      <point x="208" y="353"/>
      <point x="208" y="265" type="curve" smooth="yes"/>
      <point x="208" y="257" type="line" smooth="yes"/>
      <point x="208" y="166"/>
      <point x="243" y="119"/>
      <point x="311" y="119" type="curve" smooth="yes"/>
      <point x="361" y="119"/>
      <point x="396" y="149"/>
      <point x="402" y="206" type="curve"/>
      <point x="563" y="206" type="line"/>
      <point x="558" y="77"/>
      <point x="474" y="-7"/>
      <point x="314" y="-12" type="curve"/>
      <point x="291" y="-45" type="line"/>
      <point x="349" y="-39"/>
      <point x="402" y="-66"/>
      <point x="402" y="-131" type="curve" smooth="yes"/>
      <point x="402" y="-191"/>
      <point x="354" y="-226"/>
    </contour>
  </outline>
</glyph>
<glyph name="eacute" format="2">
  <advance width="598"/>
  <unicode hex="00E9"/>
  <outline>
    <contour>
      <point x="234" y="583" type="line"/>
      <point x="287" y="749" type="line"/>
      <point x="467" y="749" type="line"/>
      <point x="362" y="583" type="line"/>
    </contour>
    <contour>
      <point x="309" y="-12" type="curve" smooth="yes"/>
      <point x="145" y="-12"/>
      <point x="25" y="84"/>
      <point x="25" y="255" type="curve" smooth="yes"/>
      <point x="25" y="263" type="line" smooth="yes"/>
      <point x="25" y="431"/>
      <point x="150" y="537"/>
      <point x="308" y="537" type="curve" smooth="yes"/>
      <point x="451" y="537"/>
      <point x="574" y="455"/>
      <point x="574" y="267" type="curve" smooth="yes"/>
      <point x="574" y="220" type="line"/>
      <point x="206" y="220" type="line"/>
      <point x="211" y="151"/>
      <point x="251" y="111"/>
      <point x="315" y="111" type="curve" smooth="yes"/>
      <point x="374" y="111"/>
      <point x="399" y="138"/>
      <point x="406" y="173" type="curve"/>
      <point x="574" y="173" type="line"/>
      <point x="558" y="55"/>
      <point x="467" y="-12"/>
    </contour>
    <contour>
      <point x="208" y="321" type="curve"/>
      <point x="400" y="321" type="line"/>
      <point x="397" y="384"/>
      <point x="366" y="419"/>
      <point x="308" y="419" type="curve" smooth="yes"/>
      <point x="254" y="419"/>
      <point x="217" y="384"/>
    </contour>
  </outline>
</glyph>
<glyph name="igrave" format="2">
  <advance width="295"/>
  <unicode hex="00EC"/>
  <outline>
    <contour>
      <point x="58" y="0" type="line"/>
      <point x="58" y="523" type="line"/>
      <point x="237" y="523" type="line"/>
      <point x="237" y="0" type="line"/>
    </contour>
    <contour>
      <point x="89" y="583" type="line"/>
      <point x="-16" y="749" type="line"/>
      <point x="164" y="749" type="line"/>
      <point x="217" y="583" type="line"/>
    </contour>
  </outline>
</glyph>
<glyph name="iacute" format="2">
  <advance width="295"/>
  <unicode hex="00ED"/>
  <outline>
    <contour>
      <point x="79" y="583" type="line"/>
      <point x="132" y="749" type="line"/>
      <point x="312" y="749" type="line"/>
      <point x="207" y="583" type="line"/>
    </contour>
    <contour>
      <point x="58" y="0" type="line"/>
      <point x="58" y="523" type="line"/>
      <point x="237" y="523" type="line"/>
      <point x="237" y="0" type="line"/>
    </contour>
  </outline>
</glyph>
<glyph name="icircumflex" format="2">
  <advance width="295"/>
  <unicode hex="00EE"/>
  <outline>
    <contour>
      <point x="-37" y="585" type="line"/>
      <point x="86" y="748" type="line"/>
      <point x="214" y="748" type="line"/>
      <point x="332" y="585" type="line"/>
      <point x="207" y="585" type="line"/>
      <point x="146" y="641" type="line"/>
      <point x="86" y="585" type="line"/>
    </contour>
    <contour>
      <point x="58" y="0" type="line"/>
      <point x="58" y="523" type="line"/>
      <point x="237" y="523" type="line"/>
      <point x="237" y="0" type="line"/>
    </contour>
  </outline>
</glyph>
<glyph name="idieresis" format="2">
  <advance width="295"/>
  <unicode hex="00EF"/>
  <outline>
    <contour>
      <point x="42" y="580" type="curve" smooth="yes"/>
      <point x="-5" y="580"/>
      <point x="-43" y="617"/>
      <point x="-43" y="663" type="curve" smooth="yes"/>
      <point x="-43" y="709"/>
      <point x="-5" y="747"/>
      <point x="42" y="747" type="curve" smooth="yes"/>
      <point x="90" y="747"/>
      <point x="128" y="709"/>
      <point x="128" y="663" type="curve" smooth="yes"/>
      <point x="128" y="617"/>
      <point x="90" y="580"/>
    </contour>
    <contour>
      <point x="252" y="580" type="curve" smooth="yes"/>
      <point x="205" y="580"/>
      <point x="167" y="617"/>
      <point x="167" y="663" type="curve" smooth="yes"/>
      <point x="167" y="709"/>
      <point x="205" y="747"/>
      <point x="252" y="747" type="curve" smooth="yes"/>
      <point x="300" y="747"/>
      <point x="338" y="709"/>
      <point x="338" y="663" type="curve" smooth="yes"/>
      <point x="338" y="617"/>
      <point x="300" y="580"/>
    </contour>
    <contour>
      <point x="58" y="0" type="line"/>
      <point x="58" y="523" type="line"/>
      <point x="237" y="523" type="line"/>
      <point x="237" y="0" type="line"/>
    </contour>
  </outline>
</glyph>
<glyph name="eth" format="2">
  <advance width="623"/>
  <unicode hex="00F0"/>
  <outline>
    <contour>
      <point x="141" y="556" type="line"/>
      <point x="117" y="618" type="line"/>
      <point x="226" y="658" type="line"/>
      <point x="185" y="694"/>
      <point x="143" y="726"/>
      <point x="106" y="753" type="curve"/>
      <point x="304" y="753" type="line"/>
      <point x="323" y="741"/>
      <point x="345" y="727"/>
      <point x="367" y="711" type="curve"/>
      <point x="473" y="750" type="line"/>
      <point x="497" y="687" type="line"/>
      <point x="427" y="661" type="line"/>
      <point x="515" y="579"/>
      <point x="597" y="459"/>
      <point x="597" y="305" type="curve" smooth="yes"/>
      <point x="597" y="283" type="line" smooth="yes"/>
      <point x="597" y="100"/>
      <point x="481" y="-12"/>
      <point x="308" y="-12" type="curve" smooth="yes"/>
      <point x="147" y="-12"/>
      <point x="25" y="89"/>
      <point x="25" y="263" type="curve" smooth="yes"/>
      <point x="25" y="274" type="line" smooth="yes"/>
      <point x="25" y="434"/>
      <point x="142" y="529"/>
      <point x="259" y="529" type="curve" smooth="yes"/>
      <point x="310" y="529"/>
      <point x="336" y="517"/>
      <point x="367" y="485" type="curve"/>
      <point x="347" y="528"/>
      <point x="316" y="569"/>
      <point x="280" y="607" type="curve"/>
    </contour>
    <contour>
      <point x="312" y="121" type="curve" smooth="yes"/>
      <point x="379" y="121"/>
      <point x="415" y="171"/>
      <point x="415" y="258" type="curve" smooth="yes"/>
      <point x="415" y="266" type="line" smooth="yes"/>
      <point x="415" y="354"/>
      <point x="380" y="403"/>
      <point x="312" y="403" type="curve" smooth="yes"/>
      <point x="246" y="403"/>
      <point x="208" y="356"/>
      <point x="208" y="268" type="curve" smooth="yes"/>
      <point x="208" y="260" type="line" smooth="yes"/>
      <point x="208" y="170"/>
      <point x="243" y="121"/>
    </contour>
  </outline>
</glyph>
<glyph name="ntilde" format="2">
  <advance width="624"/>
  <unicode hex="00F1"/>
  <outline>
    <contour>
      <point x="53" y="0" type="line"/>
      <point x="53" y="523" type="line"/>
      <point x="232" y="523" type="line"/>
      <point x="232" y="439" type="line"/>
      <point x="260" y="493"/>
      <point x="317" y="537"/>
      <point x="404" y="537" type="curve" smooth="yes"/>
      <point x="505" y="537"/>
      <point x="575" y="474"/>
      <point x="575" y="340" type="curve" smooth="yes"/>
      <point x="575" y="0" type="line"/>
      <point x="396" y="0" type="line"/>
      <point x="396" y="304" type="line" smooth="yes"/>
      <point x="396" y="363"/>
      <point x="373" y="392"/>
      <point x="321" y="392" type="curve" smooth="yes"/>
      <point x="268" y="392"/>
      <point x="232" y="360"/>
      <point x="232" y="293" type="curve" smooth="yes"/>
      <point x="232" y="0" type="line"/>
    </contour>
    <contour>
      <point x="377" y="587" type="curve" smooth="yes"/>
      <point x="321" y="587"/>
      <point x="291" y="620"/>
      <point x="260" y="620" type="curve" smooth="yes"/>
      <point x="244" y="620"/>
      <point x="232" y="607"/>
      <point x="229" y="588" type="curve"/>
      <point x="132" y="588" type="line"/>
      <point x="139" y="693"/>
      <point x="185" y="744"/>
      <point x="247" y="744" type="curve" smooth="yes"/>
      <point x="301" y="744"/>
      <point x="333" y="710"/>
      <point x="366" y="710" type="curve" smooth="yes"/>
      <point x="384" y="710"/>
      <point x="394" y="723"/>
      <point x="398" y="742" type="curve"/>
      <point x="495" y="742" type="line"/>
      <point x="487" y="638"/>
      <point x="437" y="587"/>
    </contour>
  </outline>
</glyph>
<glyph name="otilde" format="2">
  <advance width="622"/>
  <unicode hex="00F5"/>
  <outline>
    <contour>
      <point x="312" y="121" type="curve" smooth="yes"/>
      <point x="379" y="121"/>
      <point x="415" y="171"/>
      <point x="415" y="258" type="curve" smooth="yes"/>
      <point x="415" y="266" type="line" smooth="yes"/>
      <point x="415" y="354"/>
      <point x="380" y="403"/>
      <point x="312" y="403" type="curve" smooth="yes"/>
      <point x="245" y="403"/>
      <point x="208" y="356"/>
      <point x="208" y="268" type="curve" smooth="yes"/>
      <point x="208" y="260" type="line" smooth="yes"/>
      <point x="208" y="170"/>
      <point x="243" y="121"/>
    </contour>
    <contour>
      <point x="311" y="-12" type="curve" smooth="yes"/>
      <point x="150" y="-12"/>
      <point x="25" y="86"/>
      <point x="25" y="255" type="curve" smooth="yes"/>
      <point x="25" y="263" type="line" smooth="yes"/>
      <point x="25" y="431"/>
      <point x="150" y="537"/>
      <point x="312" y="537" type="curve" smooth="yes"/>
      <point x="473" y="537"/>
      <point x="597" y="434"/>
      <point x="597" y="268" type="curve" smooth="yes"/>
      <point x="597" y="260" type="line" smooth="yes"/>
      <point x="597" y="90"/>
      <point x="472" y="-12"/>
    </contour>
    <contour>
      <point x="375" y="587" type="curve" smooth="yes"/>
      <point x="319" y="587"/>
      <point x="289" y="620"/>
      <point x="258" y="620" type="curve" smooth="yes"/>
      <point x="242" y="620"/>
      <point x="230" y="607"/>
      <point x="227" y="588" type="curve"/>
      <point x="130" y="588" type="line"/>
      <point x="137" y="693"/>
      <point x="183" y="744"/>
      <point x="245" y="744" type="curve" smooth="yes"/>
      <point x="299" y="744"/>
      <point x="331" y="710"/>
      <point x="364" y="710" type="curve" smooth="yes"/>
      <point x="382" y="710"/>
      <point x="392" y="723"/>
      <point x="396" y="742" type="curve"/>
      <point x="493" y="742" type="line"/>
      <point x="485" y="638"/>
      <point x="435" y="587"/>
    </contour>
  </outline>
</glyph>
<glyph name="odieresis" format="2">
  <advance width="622"/>
  <unicode hex="00F6"/>
  <outline>
    <contour>
      <point x="204" y="580" type="curve" smooth="yes"/>
      <point x="157" y="580"/>
      <point x="119" y="617"/>
      <point x="119" y="663" type="curve" smooth="yes"/>
      <point x="119" y="709"/>
      <point x="157" y="747"/>
      <point x="204" y="747" type="curve" smooth="yes"/>
      <point x="252" y="747"/>
      <point x="290" y="709"/>
      <point x="290" y="663" type="curve" smooth="yes"/>
      <point x="290" y="617"/>
      <point x="252" y="580"/>
    </contour>
    <contour>
      <point x="417" y="580" type="curve" smooth="yes"/>
      <point x="369" y="580"/>
      <point x="332" y="617"/>
      <point x="332" y="663" type="curve" smooth="yes"/>
      <point x="332" y="709"/>
      <point x="369" y="747"/>
      <point x="417" y="747" type="curve" smooth="yes"/>
      <point x="465" y="747"/>
      <point x="503" y="709"/>
      <point x="503" y="663" type="curve" smooth="yes"/>
      <point x="503" y="617"/>
      <point x="465" y="580"/>
    </contour>
    <contour>
      <point x="312" y="121" type="curve" smooth="yes"/>
      <point x="379" y="121"/>
      <point x="415" y="171"/>
      <point x="415" y="258" type="curve" smooth="yes"/>
      <point x="415" y="266" type="line" smooth="yes"/>
      <point x="415" y="354"/>
      <point x="380" y="403"/>
      <point x="312" y="403" type="curve" smooth="yes"/>
      <point x="245" y="403"/>
      <point x="208" y="356"/>
      <point x="208" y="268" type="curve" smooth="yes"/>
      <point x="208" y="260" type="line" smooth="yes"/>
      <point x="208" y="170"/>
      <point x="243" y="121"/>
    </contour>
    <contour>
      <point x="311" y="-12" type="curve" smooth="yes"/>
      <point x="150" y="-12"/>
      <point x="25" y="86"/>
      <point x="25" y="255" type="curve" smooth="yes"/>
      <point x="25" y="263" type="line" smooth="yes"/>
      <point x="25" y="431"/>
      <point x="150" y="537"/>
      <point x="312" y="537" type="curve" smooth="yes"/>
      <point x="473" y="537"/>
      <point x="597" y="434"/>
      <point x="597" y="268" type="curve" smooth="yes"/>
      <point x="597" y="260" type="line" smooth="yes"/>
      <point x="597" y="90"/>
      <point x="472" y="-12"/>
    </contour>
  </outline>
</glyph>
<glyph name="divide" format="2">
  <advance width="572"/>
  <unicode hex="00F7"/>
  <outline>
    <contour>
      <point x="286" y="43" type="curve" smooth="yes"/>
      <point x="234" y="43"/>
      <point x="192" y="83"/>
      <point x="192" y="135" type="curve" smooth="yes"/>
      <point x="192" y="186"/>
      <point x="234" y="228"/>
      <point x="286" y="228" type="curve" smooth="yes"/>
      <point x="338" y="228"/>
      <point x="380" y="186"/>
      <point x="380" y="135" type="curve" smooth="yes"/>
      <point x="380" y="83"/>
      <point x="338" y="43"/>
    </contour>
    <contour>
      <point x="37" y="278" type="line"/>
      <point x="37" y="402" type="line"/>
      <point x="535" y="402" type="line"/>
      <point x="535" y="278" type="line"/>
    </contour>
    <contour>
      <point x="286" y="452" type="curve" smooth="yes"/>
      <point x="234" y="452"/>
      <point x="192" y="494"/>
      <point x="192" y="545" type="curve" smooth="yes"/>
      <point x="192" y="597"/>
      <point x="234" y="637"/>
      <point x="286" y="637" type="curve" smooth="yes"/>
      <point x="338" y="637"/>
      <point x="380" y="597"/>
      <point x="380" y="545" type="curve" smooth="yes"/>
      <point x="380" y="494"/>
      <point x="338" y="452"/>
    </contour>
  </outline>
</glyph>
<glyph name="udieresis" format="2">
  <advance width="623"/>
  <unicode hex="00FC"/>
  <outline>
    <contour>
      <point x="203" y="580" type="curve" smooth="yes"/>
      <point x="156" y="580"/>
      <point x="118" y="617"/>
      <point x="118" y="663" type="curve" smooth="yes"/>
      <point x="118" y="709"/>
      <point x="156" y="747"/>
      <point x="203" y="747" type="curve" smooth="yes"/>
      <point x="251" y="747"/>
      <point x="289" y="709"/>
      <point x="289" y="663" type="curve" smooth="yes"/>
      <point x="289" y="617"/>
      <point x="251" y="580"/>
    </contour>
    <contour>
      <point x="416" y="580" type="curve" smooth="yes"/>
      <point x="368" y="580"/>
      <point x="331" y="617"/>
      <point x="331" y="663" type="curve" smooth="yes"/>
      <point x="331" y="709"/>
      <point x="368" y="747"/>
      <point x="416" y="747" type="curve" smooth="yes"/>
      <point x="464" y="747"/>
      <point x="502" y="709"/>
      <point x="502" y="663" type="curve" smooth="yes"/>
      <point x="502" y="617"/>
      <point x="464" y="580"/>
    </contour>
    <contour>
      <point x="225" y="-12" type="curve" smooth="yes"/>
      <point x="124" y="-12"/>
      <point x="49" y="50"/>
      <point x="49" y="182" type="curve" smooth="yes"/>
      <point x="49" y="523" type="line"/>
      <point x="228" y="523" type="line"/>
      <point x="228" y="211" type="line" smooth="yes"/>
      <point x="228" y="152"/>
      <point x="251" y="123"/>
      <point x="302" y="123" type="curve" smooth="yes"/>
      <point x="356" y="123"/>
      <point x="391" y="155"/>
      <point x="391" y="222" type="curve" smooth="yes"/>
      <point x="391" y="523" type="line"/>
      <point x="570" y="523" type="line"/>
      <point x="570" y="0" type="line"/>
      <point x="391" y="0" type="line"/>
      <point x="391" y="81" type="line"/>
      <point x="363" y="27"/>
      <point x="312" y="-12"/>
    </contour>
  </outline>
</glyph>
<glyph name="ydieresis" format="2">
  <advance width="589"/>
  <unicode hex="00FF"/>
  <outline>
    <contour>
      <point x="130" y="-175" type="line"/>
      <point x="217" y="53" type="line"/>
      <point x="8" y="523" type="line"/>
      <point x="202" y="523" type="line"/>
      <point x="310" y="244" type="line"/>
      <point x="410" y="523" type="line"/>
      <point x="581" y="523" type="line"/>
      <point x="301" y="-175" type="line"/>
    </contour>
    <contour>
      <point x="198" y="580" type="curve" smooth="yes"/>
      <point x="151" y="580"/>
      <point x="113" y="617"/>
      <point x="113" y="663" type="curve" smooth="yes"/>
      <point x="113" y="709"/>
      <point x="151" y="747"/>
      <point x="198" y="747" type="curve" smooth="yes"/>
      <point x="246" y="747"/>
      <point x="284" y="709"/>
      <point x="284" y="663" type="curve" smooth="yes"/>
      <point x="284" y="617"/>
      <point x="246" y="580"/>
    </contour>
    <contour>
      <point x="411" y="580" type="curve" smooth="yes"/>
      <point x="363" y="580"/>
      <point x="326" y="617"/>
      <point x="326" y="663" type="curve" smooth="yes"/>
      <point x="326" y="709"/>
      <point x="363" y="747"/>
      <point x="411" y="747" type="curve" smooth="yes"/>
      <point x="459" y="747"/>
      <point x="497" y="709"/>
      <point x="497" y="663" type="curve" smooth="yes"/>
      <point x="497" y="617"/>
      <point x="459" y="580"/>
    </contour>
  </outline>
</glyph>
<glyph name="Abreve" format="2">
  <advance width="747"/>
  <unicode hex="0102"/>
  <outline>
    <contour>
      <point x="13" y="0" type="line"/>
      <point x="242" y="715" type="line"/>
      <point x="507" y="715" type="line"/>
      <point x="734" y="0" type="line"/>
      <point x="517" y="0" type="line"/>
      <point x="479" y="133" type="line"/>
      <point x="242" y="133" type="line"/>
      <point x="204" y="0" type="line"/>
    </contour>
    <contour>
      <point x="370" y="752" type="curve" smooth="yes"/>
      <point x="272" y="752"/>
      <point x="211" y="810"/>
      <point x="205" y="905" type="curve"/>
      <point x="321" y="905" type="line"/>
      <point x="324" y="877"/>
      <point x="341" y="859"/>
      <point x="370" y="859" type="curve" smooth="yes"/>
      <point x="399" y="859"/>
      <point x="418" y="877"/>
      <point x="422" y="905" type="curve"/>
      <point x="537" y="905" type="line"/>
      <point x="529" y="810"/>
      <point x="465" y="752"/>
    </contour>
    <contour>
      <point x="361" y="549" type="line"/>
      <point x="282" y="274" type="line"/>
      <point x="439" y="274" type="line"/>
    </contour>
  </outline>
</glyph>
<glyph name="Aogonek" format="2">
  <advance width="747"/>
  <unicode hex="0104"/>
  <outline>
    <contour>
      <point x="636" y="-182" type="curve" smooth="yes"/>
      <point x="559" y="-182"/>
      <point x="513" y="-150"/>
      <point x="513" y="-101" type="curve" smooth="yes"/>
      <point x="513" y="-52"/>
      <point x="556" y="-21"/>
      <point x="598" y="0" type="curve"/>
      <point x="517" y="0" type="line"/>
      <point x="479" y="133" type="line"/>
      <point x="242" y="133" type="line"/>
      <point x="204" y="0" type="line"/>
      <point x="13" y="0" type="line"/>
      <point x="242" y="715" type="line"/>
      <point x="507" y="715" type="line"/>
      <point x="729" y="14" type="line"/>
      <point x="689" y="-10"/>
      <point x="668" y="-38"/>
      <point x="668" y="-60" type="curve" smooth="yes"/>
      <point x="668" y="-76"/>
      <point x="678" y="-86"/>
      <point x="697" y="-86" type="curve" smooth="yes"/>
      <point x="709" y="-86"/>
      <point x="718" y="-84"/>
      <point x="727" y="-81" type="curve"/>
      <point x="727" y="-166" type="line"/>
      <point x="709" y="-174"/>
      <point x="678" y="-182"/>
    </contour>
    <contour>
      <point x="361" y="549" type="line"/>
      <point x="282" y="274" type="line"/>
      <point x="439" y="274" type="line"/>
    </contour>
  </outline>
</glyph>
<glyph name="cdotaccent" format="2">
  <advance width="583"/>
  <unicode hex="010B"/>
  <outline>
    <contour>
      <point x="300" y="-12" type="curve" smooth="yes"/>
      <point x="144" y="-12"/>
      <point x="25" y="79"/>
      <point x="25" y="255" type="curve" smooth="yes"/>
      <point x="25" y="263" type="line" smooth="yes"/>
      <point x="25" y="437"/>
      <point x="150" y="537"/>
      <point x="304" y="537" type="curve" smooth="yes"/>
      <point x="432" y="537"/>
      <point x="550" y="481"/>
      <point x="560" y="322" type="curve"/>
      <point x="392" y="322" type="line"/>
      <point x="384" y="371"/>
      <point x="360" y="398"/>
      <point x="308" y="398" type="curve" smooth="yes"/>
      <point x="245" y="398"/>
      <point x="208" y="353"/>
      <point x="208" y="265" type="curve" smooth="yes"/>
      <point x="208" y="257" type="line" smooth="yes"/>
      <point x="208" y="166"/>
      <point x="243" y="119"/>
      <point x="311" y="119" type="curve" smooth="yes"/>
      <point x="361" y="119"/>
      <point x="396" y="149"/>
      <point x="402" y="206" type="curve"/>
      <point x="563" y="206" type="line"/>
      <point x="558" y="74"/>
      <point x="469" y="-12"/>
    </contour>
    <contour>
      <point x="302" y="579" type="curve" smooth="yes"/>
      <point x="247" y="579"/>
      <point x="206" y="617"/>
      <point x="206" y="669" type="curve" smooth="yes"/>
      <point x="206" y="720"/>
      <point x="247" y="758"/>
      <point x="302" y="758" type="curve" smooth="yes"/>
      <point x="356" y="758"/>
      <point x="397" y="720"/>
      <point x="397" y="669" type="curve" smooth="yes"/>
      <point x="397" y="617"/>
      <point x="356" y="579"/>
    </contour>
  </outline>
</glyph>
<glyph name="Ccaron" format="2">
  <advance width="759"/>
  <unicode hex="010C"/>
  <outline>
    <contour>
      <point x="317" y="759" type="line"/>
      <point x="207" y="905" type="line"/>
      <point x="337" y="905" type="line"/>
      <point x="395" y="856" type="line"/>
      <point x="454" y="905" type="line"/>
      <point x="581" y="905" type="line"/>
      <point x="467" y="759" type="line"/>
    </contour>
    <contour>
      <point x="405" y="-12" type="curve" smooth="yes"/>
      <point x="155" y="-12"/>
      <point x="32" y="134"/>
      <point x="32" y="353" type="curve" smooth="yes"/>
      <point x="32" y="361" type="line" smooth="yes"/>
      <point x="32" y="581"/>
      <point x="188" y="726"/>
      <point x="397" y="726" type="curve" smooth="yes"/>
      <point x="583" y="726"/>
      <point x="712" y="640"/>
      <point x="729" y="451" type="curve"/>
      <point x="518" y="451" type="line"/>
      <point x="510" y="524"/>
      <point x="470" y="564"/>
      <point x="398" y="564" type="curve" smooth="yes"/>
      <point x="306" y="564"/>
      <point x="248" y="492"/>
      <point x="248" y="362" type="curve" smooth="yes"/>
      <point x="248" y="354" type="line" smooth="yes"/>
      <point x="248" y="225"/>
      <point x="303" y="152"/>
      <point x="401" y="152" type="curve" smooth="yes"/>
      <point x="473" y="152"/>
      <point x="524" y="190"/>
      <point x="534" y="269" type="curve"/>
      <point x="738" y="269" type="line"/>
      <point x="724" y="84"/>
      <point x="590" y="-12"/>
    </contour>
  </outline>
</glyph>
<glyph name="ccaron" format="2">
  <advance width="583"/>
  <unicode hex="010D"/>
  <outline>
    <contour>
      <point x="233" y="585" type="line"/>
      <point x="114" y="748" type="line"/>
      <point x="239" y="748" type="line"/>
      <point x="300" y="692" type="line"/>
      <point x="361" y="748" type="line"/>
      <point x="483" y="748" type="line"/>
      <point x="360" y="585" type="line"/>
    </contour>
    <contour>
      <point x="300" y="-12" type="curve" smooth="yes"/>
      <point x="144" y="-12"/>
      <point x="25" y="79"/>
      <point x="25" y="255" type="curve" smooth="yes"/>
      <point x="25" y="263" type="line" smooth="yes"/>
      <point x="25" y="437"/>
      <point x="150" y="537"/>
      <point x="304" y="537" type="curve" smooth="yes"/>
      <point x="432" y="537"/>
      <point x="550" y="481"/>
      <point x="560" y="322" type="curve"/>
      <point x="392" y="322" type="line"/>
      <point x="384" y="371"/>
      <point x="360" y="398"/>
      <point x="308" y="398" type="curve" smooth="yes"/>
      <point x="245" y="398"/>
      <point x="208" y="353"/>
      <point x="208" y="265" type="curve" smooth="yes"/>
      <point x="208" y="257" type="line" smooth="yes"/>
      <point x="208" y="166"/>
      <point x="243" y="119"/>
      <point x="311" y="119" type="curve" smooth="yes"/>
      <point x="361" y="119"/>
      <point x="396" y="149"/>
      <point x="402" y="206" type="curve"/>
      <point x="563" y="206" type="line"/>
      <point x="558" y="74"/>
      <point x="469" y="-12"/>
    </contour>
  </outline>
</glyph>
<glyph name="dcaron" format="2">
  <advance width="642"/>
  <unicode hex="010F"/>
  <outline>
    <contour>
      <point x="625" y="579" type="line"/>
      <point x="634" y="753" type="line"/>
      <point x="767" y="753" type="line"/>
      <point x="718" y="579" type="line"/>
    </contour>
    <contour>
      <point x="247" y="-12" type="curve" smooth="yes"/>
      <point x="126" y="-12"/>
      <point x="27" y="75"/>
      <point x="27" y="256" type="curve" smooth="yes"/>
      <point x="27" y="264" type="line" smooth="yes"/>
      <point x="27" y="442"/>
      <point x="125" y="537"/>
      <point x="249" y="537" type="curve" smooth="yes"/>
      <point x="331" y="537"/>
      <point x="380" y="502"/>
      <point x="410" y="449" type="curve"/>
      <point x="410" y="753" type="line"/>
      <point x="589" y="753" type="line"/>
      <point x="589" y="0" type="line"/>
      <point x="410" y="0" type="line"/>
      <point x="410" y="85" type="line"/>
      <point x="384" y="31"/>
      <point x="326" y="-12"/>
    </contour>
    <contour>
      <point x="310" y="125" type="curve" smooth="yes"/>
      <point x="375" y="125"/>
      <point x="415" y="170"/>
      <point x="415" y="259" type="curve" smooth="yes"/>
      <point x="415" y="267" type="line" smooth="yes"/>
      <point x="415" y="355"/>
      <point x="378" y="402"/>
      <point x="312" y="402" type="curve" smooth="yes"/>
      <point x="245" y="402"/>
      <point x="209" y="357"/>
      <point x="209" y="266" type="curve" smooth="yes"/>
      <point x="209" y="258" type="line" smooth="yes"/>
      <point x="209" y="170"/>
      <point x="248" y="125"/>
    </contour>
  </outline>
</glyph>
<glyph name="Dcroat" format="2">
  <advance width="774"/>
  <unicode hex="0110"/>
  <outline>
    <contour>
      <point x="29" y="290" type="line"/>
      <point x="29" y="428" type="line"/>
      <point x="88" y="428" type="line"/>
      <point x="88" y="715" type="line"/>
      <point x="347" y="715" type="line" smooth="yes"/>
      <point x="602" y="715"/>
      <point x="730" y="588"/>
      <point x="730" y="366" type="curve" smooth="yes"/>
      <point x="730" y="358" type="line" smooth="yes"/>
      <point x="730" y="135"/>
      <point x="599" y="0"/>
      <point x="347" y="0" type="curve" smooth="yes"/>
      <point x="88" y="0" type="line"/>
      <point x="88" y="290" type="line"/>
    </contour>
    <contour>
      <point x="289" y="158" type="line"/>
      <point x="341" y="158" type="line" smooth="yes"/>
      <point x="462" y="158"/>
      <point x="516" y="222"/>
      <point x="516" y="355" type="curve" smooth="yes"/>
      <point x="516" y="363" type="line" smooth="yes"/>
      <point x="516" y="499"/>
      <point x="463" y="557"/>
      <point x="339" y="557" type="curve" smooth="yes"/>
      <point x="289" y="557" type="line"/>
      <point x="289" y="428" type="line"/>
      <point x="409" y="428" type="line"/>
      <point x="409" y="290" type="line"/>
      <point x="289" y="290" type="line"/>
    </contour>
  </outline>
</glyph>
<glyph name="Ebreve" format="2">
  <advance width="612"/>
  <unicode hex="0114"/>
  <outline>
    <contour>
      <point x="69" y="0" type="line"/>
      <point x="69" y="715" type="line"/>
      <point x="563" y="715" type="line"/>
      <point x="563" y="557" type="line"/>
      <point x="273" y="557" type="line"/>
      <point x="273" y="434" type="line"/>
      <point x="504" y="434" type="line"/>
      <point x="504" y="288" type="line"/>
      <point x="273" y="288" type="line"/>
      <point x="273" y="158" type="line"/>
      <point x="579" y="158" type="line"/>
      <point x="579" y="0" type="line"/>
    </contour>
    <contour>
      <point x="322" y="752" type="curve" smooth="yes"/>
      <point x="224" y="752"/>
      <point x="163" y="810"/>
      <point x="157" y="905" type="curve"/>
      <point x="273" y="905" type="line"/>
      <point x="276" y="877"/>
      <point x="293" y="859"/>
      <point x="322" y="859" type="curve" smooth="yes"/>
      <point x="351" y="859"/>
      <point x="370" y="877"/>
      <point x="374" y="905" type="curve"/>
      <point x="489" y="905" type="line"/>
      <point x="481" y="810"/>
      <point x="417" y="752"/>
    </contour>
  </outline>
</glyph>
<glyph name="ebreve" format="2">
  <advance width="598"/>
  <unicode hex="0115"/>
  <outline>
    <contour>
      <point x="309" y="-12" type="curve" smooth="yes"/>
      <point x="145" y="-12"/>
      <point x="25" y="84"/>
      <point x="25" y="255" type="curve" smooth="yes"/>
      <point x="25" y="263" type="line" smooth="yes"/>
      <point x="25" y="431"/>
      <point x="150" y="537"/>
      <point x="308" y="537" type="curve" smooth="yes"/>
      <point x="451" y="537"/>
      <point x="574" y="455"/>
      <point x="574" y="267" type="curve" smooth="yes"/>
      <point x="574" y="220" type="line"/>
      <point x="206" y="220" type="line"/>
      <point x="211" y="151"/>
      <point x="251" y="111"/>
      <point x="315" y="111" type="curve" smooth="yes"/>
      <point x="374" y="111"/>
      <point x="399" y="138"/>
      <point x="406" y="173" type="curve"/>
      <point x="574" y="173" type="line"/>
      <point x="558" y="55"/>
      <point x="467" y="-12"/>
    </contour>
    <contour>
      <point x="208" y="321" type="curve"/>
      <point x="400" y="321" type="line"/>
      <point x="397" y="384"/>
      <point x="366" y="419"/>
      <point x="308" y="419" type="curve" smooth="yes"/>
      <point x="254" y="419"/>
      <point x="217" y="384"/>
    </contour>
    <contour>
      <point x="297" y="587" type="curve" smooth="yes"/>
      <point x="202" y="587"/>
      <point x="139" y="644"/>
      <point x="134" y="745" type="curve"/>
      <point x="245" y="745" type="line"/>
      <point x="248" y="715"/>
      <point x="265" y="697"/>
      <point x="297" y="697" type="curve" smooth="yes"/>
      <point x="329" y="697"/>
      <point x="348" y="716"/>
      <point x="351" y="745" type="curve"/>
      <point x="462" y="745" type="line"/>
      <point x="456" y="644"/>
      <point x="390" y="587"/>
    </contour>
  </outline>
</glyph>
<glyph name="Edotaccent" format="2">
  <advance width="612"/>
  <unicode hex="0116"/>
  <outline>
    <contour>
      <point x="324" y="757" type="curve" smooth="yes"/>
      <point x="270" y="757"/>
      <point x="229" y="795"/>
      <point x="229" y="847" type="curve" smooth="yes"/>
      <point x="229" y="898"/>
      <point x="270" y="936"/>
      <point x="324" y="936" type="curve" smooth="yes"/>
      <point x="378" y="936"/>
      <point x="419" y="898"/>
      <point x="419" y="847" type="curve" smooth="yes"/>
      <point x="419" y="795"/>
      <point x="378" y="757"/>
    </contour>
    <contour>
      <point x="69" y="0" type="line"/>
      <point x="69" y="715" type="line"/>
      <point x="563" y="715" type="line"/>
      <point x="563" y="557" type="line"/>
      <point x="273" y="557" type="line"/>
      <point x="273" y="434" type="line"/>
      <point x="504" y="434" type="line"/>
      <point x="504" y="288" type="line"/>
      <point x="273" y="288" type="line"/>
      <point x="273" y="158" type="line"/>
      <point x="579" y="158" type="line"/>
      <point x="579" y="0" type="line"/>
    </contour>
  </outline>
</glyph>
<glyph name="Eogonek" format="2">
  <advance width="612"/>
  <unicode hex="0118"/>
  <outline>
    <contour>
      <point x="467" y="-182" type="curve" smooth="yes"/>
      <point x="392" y="-182"/>
      <point x="345" y="-150"/>
      <point x="345" y="-101" type="curve" smooth="yes"/>
      <point x="345" y="-52"/>
      <point x="389" y="-21"/>
      <point x="431" y="0" type="curve"/>
      <point x="69" y="0" type="line"/>
      <point x="69" y="715" type="line"/>
      <point x="563" y="715" type="line"/>
      <point x="563" y="557" type="line"/>
      <point x="273" y="557" type="line"/>
      <point x="273" y="434" type="line"/>
      <point x="504" y="434" type="line"/>
      <point x="504" y="288" type="line"/>
      <point x="273" y="288" type="line"/>
      <point x="273" y="158" type="line"/>
      <point x="579" y="158" type="line"/>
      <point x="579" y="0" type="line"/>
      <point x="541" y="0" type="line"/>
      <point x="514" y="-22"/>
      <point x="500" y="-38"/>
      <point x="500" y="-60" type="curve" smooth="yes"/>
      <point x="500" y="-76"/>
      <point x="511" y="-86"/>
      <point x="530" y="-86" type="curve" smooth="yes"/>
      <point x="541" y="-86"/>
      <point x="551" y="-84"/>
      <point x="559" y="-81" type="curve"/>
      <point x="559" y="-166" type="line"/>
      <point x="542" y="-174"/>
      <point x="511" y="-182"/>
    </contour>
  </outline>
</glyph>
<glyph name="eogonek" format="2">
  <advance width="598"/>
  <unicode hex="0119"/>
  <outline>
    <contour>
      <point x="405" y="-182" type="curve" smooth="yes"/>
      <point x="334" y="-182"/>
      <point x="287" y="-153"/>
      <point x="287" y="-103" type="curve" smooth="yes"/>
      <point x="287" y="-61"/>
      <point x="329" y="-31"/>
      <point x="369" y="-8" type="curve"/>
      <point x="352" y="-11"/>
      <point x="327" y="-12"/>
      <point x="309" y="-12" type="curve" smooth="yes"/>
      <point x="145" y="-12"/>
      <point x="25" y="84"/>
      <point x="25" y="255" type="curve" smooth="yes"/>
      <point x="25" y="263" type="line" smooth="yes"/>
      <point x="25" y="431"/>
      <point x="150" y="537"/>
      <point x="308" y="537" type="curve" smooth="yes"/>
      <point x="451" y="537"/>
      <point x="574" y="455"/>
      <point x="574" y="267" type="curve" smooth="yes"/>
      <point x="574" y="220" type="line"/>
      <point x="206" y="220" type="line"/>
      <point x="211" y="151"/>
      <point x="251" y="111"/>
      <point x="315" y="111" type="curve" smooth="yes"/>
      <point x="374" y="111"/>
      <point x="399" y="138"/>
      <point x="406" y="173" type="curve"/>
      <point x="574" y="173" type="line"/>
      <point x="565" y="106"/>
      <point x="531" y="66"/>
      <point x="503" y="38" type="curve" smooth="yes"/>
      <point x="460" y="-4"/>
      <point x="432" y="-33"/>
      <point x="432" y="-63" type="curve" smooth="yes"/>
      <point x="432" y="-82"/>
      <point x="444" y="-91"/>
      <point x="463" y="-91" type="curve" smooth="yes"/>
      <point x="475" y="-91"/>
      <point x="484" y="-89"/>
      <point x="493" y="-86" type="curve"/>
      <point x="493" y="-166" type="line"/>
      <point x="475" y="-174"/>
      <point x="452" y="-182"/>
    </contour>
    <contour>
      <point x="208" y="321" type="curve"/>
      <point x="400" y="321" type="line"/>
      <point x="397" y="384"/>
      <point x="366" y="419"/>
      <point x="308" y="419" type="curve" smooth="yes"/>
      <point x="254" y="419"/>
      <point x="217" y="384"/>
    </contour>
  </outline>
</glyph>
<glyph name="ecaron" format="2">
  <advance width="598"/>
  <unicode hex="011B"/>
  <outline>
    <contour>
      <point x="237" y="585" type="line"/>
      <point x="118" y="748" type="line"/>
      <point x="243" y="748" type="line"/>
      <point x="304" y="692" type="line"/>
      <point x="365" y="748" type="line"/>
      <point x="487" y="748" type="line"/>
      <point x="364" y="585" type="line"/>
    </contour>
    <contour>
      <point x="309" y="-12" type="curve" smooth="yes"/>
      <point x="145" y="-12"/>
      <point x="25" y="84"/>
      <point x="25" y="255" type="curve" smooth="yes"/>
      <point x="25" y="263" type="line" smooth="yes"/>
      <point x="25" y="431"/>
      <point x="150" y="537"/>
      <point x="308" y="537" type="curve" smooth="yes"/>
      <point x="451" y="537"/>
      <point x="574" y="455"/>
      <point x="574" y="267" type="curve" smooth="yes"/>
      <point x="574" y="220" type="line"/>
      <point x="206" y="220" type="line"/>
      <point x="211" y="151"/>
      <point x="251" y="111"/>
      <point x="315" y="111" type="curve" smooth="yes"/>
      <point x="374" y="111"/>
      <point x="399" y="138"/>
      <point x="406" y="173" type="curve"/>
      <point x="574" y="173" type="line"/>
      <point x="558" y="55"/>
      <point x="467" y="-12"/>
    </contour>
    <contour>
      <point x="208" y="321" type="curve"/>
      <point x="400" y="321" type="line"/>
      <point x="397" y="384"/>
      <point x="366" y="419"/>
      <point x="308" y="419" type="curve" smooth="yes"/>
      <point x="254" y="419"/>
      <point x="217" y="384"/>
    </contour>
  </outline>
</glyph>
<glyph name="Gcommaaccent" format="2">
  <advance width="787"/>
  <unicode hex="0122"/>
  <outline>
    <contour>
      <point x="406" y="-12" type="curve" smooth="yes"/>
      <point x="163" y="-12"/>
      <point x="31" y="139"/>
      <point x="31" y="353" type="curve" smooth="yes"/>
      <point x="31" y="361" type="line" smooth="yes"/>
      <point x="31" y="579"/>
      <point x="191" y="726"/>
      <point x="406" y="726" type="curve" smooth="yes"/>
      <point x="575" y="726"/>
      <point x="725" y="649"/>
      <point x="739" y="463" type="curve"/>
      <point x="536" y="463" type="line"/>
      <point x="526" y="530"/>
      <point x="483" y="565"/>
      <point x="407" y="565" type="curve" smooth="yes"/>
      <point x="306" y="565"/>
      <point x="245" y="487"/>
      <point x="245" y="358" type="curve" smooth="yes"/>
      <point x="245" y="350" type="line" smooth="yes"/>
      <point x="245" y="234"/>
      <point x="288" y="144"/>
      <point x="412" y="144" type="curve" smooth="yes"/>
      <point x="512" y="144"/>
      <point x="550" y="195"/>
      <point x="554" y="252" type="curve"/>
      <point x="420" y="252" type="line"/>
      <point x="420" y="395" type="line"/>
      <point x="756" y="395" type="line"/>
      <point x="756" y="307" type="line" smooth="yes"/>
      <point x="756" y="125"/>
      <point x="637" y="-12"/>
    </contour>
    <contour>
      <point x="388" y="-232" type="line"/>
      <point x="287" y="-205" type="line"/>
      <point x="329" y="-28" type="line"/>
      <point x="487" y="-47" type="line"/>
    </contour>
  </outline>
</glyph>
<glyph name="Hcircumflex" format="2">
  <advance width="784"/>
  <unicode hex="0124"/>
  <outline>
    <contour>
      <point x="69" y="0" type="line"/>
      <point x="69" y="715" type="line"/>
      <point x="275" y="715" type="line"/>
      <point x="275" y="442" type="line"/>
      <point x="510" y="442" type="line"/>
      <point x="510" y="715" type="line"/>
      <point x="715" y="715" type="line"/>
      <point x="715" y="0" type="line"/>
      <point x="510" y="0" type="line"/>
      <point x="510" y="282" type="line"/>
      <point x="275" y="282" type="line"/>
      <point x="275" y="0" type="line"/>
    </contour>
    <contour>
      <point x="205" y="759" type="line"/>
      <point x="319" y="905" type="line"/>
      <point x="469" y="905" type="line"/>
      <point x="579" y="759" type="line"/>
      <point x="449" y="759" type="line"/>
      <point x="390" y="808" type="line"/>
      <point x="332" y="759" type="line"/>
    </contour>
  </outline>
</glyph>
<glyph name="Hbar" format="2">
  <advance width="784"/>
  <unicode hex="0126"/>
  <outline>
    <contour>
      <point x="9" y="521" type="line"/>
      <point x="9" y="617" type="line"/>
      <point x="69" y="617" type="line"/>
      <point x="69" y="715" type="line"/>
      <point x="275" y="715" type="line"/>
      <point x="275" y="617" type="line"/>
      <point x="510" y="617" type="line"/>
      <point x="510" y="715" type="line"/>
      <point x="715" y="715" type="line"/>
      <point x="715" y="617" type="line"/>
      <point x="775" y="617" type="line"/>
      <point x="775" y="521" type="line"/>
      <point x="715" y="521" type="line"/>
      <point x="715" y="0" type="line"/>
      <point x="510" y="0" type="line"/>
      <point x="510" y="282" type="line"/>
      <point x="275" y="282" type="line"/>
      <point x="275" y="0" type="line"/>
      <point x="69" y="0" type="line"/>
      <point x="69" y="521" type="line"/>
    </contour>
    <contour>
      <point x="275" y="442" type="line"/>
      <point x="510" y="442" type="line"/>
      <point x="510" y="521" type="line"/>
      <point x="275" y="521" type="line"/>
    </contour>
  </outline>
</glyph>
<glyph name="Itilde" format="2">
  <advance width="352"/>
  <unicode hex="0128"/>
  <outline>
    <contour>
      <point x="73" y="0" type="line"/>
      <point x="73" y="715" type="line"/>
      <point x="280" y="715" type="line"/>
      <point x="280" y="0" type="line"/>
    </contour>
    <contour>
      <point x="242" y="758" type="curve" smooth="yes"/>
      <point x="185" y="758"/>
      <point x="153" y="792"/>
      <point x="122" y="792" type="curve" smooth="yes"/>
      <point x="106" y="792"/>
      <point x="94" y="778"/>
      <point x="91" y="759" type="curve"/>
      <point x="-11" y="759" type="line"/>
      <point x="-4" y="864"/>
      <point x="49" y="912"/>
      <point x="111" y="912" type="curve" smooth="yes"/>
      <point x="165" y="912"/>
      <point x="199" y="879"/>
      <point x="232" y="879" type="curve" smooth="yes"/>
      <point x="250" y="879"/>
      <point x="260" y="892"/>
      <point x="264" y="911" type="curve"/>
      <point x="365" y="911" type="line"/>
      <point x="358" y="806"/>
      <point x="302" y="758"/>
    </contour>
  </outline>
</glyph>
<glyph name="itilde" format="2">
  <advance width="295"/>
  <unicode hex="0129"/>
  <outline>
    <contour>
      <point x="58" y="0" type="line"/>
      <point x="58" y="523" type="line"/>
      <point x="237" y="523" type="line"/>
      <point x="237" y="0" type="line"/>
    </contour>
    <contour>
      <point x="212" y="587" type="curve" smooth="yes"/>
      <point x="156" y="587"/>
      <point x="126" y="620"/>
      <point x="95" y="620" type="curve" smooth="yes"/>
      <point x="79" y="620"/>
      <point x="67" y="607"/>
      <point x="64" y="588" type="curve"/>
      <point x="-33" y="588" type="line"/>
      <point x="-26" y="693"/>
      <point x="20" y="744"/>
      <point x="82" y="744" type="curve" smooth="yes"/>
      <point x="136" y="744"/>
      <point x="168" y="710"/>
      <point x="201" y="710" type="curve" smooth="yes"/>
      <point x="219" y="710"/>
      <point x="229" y="723"/>
      <point x="233" y="742" type="curve"/>
      <point x="330" y="742" type="line"/>
      <point x="322" y="638"/>
      <point x="272" y="587"/>
    </contour>
  </outline>
</glyph>
<glyph name="Imacron" format="2">
  <advance width="352"/>
  <unicode hex="012A"/>
  <outline>
    <contour>
      <point x="73" y="0" type="line"/>
      <point x="73" y="715" type="line"/>
      <point x="280" y="715" type="line"/>
      <point x="280" y="0" type="line"/>
    </contour>
    <contour>
      <point x="15" y="771" type="line"/>
      <point x="15" y="878" type="line"/>
      <point x="337" y="878" type="line"/>
      <point x="337" y="771" type="line"/>
    </contour>
  </outline>
</glyph>
<glyph name="Ibreve" format="2">
  <advance width="352"/>
  <unicode hex="012C"/>
  <outline>
    <contour>
      <point x="73" y="0" type="line"/>
      <point x="73" y="715" type="line"/>
      <point x="280" y="715" type="line"/>
      <point x="280" y="0" type="line"/>
    </contour>
    <contour>
      <point x="176" y="752" type="curve" smooth="yes"/>
      <point x="78" y="752"/>
      <point x="17" y="810"/>
      <point x="11" y="905" type="curve"/>
      <point x="127" y="905" type="line"/>
      <point x="130" y="877"/>
      <point x="147" y="859"/>
      <point x="176" y="859" type="curve" smooth="yes"/>
      <point x="205" y="859"/>
      <point x="224" y="877"/>
      <point x="228" y="905" type="curve"/>
      <point x="343" y="905" type="line"/>
      <point x="335" y="810"/>
      <point x="271" y="752"/>
    </contour>
  </outline>
</glyph>
<glyph name="ibreve" format="2">
  <advance width="295"/>
  <unicode hex="012D"/>
  <outline>
    <contour>
      <point x="58" y="0" type="line"/>
      <point x="58" y="523" type="line"/>
      <point x="237" y="523" type="line"/>
      <point x="237" y="0" type="line"/>
    </contour>
    <contour>
      <point x="147" y="587" type="curve" smooth="yes"/>
      <point x="52" y="587"/>
      <point x="-11" y="644"/>
      <point x="-16" y="745" type="curve"/>
      <point x="95" y="745" type="line"/>
      <point x="98" y="715"/>
      <point x="115" y="697"/>
      <point x="147" y="697" type="curve" smooth="yes"/>
      <point x="179" y="697"/>
      <point x="198" y="716"/>
      <point x="201" y="745" type="curve"/>
      <point x="312" y="745" type="line"/>
      <point x="306" y="644"/>
      <point x="240" y="587"/>
    </contour>
  </outline>
</glyph>
<glyph name="Iogonek" format="2">
  <advance width="352"/>
  <unicode hex="012E"/>
  <outline>
    <contour>
      <point x="193" y="-182" type="curve" smooth="yes"/>
      <point x="117" y="-182"/>
      <point x="70" y="-150"/>
      <point x="70" y="-101" type="curve" smooth="yes"/>
      <point x="70" y="-52"/>
      <point x="114" y="-21"/>
      <point x="155" y="0" type="curve"/>
      <point x="73" y="0" type="line"/>
      <point x="73" y="715" type="line"/>
      <point x="280" y="715" type="line"/>
      <point x="280" y="12" type="line"/>
      <point x="245" y="-12"/>
      <point x="225" y="-37"/>
      <point x="225" y="-60" type="curve" smooth="yes"/>
      <point x="225" y="-76"/>
      <point x="236" y="-86"/>
      <point x="255" y="-86" type="curve" smooth="yes"/>
      <point x="266" y="-86"/>
      <point x="276" y="-84"/>
      <point x="284" y="-81" type="curve"/>
      <point x="284" y="-166" type="line"/>
      <point x="266" y="-174"/>
      <point x="236" y="-182"/>
    </contour>
  </outline>
</glyph>
<glyph name="iogonek" format="2">
  <advance width="295"/>
  <unicode hex="012F"/>
  <outline>
    <contour>
      <point x="154" y="-182" type="curve" smooth="yes"/>
      <point x="83" y="-182"/>
      <point x="38" y="-151"/>
      <point x="38" y="-101" type="curve" smooth="yes"/>
      <point x="38" y="-50"/>
      <point x="81" y="-20"/>
      <point x="124" y="0" type="curve"/>
      <point x="58" y="0" type="line"/>
      <point x="58" y="523" type="line"/>
      <point x="237" y="523" type="line"/>
      <point x="237" y="9" type="line"/>
      <point x="197" y="-20"/>
      <point x="183" y="-41"/>
      <point x="183" y="-63" type="curve" smooth="yes"/>
      <point x="183" y="-82"/>
      <point x="195" y="-91"/>
      <point x="214" y="-91" type="curve" smooth="yes"/>
      <point x="226" y="-91"/>
      <point x="235" y="-89"/>
      <point x="244" y="-86" type="curve"/>
      <point x="244" y="-166" type="line"/>
      <point x="226" y="-174"/>
      <point x="201" y="-182"/>
    </contour>
    <contour>
      <point x="147" y="573" type="curve" smooth="yes"/>
      <point x="91" y="573"/>
      <point x="49" y="612"/>
      <point x="49" y="665" type="curve" smooth="yes"/>
      <point x="49" y="718"/>
      <point x="91" y="758"/>
      <point x="147" y="758" type="curve" smooth="yes"/>
      <point x="203" y="758"/>
      <point x="246" y="718"/>
      <point x="246" y="665" type="curve" smooth="yes"/>
      <point x="246" y="612"/>
      <point x="203" y="573"/>
    </contour>
  </outline>
</glyph>
<glyph name="Idotaccent" format="2">
  <advance width="352"/>
  <unicode hex="0130"/>
  <outline>
    <contour>
      <point x="73" y="0" type="line"/>
      <point x="73" y="715" type="line"/>
      <point x="280" y="715" type="line"/>
      <point x="280" y="0" type="line"/>
    </contour>
    <contour>
      <point x="177" y="757" type="curve" smooth="yes"/>
      <point x="123" y="757"/>
      <point x="82" y="795"/>
      <point x="82" y="847" type="curve" smooth="yes"/>
      <point x="82" y="898"/>
      <point x="123" y="936"/>
      <point x="177" y="936" type="curve" smooth="yes"/>
      <point x="231" y="936"/>
      <point x="272" y="898"/>
      <point x="272" y="847" type="curve" smooth="yes"/>
      <point x="272" y="795"/>
      <point x="231" y="757"/>
    </contour>
  </outline>
</glyph>
<glyph name="dotlessi" format="2">
  <advance width="295"/>
  <unicode hex="0131"/>
  <outline>
    <contour>
      <point x="58" y="0" type="line"/>
      <point x="58" y="523" type="line"/>
      <point x="237" y="523" type="line"/>
      <point x="237" y="0" type="line"/>
    </contour>
  </outline>
</glyph>
<glyph name="IJ" format="2">
  <advance width="804"/>
  <unicode hex="0132"/>
  <outline>
    <contour>
      <point x="73" y="0" type="line"/>
      <point x="73" y="715" type="line"/>
      <point x="280" y="715" type="line"/>
      <point x="280" y="0" type="line"/>
    </contour>
    <contour>
      <point x="488" y="-9" type="curve" smooth="yes"/>
      <point x="421" y="-9"/>
      <point x="387" y="1"/>
      <point x="358" y="15" type="curve"/>
      <point x="358" y="168" type="line"/>
      <point x="382" y="160"/>
      <point x="404" y="154"/>
      <point x="445" y="154" type="curve" smooth="yes"/>
      <point x="501" y="154"/>
      <point x="538" y="179"/>
      <point x="538" y="253" type="curve" smooth="yes"/>
      <point x="538" y="715" type="line"/>
      <point x="744" y="715" type="line"/>
      <point x="744" y="251" type="line" smooth="yes"/>
      <point x="744" y="79"/>
      <point x="656" y="-9"/>
    </contour>
  </outline>
</glyph>
<glyph name="ij" format="2">
  <advance width="591"/>
  <unicode hex="0133"/>
  <outline>
    <contour>
      <point x="58" y="0" type="line"/>
      <point x="58" y="523" type="line"/>
      <point x="237" y="523" type="line"/>
      <point x="237" y="0" type="line"/>
    </contour>
    <contour>
      <point x="147" y="573" type="curve" smooth="yes"/>
      <point x="91" y="573"/>
      <point x="49" y="612"/>
      <point x="49" y="665" type="curve" smooth="yes"/>
      <point x="49" y="718"/>
      <point x="91" y="758"/>
      <point x="147" y="758" type="curve" smooth="yes"/>
      <point x="203" y="758"/>
      <point x="246" y="718"/>
      <point x="246" y="665" type="curve" smooth="yes"/>
      <point x="246" y="612"/>
      <point x="203" y="573"/>
    </contour>
    <contour>
      <point x="289" y="-184" type="curve"/>
      <point x="289" y="-54" type="line"/>
      <point x="333" y="-51"/>
      <point x="353" y="-33"/>
      <point x="353" y="8" type="curve" smooth="yes"/>
      <point x="353" y="523" type="line"/>
      <point x="531" y="523" type="line"/>
      <point x="531" y="4" type="line" smooth="yes"/>
      <point x="531" y="-109"/>
      <point x="478" y="-184"/>
    </contour>
    <contour>
      <point x="442" y="573" type="curve" smooth="yes"/>
      <point x="386" y="573"/>
      <point x="344" y="612"/>
      <point x="344" y="665" type="curve" smooth="yes"/>
      <point x="344" y="718"/>
      <point x="386" y="758"/>
      <point x="442" y="758" type="curve" smooth="yes"/>
      <point x="498" y="758"/>
      <point x="541" y="718"/>
      <point x="541" y="665" type="curve" smooth="yes"/>
      <point x="541" y="612"/>
      <point x="498" y="573"/>
    </contour>
  </outline>
</glyph>
<glyph name="jcircumflex" format="2">
  <advance width="295"/>
  <unicode hex="0135"/>
  <outline>
    <contour>
      <point x="-6" y="-184" type="curve"/>
      <point x="-6" y="-54" type="line"/>
      <point x="38" y="-51"/>
      <point x="58" y="-33"/>
      <point x="58" y="8" type="curve" smooth="yes"/>
      <point x="58" y="523" type="line"/>
      <point x="236" y="523" type="line"/>
      <point x="236" y="4" type="line" smooth="yes"/>
      <point x="236" y="-109"/>
      <point x="183" y="-184"/>
    </contour>
    <contour>
      <point x="-38" y="585" type="line"/>
      <point x="85" y="748" type="line"/>
      <point x="213" y="748" type="line"/>
      <point x="331" y="585" type="line"/>
      <point x="206" y="585" type="line"/>
      <point x="145" y="641" type="line"/>
      <point x="85" y="585" type="line"/>
    </contour>
  </outline>
</glyph>
<glyph name="Kcommaaccent" format="2">
  <advance width="726"/>
  <unicode hex="0136"/>
  <outline>
    <contour>
      <point x="69" y="0" type="line"/>
      <point x="69" y="715" type="line"/>
      <point x="275" y="715" type="line"/>
      <point x="275" y="432" type="line"/>
      <point x="490" y="715" type="line"/>
      <point x="704" y="715" type="line"/>
      <point x="442" y="383" type="line"/>
      <point x="718" y="0" type="line"/>
      <point x="481" y="0" type="line"/>
      <point x="275" y="299" type="line"/>
      <point x="275" y="0" type="line"/>
    </contour>
    <contour>
      <point x="358" y="-232" type="line"/>
      <point x="257" y="-205" type="line"/>
      <point x="299" y="-28" type="line"/>
      <point x="457" y="-47" type="line"/>
    </contour>
  </outline>
</glyph>
<glyph name="lacute" format="2">
  <advance width="294"/>
  <unicode hex="013A"/>
  <outline>
    <contour>
      <point x="58" y="0" type="line"/>
      <point x="58" y="753" type="line"/>
      <point x="236" y="753" type="line"/>
      <point x="236" y="0" type="line"/>
    </contour>
  </outline>
</glyph>
<glyph name="Lcommaaccent" format="2">
  <advance width="575"/>
  <unicode hex="013B"/>
  <outline>
    <contour>
      <point x="289" y="-232" type="line"/>
      <point x="188" y="-205" type="line"/>
      <point x="230" y="-28" type="line"/>
      <point x="388" y="-47" type="line"/>
    </contour>
    <contour>
      <point x="69" y="0" type="line"/>
      <point x="69" y="715" type="line"/>
      <point x="275" y="715" type="line"/>
      <point x="275" y="159" type="line"/>
      <point x="545" y="159" type="line"/>
      <point x="545" y="0" type="line"/>
    </contour>
  </outline>
</glyph>
<glyph name="lcommaaccent" format="2">
  <advance width="294"/>
  <unicode hex="013C"/>
  <outline>
    <contour>
      <point x="133" y="-232" type="line"/>
      <point x="32" y="-205" type="line"/>
      <point x="74" y="-28" type="line"/>
      <point x="232" y="-47" type="line"/>
    </contour>
    <contour>
      <point x="58" y="0" type="line"/>
      <point x="58" y="753" type="line"/>
      <point x="236" y="753" type="line"/>
      <point x="236" y="0" type="line"/>
    </contour>
  </outline>
</glyph>
<glyph name="Lcaron" format="2">
  <advance width="575"/>
  <unicode hex="013D"/>
  <outline>
    <contour>
      <point x="344" y="539" type="line"/>
      <point x="360" y="715" type="line"/>
      <point x="508" y="715" type="line"/>
      <point x="447" y="539" type="line"/>
    </contour>
    <contour>
      <point x="69" y="0" type="line"/>
      <point x="69" y="715" type="line"/>
      <point x="275" y="715" type="line"/>
      <point x="275" y="159" type="line"/>
      <point x="545" y="159" type="line"/>
      <point x="545" y="0" type="line"/>
    </contour>
  </outline>
</glyph>
<glyph name="Ldot" format="2">
  <advance width="601"/>
  <unicode hex="013F"/>
  <outline>
    <contour>
      <point x="69" y="0" type="line"/>
      <point x="69" y="715" type="line"/>
      <point x="275" y="715" type="line"/>
      <point x="275" y="159" type="line"/>
      <point x="545" y="159" type="line"/>
      <point x="545" y="0" type="line"/>
    </contour>
    <contour>
      <point x="474" y="299" type="curve" smooth="yes"/>
      <point x="415" y="299"/>
      <point x="372" y="344"/>
      <point x="372" y="400" type="curve" smooth="yes"/>
      <point x="372" y="456"/>
      <point x="415" y="501"/>
      <point x="474" y="501" type="curve" smooth="yes"/>
      <point x="534" y="501"/>
      <point x="579" y="456"/>
      <point x="579" y="400" type="curve" smooth="yes"/>
      <point x="579" y="344"/>
      <point x="534" y="299"/>
    </contour>
  </outline>
</glyph>
<glyph name="ldot" format="2">
  <advance width="455"/>
  <unicode hex="0140"/>
  <outline>
    <contour>
      <point x="58" y="0" type="line"/>
      <point x="58" y="753" type="line"/>
      <point x="236" y="753" type="line"/>
      <point x="236" y="0" type="line"/>
    </contour>
    <contour>
      <point x="372" y="258" type="curve" smooth="yes"/>
      <point x="313" y="258"/>
      <point x="270" y="303"/>
      <point x="270" y="359" type="curve" smooth="yes"/>
      <point x="270" y="415"/>
      <point x="313" y="460"/>
      <point x="372" y="460" type="curve" smooth="yes"/>
      <point x="432" y="460"/>
      <point x="477" y="415"/>
      <point x="477" y="359" type="curve" smooth="yes"/>
      <point x="477" y="303"/>
      <point x="432" y="258"/>
    </contour>
  </outline>
</glyph>
<glyph name="Lslash" format="2">
  <advance width="593"/>
  <unicode hex="0141"/>
  <outline>
    <contour>
      <point x="25" y="229" type="line"/>
      <point x="25" y="337" type="line"/>
      <point x="88" y="359" type="line"/>
      <point x="88" y="715" type="line"/>
      <point x="293" y="715" type="line"/>
      <point x="293" y="430" type="line"/>
      <point x="473" y="493" type="line"/>
      <point x="473" y="384" type="line"/>
      <point x="293" y="322" type="line"/>
      <point x="293" y="159" type="line"/>
      <point x="564" y="159" type="line"/>
      <point x="564" y="0" type="line"/>
      <point x="88" y="0" type="line"/>
      <point x="88" y="251" type="line"/>
    </contour>
  </outline>
</glyph>
<glyph name="lslash" format="2">
  <advance width="333"/>
  <unicode hex="0142"/>
  <outline>
    <contour>
      <point x="17" y="261" type="line"/>
      <point x="17" y="376" type="line"/>
      <point x="78" y="405" type="line"/>
      <point x="78" y="753" type="line"/>
      <point x="256" y="753" type="line"/>
      <point x="256" y="492" type="line"/>
      <point x="320" y="523" type="line"/>
      <point x="320" y="407" type="line"/>
      <point x="256" y="376" type="line"/>
      <point x="256" y="0" type="line"/>
      <point x="78" y="0" type="line"/>
      <point x="78" y="290" type="line"/>
    </contour>
  </outline>
</glyph>
<glyph name="Ncaron" format="2">
  <advance width="777"/>
  <unicode hex="0147"/>
  <outline>
    <contour>
      <point x="328" y="759" type="line"/>
      <point x="218" y="905" type="line"/>
      <point x="348" y="905" type="line"/>
      <point x="406" y="856" type="line"/>
      <point x="465" y="905" type="line"/>
      <point x="592" y="905" type="line"/>
      <point x="478" y="759" type="line"/>
    </contour>
    <contour>
      <point x="69" y="0" type="line"/>
      <point x="69" y="715" type="line"/>
      <point x="300" y="715" type="line"/>
      <point x="529" y="312" type="line"/>
      <point x="529" y="715" type="line"/>
      <point x="708" y="715" type="line"/>
      <point x="708" y="0" type="line"/>
      <point x="510" y="0" type="line"/>
      <point x="249" y="449" type="line"/>
      <point x="249" y="0" type="line"/>
    </contour>
  </outline>
</glyph>
<glyph name="napostrophe" format="2">
  <advance width="743"/>
  <unicode hex="0149"/>
  <outline>
    <contour>
      <point x="70" y="428" type="line"/>
      <point x="-31" y="467" type="line"/>
      <point x="49" y="728" type="line"/>
      <point x="207" y="675" type="line"/>
    </contour>
    <contour>
      <point x="171" y="0" type="line"/>
      <point x="171" y="523" type="line"/>
      <point x="350" y="523" type="line"/>
      <point x="350" y="439" type="line"/>
      <point x="378" y="493"/>
      <point x="435" y="537"/>
      <point x="522" y="537" type="curve" smooth="yes"/>
      <point x="623" y="537"/>
      <point x="693" y="474"/>
      <point x="693" y="340" type="curve" smooth="yes"/>
      <point x="693" y="0" type="line"/>
      <point x="514" y="0" type="line"/>
      <point x="514" y="304" type="line" smooth="yes"/>
      <point x="514" y="363"/>
      <point x="491" y="392"/>
      <point x="439" y="392" type="curve" smooth="yes"/>
      <point x="386" y="392"/>
      <point x="350" y="360"/>
      <point x="350" y="293" type="curve" smooth="yes"/>
      <point x="350" y="0" type="line"/>
    </contour>
  </outline>
</glyph>
<glyph name="Eng" format="2">
  <advance width="777"/>
  <unicode hex="014A"/>
  <outline>
    <contour>
      <point x="467" y="-192" type="curve" smooth="yes"/>
      <point x="404" y="-192"/>
      <point x="373" y="-183"/>
      <point x="344" y="-169" type="curve"/>
      <point x="344" y="-24" type="line"/>
      <point x="367" y="-32"/>
      <point x="385" y="-38"/>
      <point x="422" y="-38" type="curve" smooth="yes"/>
      <point x="465" y="-38"/>
      <point x="496" y="-21"/>
      <point x="503" y="16" type="curve"/>
      <point x="254" y="466" type="line"/>
      <point x="254" y="0" type="line"/>
      <point x="69" y="0" type="line"/>
      <point x="69" y="715" type="line"/>
      <point x="303" y="715" type="line"/>
      <point x="524" y="303" type="line"/>
      <point x="524" y="715" type="line"/>
      <point x="708" y="715" type="line"/>
      <point x="708" y="23" type="line" smooth="yes"/>
      <point x="708" y="-107"/>
      <point x="626" y="-192"/>
    </contour>
  </outline>
</glyph>
<glyph name="ohungarumlaut" format="2">
  <advance width="622"/>
  <unicode hex="0151"/>
  <outline>
    <contour>
      <point x="157" y="583" type="line"/>
      <point x="201" y="749" type="line"/>
      <point x="341" y="749" type="line"/>
      <point x="264" y="583" type="line"/>
    </contour>
    <contour>
      <point x="335" y="583" type="line"/>
      <point x="378" y="749" type="line"/>
      <point x="518" y="749" type="line"/>
      <point x="441" y="583" type="line"/>
    </contour>
    <contour>
      <point x="312" y="121" type="curve" smooth="yes"/>
      <point x="379" y="121"/>
      <point x="415" y="171"/>
      <point x="415" y="258" type="curve" smooth="yes"/>
      <point x="415" y="266" type="line" smooth="yes"/>
      <point x="415" y="354"/>
      <point x="380" y="403"/>
      <point x="312" y="403" type="curve" smooth="yes"/>
      <point x="245" y="403"/>
      <point x="208" y="356"/>
      <point x="208" y="268" type="curve" smooth="yes"/>
      <point x="208" y="260" type="line" smooth="yes"/>
      <point x="208" y="170"/>
      <point x="243" y="121"/>
    </contour>
    <contour>
      <point x="311" y="-12" type="curve" smooth="yes"/>
      <point x="150" y="-12"/>
      <point x="25" y="86"/>
      <point x="25" y="255" type="curve" smooth="yes"/>
      <point x="25" y="263" type="line" smooth="yes"/>
      <point x="25" y="431"/>
      <point x="150" y="537"/>
      <point x="312" y="537" type="curve" smooth="yes"/>
      <point x="473" y="537"/>
      <point x="597" y="434"/>
      <point x="597" y="268" type="curve" smooth="yes"/>
      <point x="597" y="260" type="line" smooth="yes"/>
      <point x="597" y="90"/>
      <point x="472" y="-12"/>
    </contour>
  </outline>
</glyph>
<glyph name="OE" format="2">
  <advance width="979"/>
  <unicode hex="0152"/>
  <outline>
    <contour>
      <point x="31" y="357" type="line" smooth="yes"/>
      <point x="31" y="580"/>
      <point x="164" y="715"/>
      <point x="413" y="715" type="curve" smooth="yes"/>
      <point x="930" y="715" type="line"/>
      <point x="930" y="557" type="line"/>
      <point x="655" y="557" type="line"/>
      <point x="655" y="434" type="line"/>
      <point x="871" y="434" type="line"/>
      <point x="871" y="288" type="line"/>
      <point x="655" y="288" type="line"/>
      <point x="655" y="158" type="line"/>
      <point x="946" y="158" type="line"/>
      <point x="946" y="0" type="line"/>
      <point x="413" y="0" type="line" smooth="yes"/>
      <point x="161" y="0"/>
      <point x="31" y="127"/>
      <point x="31" y="349" type="curve" smooth="yes"/>
    </contour>
    <contour>
      <point x="452" y="557" type="line"/>
      <point x="420" y="557" type="line" smooth="yes"/>
      <point x="298" y="557"/>
      <point x="245" y="493"/>
      <point x="245" y="360" type="curve" smooth="yes"/>
      <point x="245" y="352" type="line" smooth="yes"/>
      <point x="245" y="216"/>
      <point x="298" y="158"/>
      <point x="421" y="158" type="curve" smooth="yes"/>
      <point x="452" y="158" type="line"/>
    </contour>
  </outline>
</glyph>
<glyph name="oe" format="2">
  <advance width="985"/>
  <unicode hex="0153"/>
  <outline>
    <contour>
      <point x="311" y="-12" type="curve" smooth="yes"/>
      <point x="150" y="-12"/>
      <point x="25" y="86"/>
      <point x="25" y="255" type="curve" smooth="yes"/>
      <point x="25" y="263" type="line" smooth="yes"/>
      <point x="25" y="431"/>
      <point x="150" y="537"/>
      <point x="312" y="537" type="curve" smooth="yes"/>
      <point x="393" y="537"/>
      <point x="459" y="508"/>
      <point x="505" y="458" type="curve"/>
      <point x="551" y="508"/>
      <point x="617" y="537"/>
      <point x="695" y="537" type="curve" smooth="yes"/>
      <point x="838" y="537"/>
      <point x="961" y="455"/>
      <point x="961" y="267" type="curve" smooth="yes"/>
      <point x="961" y="220" type="line"/>
      <point x="593" y="220" type="line"/>
      <point x="598" y="151"/>
      <point x="638" y="111"/>
      <point x="702" y="111" type="curve" smooth="yes"/>
      <point x="761" y="111"/>
      <point x="786" y="138"/>
      <point x="793" y="173" type="curve"/>
      <point x="961" y="173" type="line"/>
      <point x="945" y="55"/>
      <point x="854" y="-12"/>
      <point x="696" y="-12" type="curve" smooth="yes"/>
      <point x="614" y="-12"/>
      <point x="547" y="14"/>
      <point x="501" y="64" type="curve"/>
      <point x="456" y="15"/>
      <point x="390" y="-12"/>
    </contour>
    <contour>
      <point x="312" y="121" type="curve" smooth="yes"/>
      <point x="379" y="121"/>
      <point x="415" y="171"/>
      <point x="415" y="258" type="curve" smooth="yes"/>
      <point x="415" y="266" type="line" smooth="yes"/>
      <point x="415" y="354"/>
      <point x="380" y="403"/>
      <point x="312" y="403" type="curve" smooth="yes"/>
      <point x="245" y="403"/>
      <point x="208" y="356"/>
      <point x="208" y="268" type="curve" smooth="yes"/>
      <point x="208" y="260" type="line" smooth="yes"/>
      <point x="208" y="170"/>
      <point x="243" y="121"/>
    </contour>
    <contour>
      <point x="595" y="321" type="curve"/>
      <point x="787" y="321" type="line"/>
      <point x="784" y="384"/>
      <point x="753" y="419"/>
      <point x="695" y="419" type="curve" smooth="yes"/>
      <point x="641" y="419"/>
      <point x="604" y="384"/>
    </contour>
  </outline>
</glyph>
<glyph name="racute" format="2">
  <advance width="428"/>
  <unicode hex="0155"/>
  <outline>
    <contour>
      <point x="165" y="583" type="line"/>
      <point x="218" y="749" type="line"/>
      <point x="398" y="749" type="line"/>
      <point x="293" y="583" type="line"/>
    </contour>
    <contour>
      <point x="53" y="0" type="line"/>
      <point x="53" y="523" type="line"/>
      <point x="232" y="523" type="line"/>
      <point x="232" y="419" type="line"/>
      <point x="265" y="497"/>
      <point x="320" y="531"/>
      <point x="401" y="530" type="curve"/>
      <point x="401" y="363" type="line"/>
      <point x="292" y="366"/>
      <point x="232" y="332"/>
      <point x="232" y="248" type="curve" smooth="yes"/>
      <point x="232" y="0" type="line"/>
    </contour>
  </outline>
</glyph>
<glyph name="Rcaron" format="2">
  <advance width="697"/>
  <unicode hex="0158"/>
  <outline>
    <contour>
      <point x="259" y="759" type="line"/>
      <point x="149" y="905" type="line"/>
      <point x="279" y="905" type="line"/>
      <point x="337" y="856" type="line"/>
      <point x="396" y="905" type="line"/>
      <point x="523" y="905" type="line"/>
      <point x="409" y="759" type="line"/>
    </contour>
    <contour>
      <point x="69" y="0" type="line"/>
      <point x="69" y="715" type="line"/>
      <point x="349" y="715" type="line" smooth="yes"/>
      <point x="536" y="715"/>
      <point x="640" y="639"/>
      <point x="640" y="488" type="curve" smooth="yes"/>
      <point x="640" y="484" type="line" smooth="yes"/>
      <point x="640" y="382"/>
      <point x="586" y="325"/>
      <point x="511" y="296" type="curve"/>
      <point x="682" y="0" type="line"/>
      <point x="466" y="0" type="line"/>
      <point x="321" y="256" type="line"/>
      <point x="273" y="256" type="line"/>
      <point x="273" y="0" type="line"/>
    </contour>
    <contour>
      <point x="273" y="389" type="line"/>
      <point x="339" y="389" type="line" smooth="yes"/>
      <point x="408" y="389"/>
      <point x="442" y="418"/>
      <point x="442" y="476" type="curve" smooth="yes"/>
      <point x="442" y="480" type="line" smooth="yes"/>
      <point x="442" y="538"/>
      <point x="406" y="561"/>
      <point x="340" y="561" type="curve" smooth="yes"/>
      <point x="273" y="561" type="line"/>
    </contour>
  </outline>
</glyph>
<glyph name="Scircumflex" format="2">
  <advance width="647"/>
  <unicode hex="015C"/>
  <outline>
    <contour>
      <point x="134" y="759" type="line"/>
      <point x="248" y="905" type="line"/>
      <point x="398" y="905" type="line"/>
      <point x="508" y="759" type="line"/>
      <point x="378" y="759" type="line"/>
      <point x="319" y="808" type="line"/>
      <point x="261" y="759" type="line"/>
    </contour>
    <contour>
      <point x="331" y="-12" type="curve" smooth="yes"/>
      <point x="131" y="-12"/>
      <point x="29" y="72"/>
      <point x="23" y="227" type="curve"/>
      <point x="218" y="227" type="line"/>
      <point x="223" y="176"/>
      <point x="246" y="134"/>
      <point x="331" y="134" type="curve" smooth="yes"/>
      <point x="390" y="134"/>
      <point x="423" y="163"/>
      <point x="423" y="205" type="curve" smooth="yes"/>
      <point x="423" y="249"/>
      <point x="396" y="261"/>
      <point x="310" y="274" type="curve" smooth="yes"/>
      <point x="108" y="298"/>
      <point x="40" y="358"/>
      <point x="40" y="502" type="curve" smooth="yes"/>
      <point x="40" y="631"/>
      <point x="146" y="725"/>
      <point x="317" y="725" type="curve" smooth="yes"/>
      <point x="489" y="725"/>
      <point x="586" y="653"/>
      <point x="599" y="502" type="curve"/>
      <point x="409" y="502" type="line"/>
      <point x="402" y="553"/>
      <point x="373" y="579"/>
      <point x="317" y="579" type="curve" smooth="yes"/>
      <point x="262" y="579"/>
      <point x="234" y="554"/>
      <point x="234" y="518" type="curve" smooth="yes"/>
      <point x="234" y="478"/>
      <point x="256" y="460"/>
      <point x="345" y="448" type="curve" smooth="yes"/>
      <point x="526" y="428"/>
      <point x="619" y="381"/>
      <point x="619" y="226" type="curve" smooth="yes"/>
      <point x="619" y="95"/>
      <point x="515" y="-12"/>
    </contour>
  </outline>
</glyph>
